<?xml version="1.0" encoding="UTF-8" standalone="no"?>
<svg
   width="18"
   height="32.0098"
   shape-rendering="crispEdges"
   version="1.1"
   id="svg772"
   sodipodi:docname="BHetman.svg"
   inkscape:version="1.2.2 (732a01da63, 2022-12-09)"
   xmlns:inkscape="http://www.inkscape.org/namespaces/inkscape"
   xmlns:sodipodi="http://sodipodi.sourceforge.net/DTD/sodipodi-0.dtd"
   xmlns="http://www.w3.org/2000/svg"
   xmlns:svg="http://www.w3.org/2000/svg">
  <defs
     id="defs776" />
  <sodipodi:namedview
     id="namedview774"
     pagecolor="#505050"
     bordercolor="#ffffff"
     borderopacity="1"
     inkscape:showpageshadow="0"
     inkscape:pageopacity="0"
     inkscape:pagecheckerboard="1"
     inkscape:deskcolor="#505050"
     showgrid="false"
     inkscape:zoom="12.560606"
     inkscape:cx="15.763571"
     inkscape:cy="21.097708"
     inkscape:window-width="1920"
     inkscape:window-height="1009"
     inkscape:window-x="-8"
     inkscape:window-y="-8"
     inkscape:window-maximized="1"
     inkscape:current-layer="svg772" />
  <rect
     x="8"
     y="0"
     width="1"
     height="1"
     fill="#5f4b17"
     fill-opacity="1"
     id="rect2" />
  <rect
     x="9"
     y="0"
     width="1"
     height="1"
     fill="#5f4b17"
     fill-opacity="1"
     id="rect4" />
  <rect
     x="7"
     y="1"
     width="1"
     height="1"
     fill="#554314"
     fill-opacity="1"
     id="rect6" />
  <rect
     x="8"
     y="1"
     width="1"
     height="1"
     fill="#89002b"
     fill-opacity="1"
     id="rect8" />
  <rect
     x="9"
     y="1"
     width="1"
     height="1"
     fill="#990030"
     fill-opacity="1"
     id="rect10" />
  <rect
     x="10"
     y="1"
     width="1"
     height="1"
     fill="#5f4b17"
     fill-opacity="1"
     id="rect12" />
  <rect
     x="7"
     y="2"
     width="1"
     height="1"
     fill="#7b601b"
     fill-opacity="1"
     id="rect14" />
  <rect
     x="8"
     y="2"
     width="1"
     height="1"
     fill="#94132b"
     fill-opacity="1"
     id="rect16" />
  <rect
     x="9"
     y="2"
     width="1"
     height="1"
     fill="#89002b"
     fill-opacity="1"
     id="rect18" />
  <rect
     x="10"
     y="2"
     width="1"
     height="1"
     fill="#443510"
     fill-opacity="1"
     id="rect20" />
  <rect
     x="6"
     y="3"
     width="1"
     height="1"
     fill="#7c6424"
     fill-opacity="1"
     id="rect22" />
  <rect
     x="7"
     y="3"
     width="1"
     height="1"
     fill="#947528"
     fill-opacity="1"
     id="rect24" />
  <rect
     x="8"
     y="3"
     width="1"
     height="1"
     fill="#947528"
     fill-opacity="1"
     id="rect26" />
  <rect
     x="9"
     y="3"
     width="1"
     height="1"
     fill="#6e5619"
     fill-opacity="1"
     id="rect28" />
  <rect
     x="10"
     y="3"
     width="1"
     height="1"
     fill="#5f4b17"
     fill-opacity="1"
     id="rect30" />
  <rect
     x="11"
     y="3"
     width="1"
     height="1"
     fill="#735918"
     fill-opacity="1"
     id="rect32" />
  <rect
     x="5"
     y="4"
     width="1"
     height="1"
     fill="#92711f"
     fill-opacity="1"
     id="rect34" />
  <rect
     x="6"
     y="4"
     width="1"
     height="1"
     fill="#f8ca50"
     fill-opacity="1"
     id="rect36" />
  <rect
     x="7"
     y="4"
     width="1"
     height="1"
     fill="#fbd668"
     fill-opacity="1"
     id="rect38" />
  <rect
     x="8"
     y="4"
     width="1"
     height="1"
     fill="#cba644"
     fill-opacity="1"
     id="rect40" />
  <rect
     x="9"
     y="4"
     width="1"
     height="1"
     fill="#d7b95b"
     fill-opacity="1"
     id="rect42" />
  <rect
     x="10"
     y="4"
     width="1"
     height="1"
     fill="#e9cc6e"
     fill-opacity="1"
     id="rect44" />
  <rect
     x="11"
     y="4"
     width="1"
     height="1"
     fill="#eac75f"
     fill-opacity="1"
     id="rect46" />
  <rect
     x="12"
     y="4"
     width="1"
     height="1"
     fill="#6e5619"
     fill-opacity="1"
     id="rect48" />
  <rect
     x="4"
     y="5"
     width="1"
     height="1"
     fill="#665017"
     fill-opacity="1"
     id="rect50" />
  <rect
     x="5"
     y="5"
     width="1"
     height="1"
     fill="#e9c65f"
     fill-opacity="1"
     id="rect52" />
  <rect
     x="6"
     y="5"
     width="1"
     height="1"
     fill="#d0b764"
     fill-opacity="1"
     id="rect54" />
  <rect
     x="7"
     y="5"
     width="1"
     height="1"
     fill="#edc75e"
     fill-opacity="1"
     id="rect56" />
  <rect
     x="8"
     y="5"
     width="1"
     height="1"
     fill="#d5b252"
     fill-opacity="1"
     id="rect58" />
  <rect
     x="9"
     y="5"
     width="1"
     height="1"
     fill="#eaca68"
     fill-opacity="1"
     id="rect60" />
  <rect
     x="10"
     y="5"
     width="1"
     height="1"
     fill="#b39b53"
     fill-opacity="1"
     id="rect62" />
  <rect
     x="11"
     y="5"
     width="1"
     height="1"
     fill="#d7b85d"
     fill-opacity="1"
     id="rect64" />
  <rect
     x="12"
     y="5"
     width="1"
     height="1"
     fill="#e2c261"
     fill-opacity="1"
     id="rect66" />
  <rect
     x="13"
     y="5"
     width="1"
     height="1"
     fill="#6e5619"
     fill-opacity="1"
     id="rect68" />
  <rect
     x="3"
     y="6"
     width="1"
     height="1"
     fill="#715919"
     fill-opacity="1"
     id="rect70" />
  <rect
     x="4"
     y="6"
     width="1"
     height="1"
     fill="#fddd77"
     fill-opacity="1"
     id="rect72" />
  <rect
     x="5"
     y="6"
     width="1"
     height="1"
     fill="#e9ce75"
     fill-opacity="1"
     id="rect74" />
  <rect
     x="6"
     y="6"
     width="1"
     height="1"
     fill="#c5a952"
     fill-opacity="1"
     id="rect76" />
  <rect
     x="7"
     y="6"
     width="1"
     height="1"
     fill="#b69743"
     fill-opacity="1"
     id="rect78" />
  <rect
     x="8"
     y="6"
     width="1"
     height="1"
     fill="#a28a48"
     fill-opacity="1"
     id="rect80" />
  <rect
     x="9"
     y="6"
     width="1"
     height="1"
     fill="#897944"
     fill-opacity="1"
     id="rect82" />
  <rect
     x="10"
     y="6"
     width="1"
     height="1"
     fill="#dcba5b"
     fill-opacity="1"
     id="rect84" />
  <rect
     x="11"
     y="6"
     width="1"
     height="1"
     fill="#d5b960"
     fill-opacity="1"
     id="rect86" />
  <rect
     x="12"
     y="6"
     width="1"
     height="1"
     fill="#a7995f"
     fill-opacity="1"
     id="rect88" />
  <rect
     x="13"
     y="6"
     width="1"
     height="1"
     fill="#e7cc73"
     fill-opacity="1"
     id="rect90" />
  <rect
     x="14"
     y="6"
     width="1"
     height="1"
     fill="#7b601b"
     fill-opacity="1"
     id="rect92" />
  <rect
     x="3"
     y="7"
     width="1"
     height="1"
     fill="#634e17"
     fill-opacity="1"
     id="rect94" />
  <rect
     x="4"
     y="7"
     width="1"
     height="1"
     fill="#d3be70"
     fill-opacity="1"
     id="rect96" />
  <rect
     x="5"
     y="7"
     width="1"
     height="1"
     fill="#e8ce74"
     fill-opacity="1"
     id="rect98" />
  <rect
     x="6"
     y="7"
     width="1"
     height="1"
     fill="#bea24f"
     fill-opacity="1"
     id="rect100" />
  <rect
     x="7"
     y="7"
     width="1"
     height="1"
     fill="#e1bd54"
     fill-opacity="1"
     id="rect102" />
  <rect
     x="8"
     y="7"
     width="1"
     height="1"
     fill="#f0c34f"
     fill-opacity="1"
     id="rect104" />
  <rect
     x="9"
     y="7"
     width="1"
     height="1"
     fill="#eed278"
     fill-opacity="1"
     id="rect106" />
  <rect
     x="10"
     y="7"
     width="1"
     height="1"
     fill="#a99049"
     fill-opacity="1"
     id="rect108" />
  <rect
     x="11"
     y="7"
     width="1"
     height="1"
     fill="#ebcb6c"
     fill-opacity="1"
     id="rect110" />
  <rect
     x="12"
     y="7"
     width="1"
     height="1"
     fill="#b8a462"
     fill-opacity="1"
     id="rect112" />
  <rect
     x="13"
     y="7"
     width="1"
     height="1"
     fill="#e5c76a"
     fill-opacity="1"
     id="rect114" />
  <rect
     x="14"
     y="7"
     width="1"
     height="1"
     fill="#50421c"
     fill-opacity="1"
     id="rect116" />
  <rect
     x="3"
     y="8"
     width="1"
     height="1"
     fill="#5f4b17"
     fill-opacity="1"
     id="rect118" />
  <rect
     x="4"
     y="8"
     width="1"
     height="1"
     fill="#ceb667"
     fill-opacity="1"
     id="rect120" />
  <rect
     x="5"
     y="8"
     width="1"
     height="1"
     fill="#b8a45f"
     fill-opacity="1"
     id="rect122" />
  <rect
     x="6"
     y="8"
     width="1"
     height="1"
     fill="#dbba5d"
     fill-opacity="1"
     id="rect124" />
  <rect
     x="7"
     y="8"
     width="1"
     height="1"
     fill="#eeca66"
     fill-opacity="1"
     id="rect126" />
  <rect
     x="8"
     y="8"
     width="1"
     height="1"
     fill="#e2c366"
     fill-opacity="1"
     id="rect128" />
  <rect
     x="9"
     y="8"
     width="1"
     height="1"
     fill="#d7b85d"
     fill-opacity="1"
     id="rect130" />
  <rect
     x="10"
     y="8"
     width="1"
     height="1"
     fill="#d8ba60"
     fill-opacity="1"
     id="rect132" />
  <rect
     x="11"
     y="8"
     width="1"
     height="1"
     fill="#d8b862"
     fill-opacity="1"
     id="rect134" />
  <rect
     x="12"
     y="8"
     width="1"
     height="1"
     fill="#eccc6b"
     fill-opacity="1"
     id="rect136" />
  <rect
     x="13"
     y="8"
     width="1"
     height="1"
     fill="#d2b55e"
     fill-opacity="1"
     id="rect138" />
  <rect
     x="14"
     y="8"
     width="1"
     height="1"
     fill="#6f581c"
     fill-opacity="1"
     id="rect140" />
  <rect
     x="3"
     y="9"
     width="1"
     height="1"
     fill="#7b601e"
     fill-opacity="1"
     id="rect142" />
  <rect
     x="4"
     y="9"
     width="1"
     height="1"
     fill="#5f4b17"
     fill-opacity="1"
     id="rect144" />
  <rect
     x="5"
     y="9"
     width="1"
     height="1"
     fill="#e6d07e"
     fill-opacity="1"
     id="rect146" />
  <rect
     x="6"
     y="9"
     width="1"
     height="1"
     fill="#5f4e20"
     fill-opacity="1"
     id="rect148" />
  <rect
     x="7"
     y="9"
     width="1"
     height="1"
     fill="#ebd27d"
     fill-opacity="1"
     id="rect150" />
  <rect
     x="8"
     y="9"
     width="1"
     height="1"
     fill="#796025"
     fill-opacity="1"
     id="rect152" />
  <rect
     x="9"
     y="9"
     width="1"
     height="1"
     fill="#957b37"
     fill-opacity="1"
     id="rect154" />
  <rect
     x="10"
     y="9"
     width="1"
     height="1"
     fill="#d3ba68"
     fill-opacity="1"
     id="rect156" />
  <rect
     x="11"
     y="9"
     width="1"
     height="1"
     fill="#846c2e"
     fill-opacity="1"
     id="rect158" />
  <rect
     x="12"
     y="9"
     width="1"
     height="1"
     fill="#e7c96d"
     fill-opacity="1"
     id="rect160" />
  <rect
     x="13"
     y="9"
     width="1"
     height="1"
     fill="#554314"
     fill-opacity="1"
     id="rect162" />
  <rect
     x="14"
     y="9"
     width="1"
     height="1"
     fill="#6e5619"
     fill-opacity="1"
     id="rect164" />
  <rect
     x="15"
     y="9"
     width="1"
     height="1"
     fill="#5f4b17"
     fill-opacity="1"
     id="rect166" />
  <rect
     x="1"
     y="10"
     width="1"
     height="1"
     fill="#4d3f19"
     fill-opacity="1"
     id="rect168" />
  <rect
     x="2"
     y="10"
     width="1"
     height="1"
     fill="#e6d07e"
     fill-opacity="1"
     id="rect170" />
  <rect
     x="3"
     y="10"
     width="1"
     height="1"
     fill="#634f1a"
     fill-opacity="1"
     id="rect172" />
  <rect
     x="4"
     y="10"
     width="1"
     height="1"
     fill="#fddd77"
     fill-opacity="1"
     id="rect174" />
  <rect
     x="5"
     y="10"
     width="1"
     height="1"
     fill="#7a601e"
     fill-opacity="1"
     id="rect176" />
  <rect
     x="6"
     y="10"
     width="1"
     height="1"
     fill="#ceb86d"
     fill-opacity="1"
     id="rect178" />
  <rect
     x="7"
     y="10"
     width="1"
     height="1"
     fill="#66531f"
     fill-opacity="1"
     id="rect180" />
  <rect
     x="8"
     y="10"
     width="1"
     height="1"
     fill="#dbc16e"
     fill-opacity="1"
     id="rect182" />
  <rect
     x="9"
     y="10"
     width="1"
     height="1"
     fill="#c8a13d"
     fill-opacity="1"
     id="rect184" />
  <rect
     x="10"
     y="10"
     width="1"
     height="1"
     fill="#947830"
     fill-opacity="1"
     id="rect186" />
  <rect
     x="11"
     y="10"
     width="1"
     height="1"
     fill="#d7b85f"
     fill-opacity="1"
     id="rect188" />
  <rect
     x="12"
     y="10"
     width="1"
     height="1"
     fill="#927326"
     fill-opacity="1"
     id="rect190" />
  <rect
     x="13"
     y="10"
     width="1"
     height="1"
     fill="#e4c86e"
     fill-opacity="1"
     id="rect192" />
  <rect
     x="14"
     y="10"
     width="1"
     height="1"
     fill="#7b601b"
     fill-opacity="1"
     id="rect194" />
  <rect
     x="15"
     y="10"
     width="1"
     height="1"
     fill="#fcd96f"
     fill-opacity="1"
     id="rect196" />
  <rect
     x="16"
     y="10"
     width="1"
     height="1"
     fill="#6e5619"
     fill-opacity="1"
     id="rect198" />
  <rect
     x="1"
     y="11"
     width="1"
     height="1"
     fill="#564518"
     fill-opacity="1"
     id="rect200" />
  <rect
     x="2"
     y="11"
     width="1"
     height="1"
     fill="#e1bf5c"
     fill-opacity="1"
     id="rect202" />
  <rect
     x="3"
     y="11"
     width="1"
     height="1"
     fill="#e6d07e"
     fill-opacity="1"
     id="rect204" />
  <rect
     x="4"
     y="11"
     width="1"
     height="1"
     fill="#e7c769"
     fill-opacity="1"
     id="rect206" />
  <rect
     x="5"
     y="11"
     width="1"
     height="1"
     fill="#e3c467"
     fill-opacity="1"
     id="rect208" />
  <rect
     x="6"
     y="11"
     width="1"
     height="1"
     fill="#e4c86e"
     fill-opacity="1"
     id="rect210" />
  <rect
     x="7"
     y="11"
     width="1"
     height="1"
     fill="#cfad50"
     fill-opacity="1"
     id="rect212" />
  <rect
     x="8"
     y="11"
     width="1"
     height="1"
     fill="#fcd96f"
     fill-opacity="1"
     id="rect214" />
  <rect
     x="9"
     y="11"
     width="1"
     height="1"
     fill="#fee180"
     fill-opacity="1"
     id="rect216" />
  <rect
     x="10"
     y="11"
     width="1"
     height="1"
     fill="#debf66"
     fill-opacity="1"
     id="rect218" />
  <rect
     x="11"
     y="11"
     width="1"
     height="1"
     fill="#c9ad59"
     fill-opacity="1"
     id="rect220" />
  <rect
     x="12"
     y="11"
     width="1"
     height="1"
     fill="#b79d51"
     fill-opacity="1"
     id="rect222" />
  <rect
     x="13"
     y="11"
     width="1"
     height="1"
     fill="#e9c865"
     fill-opacity="1"
     id="rect224" />
  <rect
     x="14"
     y="11"
     width="1"
     height="1"
     fill="#fbd669"
     fill-opacity="1"
     id="rect226" />
  <rect
     x="15"
     y="11"
     width="1"
     height="1"
     fill="#e6d07e"
     fill-opacity="1"
     id="rect228" />
  <rect
     x="16"
     y="11"
     width="1"
     height="1"
     fill="#6e5619"
     fill-opacity="1"
     id="rect230" />
  <rect
     x="1"
     y="12"
     width="1"
     height="1"
     fill="#6e5619"
     fill-opacity="1"
     id="rect232" />
  <rect
     x="2"
     y="12"
     width="1"
     height="1"
     fill="#ceb86d"
     fill-opacity="1"
     id="rect234" />
  <rect
     x="3"
     y="12"
     width="1"
     height="1"
     fill="#b9a766"
     fill-opacity="1"
     id="rect236" />
  <rect
     x="4"
     y="12"
     width="1"
     height="1"
     fill="#c4aa58"
     fill-opacity="1"
     id="rect238" />
  <rect
     x="5"
     y="12"
     width="1"
     height="1"
     fill="#c7ac5d"
     fill-opacity="1"
     id="rect240" />
  <rect
     x="6"
     y="12"
     width="1"
     height="1"
     fill="#e6ca70"
     fill-opacity="1"
     id="rect242" />
  <rect
     x="7"
     y="12"
     width="1"
     height="1"
     fill="#e7d07b"
     fill-opacity="1"
     id="rect244" />
  <rect
     x="8"
     y="12"
     width="1"
     height="1"
     fill="#fcd971"
     fill-opacity="1"
     id="rect246" />
  <rect
     x="9"
     y="12"
     width="1"
     height="1"
     fill="#ebc65e"
     fill-opacity="1"
     id="rect248" />
  <rect
     x="10"
     y="12"
     width="1"
     height="1"
     fill="#d4bd6e"
     fill-opacity="1"
     id="rect250" />
  <rect
     x="11"
     y="12"
     width="1"
     height="1"
     fill="#e1c061"
     fill-opacity="1"
     id="rect252" />
  <rect
     x="12"
     y="12"
     width="1"
     height="1"
     fill="#e2c261"
     fill-opacity="1"
     id="rect254" />
  <rect
     x="13"
     y="12"
     width="1"
     height="1"
     fill="#e8c664"
     fill-opacity="1"
     id="rect256" />
  <rect
     x="14"
     y="12"
     width="1"
     height="1"
     fill="#fee17f"
     fill-opacity="1"
     id="rect258" />
  <rect
     x="15"
     y="12"
     width="1"
     height="1"
     fill="#e6cc72"
     fill-opacity="1"
     id="rect260" />
  <rect
     x="16"
     y="12"
     width="1"
     height="1"
     fill="#5f4b17"
     fill-opacity="1"
     id="rect262" />
  <rect
     x="2"
     y="13"
     width="1"
     height="1"
     fill="#92711f"
     fill-opacity="1"
     id="rect264" />
  <rect
     x="3"
     y="13"
     width="1"
     height="1"
     fill="#e9c65f"
     fill-opacity="1"
     id="rect266" />
  <rect
     x="4"
     y="13"
     width="1"
     height="1"
     fill="#edc75e"
     fill-opacity="1"
     id="rect268" />
  <rect
     x="5"
     y="13"
     width="1"
     height="1"
     fill="#e8ce74"
     fill-opacity="1"
     id="rect270" />
  <rect
     x="6"
     y="13"
     width="1"
     height="1"
     fill="#d9bd65"
     fill-opacity="1"
     id="rect272" />
  <rect
     x="7"
     y="13"
     width="1"
     height="1"
     fill="#e9cc6e"
     fill-opacity="1"
     id="rect274" />
  <rect
     x="8"
     y="13"
     width="1"
     height="1"
     fill="#fbd66b"
     fill-opacity="1"
     id="rect276" />
  <rect
     x="9"
     y="13"
     width="1"
     height="1"
     fill="#fcd86f"
     fill-opacity="1"
     id="rect278" />
  <rect
     x="10"
     y="13"
     width="1"
     height="1"
     fill="#fbd76b"
     fill-opacity="1"
     id="rect280" />
  <rect
     x="11"
     y="13"
     width="1"
     height="1"
     fill="#bba65d"
     fill-opacity="1"
     id="rect282" />
  <rect
     x="12"
     y="13"
     width="1"
     height="1"
     fill="#ccb261"
     fill-opacity="1"
     id="rect284" />
  <rect
     x="13"
     y="13"
     width="1"
     height="1"
     fill="#d5b250"
     fill-opacity="1"
     id="rect286" />
  <rect
     x="14"
     y="13"
     width="1"
     height="1"
     fill="#e7ca6b"
     fill-opacity="1"
     id="rect288" />
  <rect
     x="15"
     y="13"
     width="1"
     height="1"
     fill="#7b601b"
     fill-opacity="1"
     id="rect290" />
  <rect
     x="3"
     y="14"
     width="1"
     height="1"
     fill="#51421c"
     fill-opacity="1"
     id="rect292" />
  <rect
     x="4"
     y="14"
     width="1"
     height="1"
     fill="#625326"
     fill-opacity="1"
     id="rect294" />
  <rect
     x="5"
     y="14"
     width="1"
     height="1"
     fill="#705a22"
     fill-opacity="1"
     id="rect296" />
  <rect
     x="6"
     y="14"
     width="1"
     height="1"
     fill="#624f1f"
     fill-opacity="1"
     id="rect298" />
  <rect
     x="7"
     y="14"
     width="1"
     height="1"
     fill="#615326"
     fill-opacity="1"
     id="rect300" />
  <rect
     x="8"
     y="14"
     width="1"
     height="1"
     fill="#3c3012"
     fill-opacity="1"
     id="rect302" />
  <rect
     x="9"
     y="14"
     width="1"
     height="1"
     fill="#3c3012"
     fill-opacity="1"
     id="rect304" />
  <rect
     x="10"
     y="14"
     width="1"
     height="1"
     fill="#635225"
     fill-opacity="1"
     id="rect306" />
  <rect
     x="11"
     y="14"
     width="1"
     height="1"
     fill="#503e15"
     fill-opacity="1"
     id="rect308" />
  <rect
     x="12"
     y="14"
     width="1"
     height="1"
     fill="#725e28"
     fill-opacity="1"
     id="rect310" />
  <rect
     x="13"
     y="14"
     width="1"
     height="1"
     fill="#4e3d14"
     fill-opacity="1"
     id="rect312" />
  <rect
     x="14"
     y="14"
     width="1"
     height="1"
     fill="#604e1e"
     fill-opacity="1"
     id="rect314" />
  <rect
     x="2"
     y="15"
     width="1"
     height="1"
     fill="#88681d"
     fill-opacity="1"
     id="rect316" />
  <rect
     x="3"
     y="15"
     width="1"
     height="1"
     fill="#baa75f"
     fill-opacity="1"
     id="rect318" />
  <rect
     x="4"
     y="15"
     width="1"
     height="1"
     fill="#a58c43"
     fill-opacity="1"
     id="rect320" />
  <rect
     x="5"
     y="15"
     width="1"
     height="1"
     fill="#8d793d"
     fill-opacity="1"
     id="rect322" />
  <rect
     x="6"
     y="15"
     width="1"
     height="1"
     fill="#ab9754"
     fill-opacity="1"
     id="rect324" />
  <rect
     x="7"
     y="15"
     width="1"
     height="1"
     fill="#b29440"
     fill-opacity="1"
     id="rect326" />
  <rect
     x="8"
     y="15"
     width="1"
     height="1"
     fill="#9c8032"
     fill-opacity="1"
     id="rect328" />
  <rect
     x="9"
     y="15"
     width="1"
     height="1"
     fill="#debd55"
     fill-opacity="1"
     id="rect330" />
  <rect
     x="10"
     y="15"
     width="1"
     height="1"
     fill="#cdb260"
     fill-opacity="1"
     id="rect332" />
  <rect
     x="11"
     y="15"
     width="1"
     height="1"
     fill="#d8b64f"
     fill-opacity="1"
     id="rect334" />
  <rect
     x="12"
     y="15"
     width="1"
     height="1"
     fill="#efd16e"
     fill-opacity="1"
     id="rect336" />
  <rect
     x="13"
     y="15"
     width="1"
     height="1"
     fill="#b6a153"
     fill-opacity="1"
     id="rect338" />
  <rect
     x="14"
     y="15"
     width="1"
     height="1"
     fill="#e5c763"
     fill-opacity="1"
     id="rect340" />
  <rect
     x="15"
     y="15"
     width="1"
     height="1"
     fill="#322915"
     fill-opacity="1"
     id="rect342" />
  <rect
     x="3"
     y="16"
     width="1"
     height="1"
     fill="#4e3e15"
     fill-opacity="1"
     id="rect344" />
  <rect
     x="4"
     y="16"
     width="1"
     height="1"
     fill="#47380f"
     fill-opacity="1"
     id="rect346" />
  <rect
     x="5"
     y="16"
     width="1"
     height="1"
     fill="#604a17"
     fill-opacity="1"
     id="rect348" />
  <rect
     x="6"
     y="16"
     width="1"
     height="1"
     fill="#6e571b"
     fill-opacity="1"
     id="rect350" />
  <rect
     x="7"
     y="16"
     width="1"
     height="1"
     fill="#795f1c"
     fill-opacity="1"
     id="rect352" />
  <rect
     x="8"
     y="16"
     width="1"
     height="1"
     fill="#665018"
     fill-opacity="1"
     id="rect354" />
  <rect
     x="9"
     y="16"
     width="1"
     height="1"
     fill="#755f29"
     fill-opacity="1"
     id="rect356" />
  <rect
     x="10"
     y="16"
     width="1"
     height="1"
     fill="#c39934"
     fill-opacity="1"
     id="rect358" />
  <rect
     x="11"
     y="16"
     width="1"
     height="1"
     fill="#8a6f2e"
     fill-opacity="1"
     id="rect360" />
  <rect
     x="12"
     y="16"
     width="1"
     height="1"
     fill="#6e5619"
     fill-opacity="1"
     id="rect362" />
  <rect
     x="13"
     y="16"
     width="1"
     height="1"
     fill="#635123"
     fill-opacity="1"
     id="rect364" />
  <rect
     x="14"
     y="16"
     width="1"
     height="1"
     fill="#493d1d"
     fill-opacity="1"
     id="rect366" />
  <rect
     x="4"
     y="17"
     width="1"
     height="1"
     fill="#4e3e15"
     fill-opacity="1"
     id="rect368" />
  <rect
     x="5"
     y="17"
     width="1"
     height="1"
     fill="#c9ac54"
     fill-opacity="1"
     id="rect370" />
  <rect
     x="6"
     y="17"
     width="1"
     height="1"
     fill="#e3c467"
     fill-opacity="1"
     id="rect372" />
  <rect
     x="7"
     y="17"
     width="1"
     height="1"
     fill="#bda960"
     fill-opacity="1"
     id="rect374" />
  <rect
     x="8"
     y="17"
     width="1"
     height="1"
     fill="#c3a752"
     fill-opacity="1"
     id="rect376" />
  <rect
     x="9"
     y="17"
     width="1"
     height="1"
     fill="#fbd76b"
     fill-opacity="1"
     id="rect378" />
  <rect
     x="10"
     y="17"
     width="1"
     height="1"
     fill="#e1bb53"
     fill-opacity="1"
     id="rect380" />
  <rect
     x="11"
     y="17"
     width="1"
     height="1"
     fill="#b8a15a"
     fill-opacity="1"
     id="rect382" />
  <rect
     x="12"
     y="17"
     width="1"
     height="1"
     fill="#fcd971"
     fill-opacity="1"
     id="rect384" />
  <rect
     x="13"
     y="17"
     width="1"
     height="1"
     fill="#6f581c"
     fill-opacity="1"
     id="rect386" />
  <rect
     x="4"
     y="18"
     width="1"
     height="1"
     fill="#5d4815"
     fill-opacity="1"
     id="rect388" />
  <rect
     x="5"
     y="18"
     width="1"
     height="1"
     fill="#d0b764"
     fill-opacity="1"
     id="rect390" />
  <rect
     x="6"
     y="18"
     width="1"
     height="1"
     fill="#bca458"
     fill-opacity="1"
     id="rect392" />
  <rect
     x="7"
     y="18"
     width="1"
     height="1"
     fill="#eaca68"
     fill-opacity="1"
     id="rect394" />
  <rect
     x="8"
     y="18"
     width="1"
     height="1"
     fill="#edcb66"
     fill-opacity="1"
     id="rect396" />
  <rect
     x="9"
     y="18"
     width="1"
     height="1"
     fill="#d5b55d"
     fill-opacity="1"
     id="rect398" />
  <rect
     x="10"
     y="18"
     width="1"
     height="1"
     fill="#b6a15d"
     fill-opacity="1"
     id="rect400" />
  <rect
     x="11"
     y="18"
     width="1"
     height="1"
     fill="#e6c564"
     fill-opacity="1"
     id="rect402" />
  <rect
     x="12"
     y="18"
     width="1"
     height="1"
     fill="#e5cc76"
     fill-opacity="1"
     id="rect404" />
  <rect
     x="13"
     y="18"
     width="1"
     height="1"
     fill="#6e571e"
     fill-opacity="1"
     id="rect406" />
  <rect
     x="4"
     y="19"
     width="1"
     height="1"
     fill="#5b4817"
     fill-opacity="1"
     id="rect408" />
  <rect
     x="5"
     y="19"
     width="1"
     height="1"
     fill="#e6d07e"
     fill-opacity="1"
     id="rect410" />
  <rect
     x="6"
     y="19"
     width="1"
     height="1"
     fill="#e1be59"
     fill-opacity="1"
     id="rect412" />
  <rect
     x="7"
     y="19"
     width="1"
     height="1"
     fill="#e0bb53"
     fill-opacity="1"
     id="rect414" />
  <rect
     x="8"
     y="19"
     width="1"
     height="1"
     fill="#d2b668"
     fill-opacity="1"
     id="rect416" />
  <rect
     x="9"
     y="19"
     width="1"
     height="1"
     fill="#c9ab54"
     fill-opacity="1"
     id="rect418" />
  <rect
     x="10"
     y="19"
     width="1"
     height="1"
     fill="#cbad56"
     fill-opacity="1"
     id="rect420" />
  <rect
     x="11"
     y="19"
     width="1"
     height="1"
     fill="#edcc69"
     fill-opacity="1"
     id="rect422" />
  <rect
     x="12"
     y="19"
     width="1"
     height="1"
     fill="#ac9551"
     fill-opacity="1"
     id="rect424" />
  <rect
     x="13"
     y="19"
     width="1"
     height="1"
     fill="#5f4b17"
     fill-opacity="1"
     id="rect426" />
  <rect
     x="4"
     y="20"
     width="1"
     height="1"
     fill="#92711f"
     fill-opacity="1"
     id="rect428" />
  <rect
     x="5"
     y="20"
     width="1"
     height="1"
     fill="#cfb96a"
     fill-opacity="1"
     id="rect430" />
  <rect
     x="6"
     y="20"
     width="1"
     height="1"
     fill="#edc352"
     fill-opacity="1"
     id="rect432" />
  <rect
     x="7"
     y="20"
     width="1"
     height="1"
     fill="#fbd76c"
     fill-opacity="1"
     id="rect434" />
  <rect
     x="8"
     y="20"
     width="1"
     height="1"
     fill="#d6be6f"
     fill-opacity="1"
     id="rect436" />
  <rect
     x="9"
     y="20"
     width="1"
     height="1"
     fill="#e7c15b"
     fill-opacity="1"
     id="rect438" />
  <rect
     x="10"
     y="20"
     width="1"
     height="1"
     fill="#b19c59"
     fill-opacity="1"
     id="rect440" />
  <rect
     x="11"
     y="20"
     width="1"
     height="1"
     fill="#eccb68"
     fill-opacity="1"
     id="rect442" />
  <rect
     x="12"
     y="20"
     width="1"
     height="1"
     fill="#e2c262"
     fill-opacity="1"
     id="rect444" />
  <rect
     x="13"
     y="20"
     width="1"
     height="1"
     fill="#735918"
     fill-opacity="1"
     id="rect446" />
  <rect
     x="4"
     y="21"
     width="1"
     height="1"
     fill="#5f4b17"
     fill-opacity="1"
     id="rect448" />
  <rect
     x="5"
     y="21"
     width="1"
     height="1"
     fill="#fee17f"
     fill-opacity="1"
     id="rect450" />
  <rect
     x="6"
     y="21"
     width="1"
     height="1"
     fill="#c0aa61"
     fill-opacity="1"
     id="rect452" />
  <rect
     x="7"
     y="21"
     width="1"
     height="1"
     fill="#eacb6f"
     fill-opacity="1"
     id="rect454" />
  <rect
     x="8"
     y="21"
     width="1"
     height="1"
     fill="#e8cc72"
     fill-opacity="1"
     id="rect456" />
  <rect
     x="9"
     y="21"
     width="1"
     height="1"
     fill="#d5b251"
     fill-opacity="1"
     id="rect458" />
  <rect
     x="10"
     y="21"
     width="1"
     height="1"
     fill="#c8a84e"
     fill-opacity="1"
     id="rect460" />
  <rect
     x="11"
     y="21"
     width="1"
     height="1"
     fill="#e3c467"
     fill-opacity="1"
     id="rect462" />
  <rect
     x="12"
     y="21"
     width="1"
     height="1"
     fill="#c3a855"
     fill-opacity="1"
     id="rect464" />
  <rect
     x="13"
     y="21"
     width="1"
     height="1"
     fill="#93711f"
     fill-opacity="1"
     id="rect466" />
  <rect
     x="4"
     y="22"
     width="1"
     height="1"
     fill="#5f4b17"
     fill-opacity="1"
     id="rect468" />
  <rect
     x="5"
     y="22"
     width="1"
     height="1"
     fill="#ffe588"
     fill-opacity="1"
     id="rect470" />
  <rect
     x="6"
     y="22"
     width="1"
     height="1"
     fill="#e8cb6c"
     fill-opacity="1"
     id="rect472" />
  <rect
     x="7"
     y="22"
     width="1"
     height="1"
     fill="#e9d079"
     fill-opacity="1"
     id="rect474" />
  <rect
     x="8"
     y="22"
     width="1"
     height="1"
     fill="#dcbe60"
     fill-opacity="1"
     id="rect476" />
  <rect
     x="9"
     y="22"
     width="1"
     height="1"
     fill="#fddd78"
     fill-opacity="1"
     id="rect478" />
  <rect
     x="10"
     y="22"
     width="1"
     height="1"
     fill="#e3c467"
     fill-opacity="1"
     id="rect480" />
  <rect
     x="11"
     y="22"
     width="1"
     height="1"
     fill="#e5ce7a"
     fill-opacity="1"
     id="rect482" />
  <rect
     x="12"
     y="22"
     width="1"
     height="1"
     fill="#e5ce7a"
     fill-opacity="1"
     id="rect484" />
  <rect
     x="13"
     y="22"
     width="1"
     height="1"
     fill="#5f4b17"
     fill-opacity="1"
     id="rect486" />
  <rect
     x="3"
     y="23"
     width="1"
     height="1"
     fill="#30270f"
     fill-opacity="1"
     id="rect488" />
  <rect
     x="4"
     y="23"
     width="1"
     height="1"
     fill="#493b19"
     fill-opacity="1"
     id="rect490" />
  <rect
     x="5"
     y="23"
     width="1"
     height="1"
     fill="#594a22"
     fill-opacity="1"
     id="rect492" />
  <rect
     x="6"
     y="23"
     width="1"
     height="1"
     fill="#9b7c30"
     fill-opacity="1"
     id="rect494" />
  <rect
     x="7"
     y="23"
     width="1"
     height="1"
     fill="#746230"
     fill-opacity="1"
     id="rect496" />
  <rect
     x="8"
     y="23"
     width="1"
     height="1"
     fill="#6f5a23"
     fill-opacity="1"
     id="rect498" />
  <rect
     x="9"
     y="23"
     width="1"
     height="1"
     fill="#413310"
     fill-opacity="1"
     id="rect500" />
  <rect
     x="10"
     y="23"
     width="1"
     height="1"
     fill="#634e1a"
     fill-opacity="1"
     id="rect502" />
  <rect
     x="11"
     y="23"
     width="1"
     height="1"
     fill="#4d3b11"
     fill-opacity="1"
     id="rect504" />
  <rect
     x="12"
     y="23"
     width="1"
     height="1"
     fill="#785b18"
     fill-opacity="1"
     id="rect506" />
  <rect
     x="13"
     y="23"
     width="1"
     height="1"
     fill="#241c0b"
     fill-opacity="1"
     id="rect508" />
  <rect
     x="14"
     y="23"
     width="1"
     height="1"
     fill="#30270f"
     fill-opacity="1"
     id="rect510" />
  <rect
     x="2"
     y="24"
     width="1"
     height="1"
     fill="#2c230d"
     fill-opacity="1"
     id="rect512" />
  <rect
     x="3"
     y="24"
     width="1"
     height="1"
     fill="#7b0027"
     fill-opacity="1"
     id="rect514" />
  <rect
     x="4"
     y="24"
     width="1"
     height="1"
     fill="#89002b"
     fill-opacity="1"
     id="rect516" />
  <rect
     x="5"
     y="24"
     width="1"
     height="1"
     fill="#5a001c"
     fill-opacity="1"
     id="rect518" />
  <rect
     x="6"
     y="24"
     width="1"
     height="1"
     fill="#7c0027"
     fill-opacity="1"
     id="rect520" />
  <rect
     x="7"
     y="24"
     width="1"
     height="1"
     fill="#89002b"
     fill-opacity="1"
     id="rect522" />
  <rect
     x="8"
     y="24"
     width="1"
     height="1"
     fill="#7c0027"
     fill-opacity="1"
     id="rect524" />
  <rect
     x="9"
     y="24"
     width="1"
     height="1"
     fill="#6f0023"
     fill-opacity="1"
     id="rect526" />
  <rect
     x="10"
     y="24"
     width="1"
     height="1"
     fill="#7c1324"
     fill-opacity="1"
     id="rect528" />
  <rect
     x="11"
     y="24"
     width="1"
     height="1"
     fill="#721321"
     fill-opacity="1"
     id="rect530" />
  <rect
     x="12"
     y="24"
     width="1"
     height="1"
     fill="#500019"
     fill-opacity="1"
     id="rect532" />
  <rect
     x="13"
     y="24"
     width="1"
     height="1"
     fill="#7b0027"
     fill-opacity="1"
     id="rect534" />
  <rect
     x="14"
     y="24"
     width="1"
     height="1"
     fill="#7b0027"
     fill-opacity="1"
     id="rect536" />
  <rect
     x="15"
     y="24"
     width="1"
     height="1"
     fill="#2c230d"
     fill-opacity="1"
     id="rect538" />
  <rect
     x="2"
     y="25"
     width="1"
     height="1"
     fill="#372b10"
     fill-opacity="1"
     id="rect540" />
  <rect
     x="3"
     y="25"
     width="1"
     height="1"
     fill="#1c1608"
     fill-opacity="1"
     id="rect542" />
  <rect
     x="4"
     y="25"
     width="1"
     height="1"
     fill="#2f2710"
     fill-opacity="1"
     id="rect544" />
  <rect
     x="5"
     y="25"
     width="1"
     height="1"
     fill="#2c230d"
     fill-opacity="1"
     id="rect546" />
  <rect
     x="6"
     y="25"
     width="1"
     height="1"
     fill="#31270e"
     fill-opacity="1"
     id="rect548" />
  <rect
     x="7"
     y="25"
     width="1"
     height="1"
     fill="#3d3012"
     fill-opacity="1"
     id="rect550" />
  <rect
     x="8"
     y="25"
     width="1"
     height="1"
     fill="#27200c"
     fill-opacity="1"
     id="rect552" />
  <rect
     x="9"
     y="25"
     width="1"
     height="1"
     fill="#2f260d"
     fill-opacity="1"
     id="rect554" />
  <rect
     x="10"
     y="25"
     width="1"
     height="1"
     fill="#221b0a"
     fill-opacity="1"
     id="rect556" />
  <rect
     x="11"
     y="25"
     width="1"
     height="1"
     fill="#30270d"
     fill-opacity="1"
     id="rect558" />
  <rect
     x="12"
     y="25"
     width="1"
     height="1"
     fill="#1f1909"
     fill-opacity="1"
     id="rect560" />
  <rect
     x="13"
     y="25"
     width="1"
     height="1"
     fill="#241c0b"
     fill-opacity="1"
     id="rect562" />
  <rect
     x="14"
     y="25"
     width="1"
     height="1"
     fill="#31270f"
     fill-opacity="1"
     id="rect564" />
  <rect
     x="15"
     y="25"
     width="1"
     height="1"
     fill="#31270e"
     fill-opacity="1"
     id="rect566" />
  <rect
     x="2"
     y="26"
     width="1"
     height="1"
     fill="#372b10"
     fill-opacity="1"
     id="rect568" />
  <rect
     x="3"
     y="26"
     width="1"
     height="1"
     fill="#89002b"
     fill-opacity="1"
     id="rect570" />
  <rect
     x="4"
     y="26"
     width="1"
     height="1"
     fill="#6f0023"
     fill-opacity="1"
     id="rect572" />
  <rect
     x="5"
     y="26"
     width="1"
     height="1"
     fill="#7b0027"
     fill-opacity="1"
     id="rect574" />
  <rect
     x="6"
     y="26"
     width="1"
     height="1"
     fill="#7c0027"
     fill-opacity="1"
     id="rect576" />
  <rect
     x="7"
     y="26"
     width="1"
     height="1"
     fill="#6f0023"
     fill-opacity="1"
     id="rect578" />
  <rect
     x="8"
     y="26"
     width="1"
     height="1"
     fill="#6f0023"
     fill-opacity="1"
     id="rect580" />
  <rect
     x="9"
     y="26"
     width="1"
     height="1"
     fill="#64001f"
     fill-opacity="1"
     id="rect582" />
  <rect
     x="10"
     y="26"
     width="1"
     height="1"
     fill="#6f0023"
     fill-opacity="1"
     id="rect584" />
  <rect
     x="11"
     y="26"
     width="1"
     height="1"
     fill="#6f0023"
     fill-opacity="1"
     id="rect586" />
  <rect
     x="12"
     y="26"
     width="1"
     height="1"
     fill="#63001f"
     fill-opacity="1"
     id="rect588" />
  <rect
     x="13"
     y="26"
     width="1"
     height="1"
     fill="#990030"
     fill-opacity="1"
     id="rect590" />
  <rect
     x="14"
     y="26"
     width="1"
     height="1"
     fill="#990030"
     fill-opacity="1"
     id="rect592" />
  <rect
     x="15"
     y="26"
     width="1"
     height="1"
     fill="#413211"
     fill-opacity="1"
     id="rect594" />
  <rect
     x="1"
     y="27"
     width="1"
     height="1"
     fill="#51421c"
     fill-opacity="1"
     id="rect596" />
  <rect
     x="2"
     y="27"
     width="1"
     height="1"
     fill="#56471b"
     fill-opacity="1"
     id="rect598" />
  <rect
     x="3"
     y="27"
     width="1"
     height="1"
     fill="#372b10"
     fill-opacity="1"
     id="rect600" />
  <rect
     x="4"
     y="27"
     width="1"
     height="1"
     fill="#6f5921"
     fill-opacity="1"
     id="rect602" />
  <rect
     x="5"
     y="27"
     width="1"
     height="1"
     fill="#372b10"
     fill-opacity="1"
     id="rect604" />
  <rect
     x="6"
     y="27"
     width="1"
     height="1"
     fill="#5b4919"
     fill-opacity="1"
     id="rect606" />
  <rect
     x="7"
     y="27"
     width="1"
     height="1"
     fill="#3d3012"
     fill-opacity="1"
     id="rect608" />
  <rect
     x="8"
     y="27"
     width="1"
     height="1"
     fill="#403516"
     fill-opacity="1"
     id="rect610" />
  <rect
     x="9"
     y="27"
     width="1"
     height="1"
     fill="#392d0f"
     fill-opacity="1"
     id="rect612" />
  <rect
     x="10"
     y="27"
     width="1"
     height="1"
     fill="#5a481b"
     fill-opacity="1"
     id="rect614" />
  <rect
     x="11"
     y="27"
     width="1"
     height="1"
     fill="#403516"
     fill-opacity="1"
     id="rect616" />
  <rect
     x="12"
     y="27"
     width="1"
     height="1"
     fill="#43391b"
     fill-opacity="1"
     id="rect618" />
  <rect
     x="13"
     y="27"
     width="1"
     height="1"
     fill="#281f0c"
     fill-opacity="1"
     id="rect620" />
  <rect
     x="14"
     y="27"
     width="1"
     height="1"
     fill="#372b10"
     fill-opacity="1"
     id="rect622" />
  <rect
     x="15"
     y="27"
     width="1"
     height="1"
     fill="#3a2d0f"
     fill-opacity="1"
     id="rect624" />
  <rect
     x="16"
     y="27"
     width="1"
     height="1"
     fill="#725e28"
     fill-opacity="1"
     id="rect626" />
  <rect
     x="0"
     y="28"
     width="1"
     height="1"
     fill="#624f1f"
     fill-opacity="1"
     id="rect628" />
  <rect
     x="1"
     y="28"
     width="1"
     height="1"
     fill="#3d3012"
     fill-opacity="1"
     id="rect630" />
  <rect
     x="2"
     y="28"
     width="1"
     height="1"
     fill="#9d8841"
     fill-opacity="1"
     id="rect632" />
  <rect
     x="3"
     y="28"
     width="1"
     height="1"
     fill="#b39843"
     fill-opacity="1"
     id="rect634" />
  <rect
     x="4"
     y="28"
     width="1"
     height="1"
     fill="#aa9444"
     fill-opacity="1"
     id="rect636" />
  <rect
     x="5"
     y="28"
     width="1"
     height="1"
     fill="#d7bc60"
     fill-opacity="1"
     id="rect638" />
  <rect
     x="6"
     y="28"
     width="1"
     height="1"
     fill="#c2a34c"
     fill-opacity="1"
     id="rect640" />
  <rect
     x="7"
     y="28"
     width="1"
     height="1"
     fill="#917e3f"
     fill-opacity="1"
     id="rect642" />
  <rect
     x="8"
     y="28"
     width="1"
     height="1"
     fill="#b8a158"
     fill-opacity="1"
     id="rect644" />
  <rect
     x="9"
     y="28"
     width="1"
     height="1"
     fill="#c0a756"
     fill-opacity="1"
     id="rect646" />
  <rect
     x="10"
     y="28"
     width="1"
     height="1"
     fill="#c9b469"
     fill-opacity="1"
     id="rect648" />
  <rect
     x="11"
     y="28"
     width="1"
     height="1"
     fill="#827441"
     fill-opacity="1"
     id="rect650" />
  <rect
     x="12"
     y="28"
     width="1"
     height="1"
     fill="#eed376"
     fill-opacity="1"
     id="rect652" />
  <rect
     x="13"
     y="28"
     width="1"
     height="1"
     fill="#edcf6f"
     fill-opacity="1"
     id="rect654" />
  <rect
     x="14"
     y="28"
     width="1"
     height="1"
     fill="#c1ab5c"
     fill-opacity="1"
     id="rect656" />
  <rect
     x="15"
     y="28"
     width="1"
     height="1"
     fill="#c9b469"
     fill-opacity="1"
     id="rect658" />
  <rect
     x="16"
     y="28"
     width="1"
     height="1"
     fill="#483813"
     fill-opacity="1"
     id="rect660" />
  <rect
     x="17"
     y="28"
     width="1"
     height="1"
     fill="#3d3012"
     fill-opacity="1"
     id="rect662" />
  <rect
     x="0"
     y="29"
     width="1"
     height="1"
     fill="#725e28"
     fill-opacity="1"
     id="rect664" />
  <rect
     x="1"
     y="29"
     width="1"
     height="1"
     fill="#c2a74d"
     fill-opacity="1"
     id="rect666" />
  <rect
     x="2"
     y="29"
     width="1"
     height="1"
     fill="#968541"
     fill-opacity="1"
     id="rect668" />
  <rect
     x="3"
     y="29"
     width="1"
     height="1"
     fill="#bda34b"
     fill-opacity="1"
     id="rect670" />
  <rect
     x="4"
     y="29"
     width="1"
     height="1"
     fill="#dbbf62"
     fill-opacity="1"
     id="rect672" />
  <rect
     x="5"
     y="29"
     width="1"
     height="1"
     fill="#f0d97c"
     fill-opacity="1"
     id="rect674" />
  <rect
     x="6"
     y="29"
     width="1"
     height="1"
     fill="#d7bc65"
     fill-opacity="1"
     id="rect676" />
  <rect
     x="7"
     y="29"
     width="1"
     height="1"
     fill="#b49b4e"
     fill-opacity="1"
     id="rect678" />
  <rect
     x="8"
     y="29"
     width="1"
     height="1"
     fill="#efd170"
     fill-opacity="1"
     id="rect680" />
  <rect
     x="9"
     y="29"
     width="1"
     height="1"
     fill="#e6cb6f"
     fill-opacity="1"
     id="rect682" />
  <rect
     x="10"
     y="29"
     width="1"
     height="1"
     fill="#c5ab56"
     fill-opacity="1"
     id="rect684" />
  <rect
     x="11"
     y="29"
     width="1"
     height="1"
     fill="#ddc672"
     fill-opacity="1"
     id="rect686" />
  <rect
     x="12"
     y="29"
     width="1"
     height="1"
     fill="#efd77d"
     fill-opacity="1"
     id="rect688" />
  <rect
     x="13"
     y="29"
     width="1"
     height="1"
     fill="#c7ae5b"
     fill-opacity="1"
     id="rect690" />
  <rect
     x="14"
     y="29"
     width="1"
     height="1"
     fill="#b5a35d"
     fill-opacity="1"
     id="rect692" />
  <rect
     x="15"
     y="29"
     width="1"
     height="1"
     fill="#eed376"
     fill-opacity="1"
     id="rect694" />
  <rect
     x="16"
     y="29"
     width="1"
     height="1"
     fill="#fee281"
     fill-opacity="1"
     id="rect696" />
  <rect
     x="17"
     y="29"
     width="1"
     height="1"
     fill="#51421c"
     fill-opacity="1"
     id="rect698" />
  <rect
     x="0"
     y="30"
     width="1"
     height="1"
     fill="#604f1e"
     fill-opacity="1"
     id="rect700" />
  <rect
     x="1"
     y="30"
     width="1"
     height="1"
     fill="#bfa855"
     fill-opacity="1"
     id="rect702" />
  <rect
     x="2"
     y="30"
     width="1"
     height="1"
     fill="#cfb85d"
     fill-opacity="1"
     id="rect704" />
  <rect
     x="3"
     y="30"
     width="1"
     height="1"
     fill="#ab9240"
     fill-opacity="1"
     id="rect706" />
  <rect
     x="4"
     y="30"
     width="1"
     height="1"
     fill="#b2a057"
     fill-opacity="1"
     id="rect708" />
  <rect
     x="5"
     y="30"
     width="1"
     height="1"
     fill="#fee280"
     fill-opacity="1"
     id="rect710" />
  <rect
     x="6"
     y="30"
     width="1"
     height="1"
     fill="#fee37e"
     fill-opacity="1"
     id="rect712" />
  <rect
     x="7"
     y="30"
     width="1"
     height="1"
     fill="#ffe68a"
     fill-opacity="1"
     id="rect714" />
  <rect
     x="8"
     y="30"
     width="1"
     height="1"
     fill="#b5a15a"
     fill-opacity="1"
     id="rect716" />
  <rect
     x="9"
     y="30"
     width="1"
     height="1"
     fill="#ccb560"
     fill-opacity="1"
     id="rect718" />
  <rect
     x="10"
     y="30"
     width="1"
     height="1"
     fill="#b49e54"
     fill-opacity="1"
     id="rect720" />
  <rect
     x="11"
     y="30"
     width="1"
     height="1"
     fill="#e3cc73"
     fill-opacity="1"
     id="rect722" />
  <rect
     x="12"
     y="30"
     width="1"
     height="1"
     fill="#f3d772"
     fill-opacity="1"
     id="rect724" />
  <rect
     x="13"
     y="30"
     width="1"
     height="1"
     fill="#cdb865"
     fill-opacity="1"
     id="rect726" />
  <rect
     x="14"
     y="30"
     width="1"
     height="1"
     fill="#eed376"
     fill-opacity="1"
     id="rect728" />
  <rect
     x="15"
     y="30"
     width="1"
     height="1"
     fill="#c9b468"
     fill-opacity="1"
     id="rect730" />
  <rect
     x="16"
     y="30"
     width="1"
     height="1"
     fill="#ecd176"
     fill-opacity="1"
     id="rect732" />
  <rect
     x="17"
     y="30"
     width="1"
     height="1"
     fill="#3d3012"
     fill-opacity="1"
     id="rect734" />
  <rect
     x="0"
     y="31"
     width="1"
     height="1"
     fill="#71622e"
     fill-opacity="1"
     id="rect736" />
  <rect
     x="1"
     y="31"
     width="1"
     height="1"
     fill="#51421c"
     fill-opacity="1"
     id="rect738" />
  <rect
     x="2"
     y="31"
     width="1"
     height="1"
     fill="#625326"
     fill-opacity="1"
     id="rect740" />
  <rect
     x="3"
     y="31"
     width="1"
     height="1"
     fill="#705a22"
     fill-opacity="1"
     id="rect742" />
  <rect
     x="4"
     y="31"
     width="1"
     height="1"
     fill="#624f1f"
     fill-opacity="1"
     id="rect744" />
  <rect
     x="5"
     y="31"
     width="1"
     height="1"
     fill="#615326"
     fill-opacity="1"
     id="rect746" />
  <rect
     x="6"
     y="31"
     width="1"
     height="1"
     fill="#3c3012"
     fill-opacity="1"
     id="rect748" />
  <rect
     x="7"
     y="31"
     width="1"
     height="1"
     fill="#4f3e15"
     fill-opacity="1"
     id="rect750" />
  <rect
     x="8"
     y="31"
     width="1"
     height="1"
     fill="#3c3012"
     fill-opacity="1"
     id="rect752" />
  <rect
     x="9"
     y="31"
     width="1"
     height="1"
     fill="#503e15"
     fill-opacity="1"
     id="rect754" />
  <rect
     x="10"
     y="31"
     width="1"
     height="1"
     fill="#725e28"
     fill-opacity="1"
     id="rect756" />
  <rect
     x="11"
     y="31"
     width="1"
     height="1"
     fill="#4e3d14"
     fill-opacity="1"
     id="rect758" />
  <rect
     x="12"
     y="31"
     width="1"
     height="1"
     fill="#604e1e"
     fill-opacity="1"
     id="rect760" />
  <rect
     x="13"
     y="31"
     width="1"
     height="1"
     fill="#7f6c30"
     fill-opacity="1"
     id="rect762" />
  <rect
     x="14"
     y="31"
     width="1"
     height="1"
     fill="#4f421b"
     fill-opacity="1"
     id="rect764" />
  <rect
     x="15"
     y="31"
     width="1"
     height="1"
     fill="#614f1f"
     fill-opacity="1"
     id="rect766" />
  <rect
     x="16"
     y="31"
     width="1"
     height="1"
     fill="#51421c"
     fill-opacity="1"
     id="rect768" />
  <rect
     x="17"
     y="31"
     width="1"
     height="1"
     fill="#3d3012"
     fill-opacity="1"
     id="rect770" />
</svg>
