<svg xmlns="http://www.w3.org/2000/svg" width="19" height="32" shape-rendering="crispEdges">
<rect x="7" y="0" width="1" height="1" fill="rgb(80,62,21)" fill-opacity="1.000"/>
<rect x="8" y="0" width="1" height="1" fill="rgb(81,66,28)" fill-opacity="1.000"/>
<rect x="9" y="0" width="1" height="1" fill="rgb(61,48,18)" fill-opacity="1.000"/>
<rect x="10" y="0" width="1" height="1" fill="rgb(80,62,21)" fill-opacity="1.000"/>
<rect x="11" y="0" width="1" height="1" fill="rgb(61,48,18)" fill-opacity="1.000"/>
<rect x="5" y="1" width="1" height="1" fill="rgb(80,62,21)" fill-opacity="1.000"/>
<rect x="6" y="1" width="1" height="1" fill="rgb(96,75,24)" fill-opacity="1.000"/>
<rect x="7" y="1" width="1" height="1" fill="rgb(222,194,102)" fill-opacity="1.000"/>
<rect x="8" y="1" width="1" height="1" fill="rgb(225,197,103)" fill-opacity="1.000"/>
<rect x="9" y="1" width="1" height="1" fill="rgb(236,209,118)" fill-opacity="1.000"/>
<rect x="10" y="1" width="1" height="1" fill="rgb(141,125,68)" fill-opacity="1.000"/>
<rect x="11" y="1" width="1" height="1" fill="rgb(217,195,115)" fill-opacity="1.000"/>
<rect x="12" y="1" width="1" height="1" fill="rgb(61,48,18)" fill-opacity="1.000"/>
<rect x="13" y="1" width="1" height="1" fill="rgb(61,48,18)" fill-opacity="1.000"/>
<rect x="4" y="2" width="1" height="1" fill="rgb(61,48,18)" fill-opacity="1.000"/>
<rect x="5" y="2" width="1" height="1" fill="rgb(227,192,91)" fill-opacity="1.000"/>
<rect x="6" y="2" width="1" height="1" fill="rgb(198,169,80)" fill-opacity="1.000"/>
<rect x="7" y="2" width="1" height="1" fill="rgb(171,147,76)" fill-opacity="1.000"/>
<rect x="8" y="2" width="1" height="1" fill="rgb(212,179,83)" fill-opacity="1.000"/>
<rect x="9" y="2" width="1" height="1" fill="rgb(206,176,85)" fill-opacity="1.000"/>
<rect x="10" y="2" width="1" height="1" fill="rgb(197,165,74)" fill-opacity="1.000"/>
<rect x="11" y="2" width="1" height="1" fill="rgb(206,181,99)" fill-opacity="1.000"/>
<rect x="12" y="2" width="1" height="1" fill="rgb(201,180,105)" fill-opacity="1.000"/>
<rect x="13" y="2" width="1" height="1" fill="rgb(209,181,93)" fill-opacity="1.000"/>
<rect x="14" y="2" width="1" height="1" fill="rgb(61,48,18)" fill-opacity="1.000"/>
<rect x="3" y="3" width="1" height="1" fill="rgb(59,48,17)" fill-opacity="1.000"/>
<rect x="4" y="3" width="1" height="1" fill="rgb(217,195,115)" fill-opacity="1.000"/>
<rect x="5" y="3" width="1" height="1" fill="rgb(216,184,87)" fill-opacity="1.000"/>
<rect x="6" y="3" width="1" height="1" fill="rgb(191,159,69)" fill-opacity="1.000"/>
<rect x="7" y="3" width="1" height="1" fill="rgb(199,169,81)" fill-opacity="1.000"/>
<rect x="8" y="3" width="1" height="1" fill="rgb(227,187,78)" fill-opacity="1.000"/>
<rect x="9" y="3" width="1" height="1" fill="rgb(185,158,73)" fill-opacity="1.000"/>
<rect x="10" y="3" width="1" height="1" fill="rgb(219,182,78)" fill-opacity="1.000"/>
<rect x="11" y="3" width="1" height="1" fill="rgb(225,198,102)" fill-opacity="1.000"/>
<rect x="12" y="3" width="1" height="1" fill="rgb(179,156,80)" fill-opacity="1.000"/>
<rect x="13" y="3" width="1" height="1" fill="rgb(224,202,116)" fill-opacity="1.000"/>
<rect x="14" y="3" width="1" height="1" fill="rgb(236,209,118)" fill-opacity="1.000"/>
<rect x="15" y="3" width="1" height="1" fill="rgb(80,62,21)" fill-opacity="1.000"/>
<rect x="3" y="4" width="1" height="1" fill="rgb(59,48,17)" fill-opacity="1.000"/>
<rect x="4" y="4" width="1" height="1" fill="rgb(172,150,76)" fill-opacity="1.000"/>
<rect x="5" y="4" width="1" height="1" fill="rgb(193,164,77)" fill-opacity="1.000"/>
<rect x="6" y="4" width="1" height="1" fill="rgb(208,175,75)" fill-opacity="1.000"/>
<rect x="7" y="4" width="1" height="1" fill="rgb(235,204,104)" fill-opacity="1.000"/>
<rect x="8" y="4" width="1" height="1" fill="rgb(212,176,74)" fill-opacity="1.000"/>
<rect x="9" y="4" width="1" height="1" fill="rgb(233,200,94)" fill-opacity="1.000"/>
<rect x="10" y="4" width="1" height="1" fill="rgb(244,207,97)" fill-opacity="1.000"/>
<rect x="11" y="4" width="1" height="1" fill="rgb(211,183,93)" fill-opacity="1.000"/>
<rect x="12" y="4" width="1" height="1" fill="rgb(194,169,87)" fill-opacity="1.000"/>
<rect x="13" y="4" width="1" height="1" fill="rgb(178,152,74)" fill-opacity="1.000"/>
<rect x="14" y="4" width="1" height="1" fill="rgb(235,212,126)" fill-opacity="1.000"/>
<rect x="15" y="4" width="1" height="1" fill="rgb(60,48,18)" fill-opacity="1.000"/>
<rect x="2" y="5" width="1" height="1" fill="rgb(59,48,17)" fill-opacity="1.000"/>
<rect x="3" y="5" width="1" height="1" fill="rgb(169,147,77)" fill-opacity="1.000"/>
<rect x="4" y="5" width="1" height="1" fill="rgb(200,179,100)" fill-opacity="1.000"/>
<rect x="5" y="5" width="1" height="1" fill="rgb(173,155,87)" fill-opacity="1.000"/>
<rect x="6" y="5" width="1" height="1" fill="rgb(213,183,90)" fill-opacity="1.000"/>
<rect x="7" y="5" width="1" height="1" fill="rgb(219,185,84)" fill-opacity="1.000"/>
<rect x="8" y="5" width="1" height="1" fill="rgb(224,183,73)" fill-opacity="1.000"/>
<rect x="9" y="5" width="1" height="1" fill="rgb(239,204,95)" fill-opacity="1.000"/>
<rect x="10" y="5" width="1" height="1" fill="rgb(226,196,96)" fill-opacity="1.000"/>
<rect x="11" y="5" width="1" height="1" fill="rgb(209,180,87)" fill-opacity="1.000"/>
<rect x="12" y="5" width="1" height="1" fill="rgb(179,156,82)" fill-opacity="1.000"/>
<rect x="13" y="5" width="1" height="1" fill="rgb(172,150,76)" fill-opacity="1.000"/>
<rect x="14" y="5" width="1" height="1" fill="rgb(197,171,86)" fill-opacity="1.000"/>
<rect x="15" y="5" width="1" height="1" fill="rgb(172,155,87)" fill-opacity="1.000"/>
<rect x="16" y="5" width="1" height="1" fill="rgb(61,48,18)" fill-opacity="1.000"/>
<rect x="2" y="6" width="1" height="1" fill="rgb(96,79,30)" fill-opacity="1.000"/>
<rect x="3" y="6" width="1" height="1" fill="rgb(172,145,64)" fill-opacity="1.000"/>
<rect x="4" y="6" width="1" height="1" fill="rgb(218,190,98)" fill-opacity="1.000"/>
<rect x="5" y="6" width="1" height="1" fill="rgb(204,167,62)" fill-opacity="1.000"/>
<rect x="6" y="6" width="1" height="1" fill="rgb(180,154,74)" fill-opacity="1.000"/>
<rect x="7" y="6" width="1" height="1" fill="rgb(215,185,87)" fill-opacity="1.000"/>
<rect x="8" y="6" width="1" height="1" fill="rgb(242,206,94)" fill-opacity="1.000"/>
<rect x="9" y="6" width="1" height="1" fill="rgb(243,207,98)" fill-opacity="1.000"/>
<rect x="10" y="6" width="1" height="1" fill="rgb(235,210,116)" fill-opacity="1.000"/>
<rect x="11" y="6" width="1" height="1" fill="rgb(231,202,101)" fill-opacity="1.000"/>
<rect x="12" y="6" width="1" height="1" fill="rgb(232,197,88)" fill-opacity="1.000"/>
<rect x="13" y="6" width="1" height="1" fill="rgb(200,175,90)" fill-opacity="1.000"/>
<rect x="14" y="6" width="1" height="1" fill="rgb(198,171,87)" fill-opacity="1.000"/>
<rect x="15" y="6" width="1" height="1" fill="rgb(220,194,108)" fill-opacity="1.000"/>
<rect x="16" y="6" width="1" height="1" fill="rgb(61,48,18)" fill-opacity="1.000"/>
<rect x="2" y="7" width="1" height="1" fill="rgb(95,75,23)" fill-opacity="1.000"/>
<rect x="3" y="7" width="1" height="1" fill="rgb(111,94,41)" fill-opacity="1.000"/>
<rect x="4" y="7" width="1" height="1" fill="rgb(198,170,80)" fill-opacity="1.000"/>
<rect x="5" y="7" width="1" height="1" fill="rgb(209,173,70)" fill-opacity="1.000"/>
<rect x="6" y="7" width="1" height="1" fill="rgb(229,193,84)" fill-opacity="1.000"/>
<rect x="7" y="7" width="1" height="1" fill="rgb(231,190,76)" fill-opacity="1.000"/>
<rect x="8" y="7" width="1" height="1" fill="rgb(232,198,92)" fill-opacity="1.000"/>
<rect x="9" y="7" width="1" height="1" fill="rgb(234,202,96)" fill-opacity="1.000"/>
<rect x="10" y="7" width="1" height="1" fill="rgb(230,201,102)" fill-opacity="1.000"/>
<rect x="11" y="7" width="1" height="1" fill="rgb(182,160,82)" fill-opacity="1.000"/>
<rect x="12" y="7" width="1" height="1" fill="rgb(219,193,99)" fill-opacity="1.000"/>
<rect x="13" y="7" width="1" height="1" fill="rgb(233,206,107)" fill-opacity="1.000"/>
<rect x="14" y="7" width="1" height="1" fill="rgb(198,165,74)" fill-opacity="1.000"/>
<rect x="15" y="7" width="1" height="1" fill="rgb(197,171,87)" fill-opacity="1.000"/>
<rect x="16" y="7" width="1" height="1" fill="rgb(59,47,17)" fill-opacity="1.000"/>
<rect x="2" y="8" width="1" height="1" fill="rgb(61,48,18)" fill-opacity="1.000"/>
<rect x="3" y="8" width="1" height="1" fill="rgb(207,177,83)" fill-opacity="1.000"/>
<rect x="4" y="8" width="1" height="1" fill="rgb(236,200,88)" fill-opacity="1.000"/>
<rect x="5" y="8" width="1" height="1" fill="rgb(199,163,61)" fill-opacity="1.000"/>
<rect x="6" y="8" width="1" height="1" fill="rgb(215,178,73)" fill-opacity="1.000"/>
<rect x="7" y="8" width="1" height="1" fill="rgb(217,183,82)" fill-opacity="1.000"/>
<rect x="8" y="8" width="1" height="1" fill="rgb(180,158,80)" fill-opacity="1.000"/>
<rect x="9" y="8" width="1" height="1" fill="rgb(233,200,95)" fill-opacity="1.000"/>
<rect x="10" y="8" width="1" height="1" fill="rgb(211,185,93)" fill-opacity="1.000"/>
<rect x="11" y="8" width="1" height="1" fill="rgb(223,194,94)" fill-opacity="1.000"/>
<rect x="12" y="8" width="1" height="1" fill="rgb(219,184,83)" fill-opacity="1.000"/>
<rect x="13" y="8" width="1" height="1" fill="rgb(188,163,84)" fill-opacity="1.000"/>
<rect x="14" y="8" width="1" height="1" fill="rgb(207,178,86)" fill-opacity="1.000"/>
<rect x="15" y="8" width="1" height="1" fill="rgb(187,160,80)" fill-opacity="1.000"/>
<rect x="16" y="8" width="1" height="1" fill="rgb(61,48,18)" fill-opacity="1.000"/>
<rect x="3" y="9" width="1" height="1" fill="rgb(61,48,18)" fill-opacity="1.000"/>
<rect x="4" y="9" width="1" height="1" fill="rgb(179,156,81)" fill-opacity="1.000"/>
<rect x="5" y="9" width="1" height="1" fill="rgb(171,146,69)" fill-opacity="1.000"/>
<rect x="6" y="9" width="1" height="1" fill="rgb(213,183,86)" fill-opacity="1.000"/>
<rect x="7" y="9" width="1" height="1" fill="rgb(202,167,71)" fill-opacity="1.000"/>
<rect x="8" y="9" width="1" height="1" fill="rgb(215,181,78)" fill-opacity="1.000"/>
<rect x="9" y="9" width="1" height="1" fill="rgb(172,150,76)" fill-opacity="1.000"/>
<rect x="10" y="9" width="1" height="1" fill="rgb(210,185,98)" fill-opacity="1.000"/>
<rect x="11" y="9" width="1" height="1" fill="rgb(229,188,76)" fill-opacity="1.000"/>
<rect x="12" y="9" width="1" height="1" fill="rgb(221,181,75)" fill-opacity="1.000"/>
<rect x="13" y="9" width="1" height="1" fill="rgb(219,182,80)" fill-opacity="1.000"/>
<rect x="14" y="9" width="1" height="1" fill="rgb(217,182,85)" fill-opacity="1.000"/>
<rect x="15" y="9" width="1" height="1" fill="rgb(112,86,26)" fill-opacity="1.000"/>
<rect x="3" y="10" width="1" height="1" fill="rgb(111,90,34)" fill-opacity="1.000"/>
<rect x="4" y="10" width="1" height="1" fill="rgb(199,179,100)" fill-opacity="1.000"/>
<rect x="5" y="10" width="1" height="1" fill="rgb(185,156,71)" fill-opacity="1.000"/>
<rect x="6" y="10" width="1" height="1" fill="rgb(180,150,63)" fill-opacity="1.000"/>
<rect x="7" y="10" width="1" height="1" fill="rgb(201,164,64)" fill-opacity="1.000"/>
<rect x="8" y="10" width="1" height="1" fill="rgb(226,190,87)" fill-opacity="1.000"/>
<rect x="9" y="10" width="1" height="1" fill="rgb(215,190,102)" fill-opacity="1.000"/>
<rect x="10" y="10" width="1" height="1" fill="rgb(208,176,78)" fill-opacity="1.000"/>
<rect x="11" y="10" width="1" height="1" fill="rgb(229,191,87)" fill-opacity="1.000"/>
<rect x="12" y="10" width="1" height="1" fill="rgb(252,215,106)" fill-opacity="1.000"/>
<rect x="13" y="10" width="1" height="1" fill="rgb(223,193,101)" fill-opacity="1.000"/>
<rect x="14" y="10" width="1" height="1" fill="rgb(207,169,68)" fill-opacity="1.000"/>
<rect x="15" y="10" width="1" height="1" fill="rgb(80,62,21)" fill-opacity="1.000"/>
<rect x="4" y="11" width="1" height="1" fill="rgb(61,48,18)" fill-opacity="1.000"/>
<rect x="5" y="11" width="1" height="1" fill="rgb(172,145,64)" fill-opacity="1.000"/>
<rect x="6" y="11" width="1" height="1" fill="rgb(171,146,69)" fill-opacity="1.000"/>
<rect x="7" y="11" width="1" height="1" fill="rgb(227,196,99)" fill-opacity="1.000"/>
<rect x="8" y="11" width="1" height="1" fill="rgb(198,170,80)" fill-opacity="1.000"/>
<rect x="9" y="11" width="1" height="1" fill="rgb(213,182,89)" fill-opacity="1.000"/>
<rect x="10" y="11" width="1" height="1" fill="rgb(177,151,74)" fill-opacity="1.000"/>
<rect x="11" y="11" width="1" height="1" fill="rgb(222,183,78)" fill-opacity="1.000"/>
<rect x="12" y="11" width="1" height="1" fill="rgb(236,209,118)" fill-opacity="1.000"/>
<rect x="13" y="11" width="1" height="1" fill="rgb(209,181,93)" fill-opacity="1.000"/>
<rect x="14" y="11" width="1" height="1" fill="rgb(78,61,20)" fill-opacity="1.000"/>
<rect x="5" y="12" width="1" height="1" fill="rgb(78,62,20)" fill-opacity="1.000"/>
<rect x="6" y="12" width="1" height="1" fill="rgb(110,86,27)" fill-opacity="1.000"/>
<rect x="7" y="12" width="1" height="1" fill="rgb(161,139,71)" fill-opacity="1.000"/>
<rect x="8" y="12" width="1" height="1" fill="rgb(199,166,74)" fill-opacity="1.000"/>
<rect x="9" y="12" width="1" height="1" fill="rgb(229,191,87)" fill-opacity="1.000"/>
<rect x="10" y="12" width="1" height="1" fill="rgb(222,182,77)" fill-opacity="1.000"/>
<rect x="11" y="12" width="1" height="1" fill="rgb(219,182,80)" fill-opacity="1.000"/>
<rect x="12" y="12" width="1" height="1" fill="rgb(61,48,18)" fill-opacity="1.000"/>
<rect x="13" y="12" width="1" height="1" fill="rgb(61,48,18)" fill-opacity="1.000"/>
<rect x="1" y="13" width="1" height="1" fill="rgb(61,48,18)" fill-opacity="1.000"/>
<rect x="2" y="13" width="1" height="1" fill="rgb(61,48,18)" fill-opacity="1.000"/>
<rect x="3" y="13" width="1" height="1" fill="rgb(59,48,18)" fill-opacity="1.000"/>
<rect x="4" y="13" width="1" height="1" fill="rgb(60,48,18)" fill-opacity="1.000"/>
<rect x="5" y="13" width="1" height="1" fill="rgb(60,48,18)" fill-opacity="1.000"/>
<rect x="6" y="13" width="1" height="1" fill="rgb(78,61,20)" fill-opacity="1.000"/>
<rect x="7" y="13" width="1" height="1" fill="rgb(60,48,18)" fill-opacity="1.000"/>
<rect x="8" y="13" width="1" height="1" fill="rgb(136,105,30)" fill-opacity="1.000"/>
<rect x="9" y="13" width="1" height="1" fill="rgb(136,109,37)" fill-opacity="1.000"/>
<rect x="10" y="13" width="1" height="1" fill="rgb(97,82,36)" fill-opacity="1.000"/>
<rect x="11" y="13" width="1" height="1" fill="rgb(150,124,52)" fill-opacity="1.000"/>
<rect x="12" y="13" width="1" height="1" fill="rgb(111,86,27)" fill-opacity="1.000"/>
<rect x="13" y="13" width="1" height="1" fill="rgb(111,86,27)" fill-opacity="1.000"/>
<rect x="14" y="13" width="1" height="1" fill="rgb(61,48,18)" fill-opacity="1.000"/>
<rect x="15" y="13" width="1" height="1" fill="rgb(60,48,18)" fill-opacity="1.000"/>
<rect x="16" y="13" width="1" height="1" fill="rgb(61,48,18)" fill-opacity="1.000"/>
<rect x="17" y="13" width="1" height="1" fill="rgb(61,48,18)" fill-opacity="1.000"/>
<rect x="2" y="14" width="1" height="1" fill="rgb(61,48,18)" fill-opacity="1.000"/>
<rect x="3" y="14" width="1" height="1" fill="rgb(186,167,95)" fill-opacity="1.000"/>
<rect x="4" y="14" width="1" height="1" fill="rgb(161,143,81)" fill-opacity="1.000"/>
<rect x="5" y="14" width="1" height="1" fill="rgb(187,167,95)" fill-opacity="1.000"/>
<rect x="6" y="14" width="1" height="1" fill="rgb(217,195,114)" fill-opacity="1.000"/>
<rect x="7" y="14" width="1" height="1" fill="rgb(193,167,83)" fill-opacity="1.000"/>
<rect x="8" y="14" width="1" height="1" fill="rgb(192,169,91)" fill-opacity="1.000"/>
<rect x="9" y="14" width="1" height="1" fill="rgb(172,155,87)" fill-opacity="1.000"/>
<rect x="10" y="14" width="1" height="1" fill="rgb(229,196,94)" fill-opacity="1.000"/>
<rect x="11" y="14" width="1" height="1" fill="rgb(220,194,108)" fill-opacity="1.000"/>
<rect x="12" y="14" width="1" height="1" fill="rgb(253,222,121)" fill-opacity="1.000"/>
<rect x="13" y="14" width="1" height="1" fill="rgb(236,209,118)" fill-opacity="1.000"/>
<rect x="14" y="14" width="1" height="1" fill="rgb(186,167,95)" fill-opacity="1.000"/>
<rect x="15" y="14" width="1" height="1" fill="rgb(255,230,138)" fill-opacity="1.000"/>
<rect x="16" y="14" width="1" height="1" fill="rgb(61,48,18)" fill-opacity="1.000"/>
<rect x="3" y="15" width="1" height="1" fill="rgb(60,48,18)" fill-opacity="1.000"/>
<rect x="4" y="15" width="1" height="1" fill="rgb(60,48,18)" fill-opacity="1.000"/>
<rect x="5" y="15" width="1" height="1" fill="rgb(134,117,63)" fill-opacity="1.000"/>
<rect x="6" y="15" width="1" height="1" fill="rgb(162,143,78)" fill-opacity="1.000"/>
<rect x="7" y="15" width="1" height="1" fill="rgb(168,141,61)" fill-opacity="1.000"/>
<rect x="8" y="15" width="1" height="1" fill="rgb(190,158,70)" fill-opacity="1.000"/>
<rect x="9" y="15" width="1" height="1" fill="rgb(206,176,87)" fill-opacity="1.000"/>
<rect x="10" y="15" width="1" height="1" fill="rgb(240,216,124)" fill-opacity="1.000"/>
<rect x="11" y="15" width="1" height="1" fill="rgb(172,155,87)" fill-opacity="1.000"/>
<rect x="12" y="15" width="1" height="1" fill="rgb(240,209,106)" fill-opacity="1.000"/>
<rect x="13" y="15" width="1" height="1" fill="rgb(219,194,104)" fill-opacity="1.000"/>
<rect x="14" y="15" width="1" height="1" fill="rgb(97,83,38)" fill-opacity="1.000"/>
<rect x="15" y="15" width="1" height="1" fill="rgb(61,48,18)" fill-opacity="1.000"/>
<rect x="4" y="16" width="1" height="1" fill="rgb(61,48,18)" fill-opacity="1.000"/>
<rect x="5" y="16" width="1" height="1" fill="rgb(58,48,17)" fill-opacity="1.000"/>
<rect x="6" y="16" width="1" height="1" fill="rgb(78,65,26)" fill-opacity="1.000"/>
<rect x="7" y="16" width="1" height="1" fill="rgb(112,90,34)" fill-opacity="1.000"/>
<rect x="8" y="16" width="1" height="1" fill="rgb(92,72,26)" fill-opacity="1.000"/>
<rect x="9" y="16" width="1" height="1" fill="rgb(113,90,34)" fill-opacity="1.000"/>
<rect x="10" y="16" width="1" height="1" fill="rgb(141,112,44)" fill-opacity="1.000"/>
<rect x="11" y="16" width="1" height="1" fill="rgb(80,62,21)" fill-opacity="1.000"/>
<rect x="12" y="16" width="1" height="1" fill="rgb(61,48,18)" fill-opacity="1.000"/>
<rect x="13" y="16" width="1" height="1" fill="rgb(110,88,35)" fill-opacity="1.000"/>
<rect x="14" y="16" width="1" height="1" fill="rgb(81,66,28)" fill-opacity="1.000"/>
<rect x="3" y="17" width="1" height="1" fill="rgb(95,75,23)" fill-opacity="1.000"/>
<rect x="4" y="17" width="1" height="1" fill="rgb(60,48,18)" fill-opacity="1.000"/>
<rect x="5" y="17" width="1" height="1" fill="rgb(149,125,51)" fill-opacity="1.000"/>
<rect x="6" y="17" width="1" height="1" fill="rgb(171,148,69)" fill-opacity="1.000"/>
<rect x="7" y="17" width="1" height="1" fill="rgb(190,167,90)" fill-opacity="1.000"/>
<rect x="8" y="17" width="1" height="1" fill="rgb(232,205,107)" fill-opacity="1.000"/>
<rect x="9" y="17" width="1" height="1" fill="rgb(232,200,101)" fill-opacity="1.000"/>
<rect x="10" y="17" width="1" height="1" fill="rgb(250,219,123)" fill-opacity="1.000"/>
<rect x="11" y="17" width="1" height="1" fill="rgb(223,198,111)" fill-opacity="1.000"/>
<rect x="12" y="17" width="1" height="1" fill="rgb(214,188,106)" fill-opacity="1.000"/>
<rect x="13" y="17" width="1" height="1" fill="rgb(207,182,99)" fill-opacity="1.000"/>
<rect x="14" y="17" width="1" height="1" fill="rgb(94,76,33)" fill-opacity="1.000"/>
<rect x="15" y="17" width="1" height="1" fill="rgb(95,75,23)" fill-opacity="1.000"/>
<rect x="2" y="18" width="1" height="1" fill="rgb(111,86,26)" fill-opacity="1.000"/>
<rect x="3" y="18" width="1" height="1" fill="rgb(111,90,33)" fill-opacity="1.000"/>
<rect x="4" y="18" width="1" height="1" fill="rgb(207,176,79)" fill-opacity="1.000"/>
<rect x="5" y="18" width="1" height="1" fill="rgb(225,187,78)" fill-opacity="1.000"/>
<rect x="6" y="18" width="1" height="1" fill="rgb(242,206,96)" fill-opacity="1.000"/>
<rect x="7" y="18" width="1" height="1" fill="rgb(229,197,98)" fill-opacity="1.000"/>
<rect x="8" y="18" width="1" height="1" fill="rgb(232,198,100)" fill-opacity="1.000"/>
<rect x="9" y="18" width="1" height="1" fill="rgb(219,187,86)" fill-opacity="1.000"/>
<rect x="10" y="18" width="1" height="1" fill="rgb(194,167,80)" fill-opacity="1.000"/>
<rect x="11" y="18" width="1" height="1" fill="rgb(200,174,87)" fill-opacity="1.000"/>
<rect x="12" y="18" width="1" height="1" fill="rgb(216,187,92)" fill-opacity="1.000"/>
<rect x="13" y="18" width="1" height="1" fill="rgb(192,169,90)" fill-opacity="1.000"/>
<rect x="14" y="18" width="1" height="1" fill="rgb(204,180,96)" fill-opacity="1.000"/>
<rect x="15" y="18" width="1" height="1" fill="rgb(80,62,21)" fill-opacity="1.000"/>
<rect x="16" y="18" width="1" height="1" fill="rgb(80,62,21)" fill-opacity="1.000"/>
<rect x="2" y="19" width="1" height="1" fill="rgb(76,59,19)" fill-opacity="1.000"/>
<rect x="3" y="19" width="1" height="1" fill="rgb(208,173,72)" fill-opacity="1.000"/>
<rect x="4" y="19" width="1" height="1" fill="rgb(236,200,88)" fill-opacity="1.000"/>
<rect x="5" y="19" width="1" height="1" fill="rgb(225,187,78)" fill-opacity="1.000"/>
<rect x="6" y="19" width="1" height="1" fill="rgb(215,178,73)" fill-opacity="1.000"/>
<rect x="7" y="19" width="1" height="1" fill="rgb(201,164,66)" fill-opacity="1.000"/>
<rect x="8" y="19" width="1" height="1" fill="rgb(189,157,64)" fill-opacity="1.000"/>
<rect x="9" y="19" width="1" height="1" fill="rgb(210,175,75)" fill-opacity="1.000"/>
<rect x="10" y="19" width="1" height="1" fill="rgb(211,182,86)" fill-opacity="1.000"/>
<rect x="11" y="19" width="1" height="1" fill="rgb(206,177,85)" fill-opacity="1.000"/>
<rect x="12" y="19" width="1" height="1" fill="rgb(201,165,67)" fill-opacity="1.000"/>
<rect x="13" y="19" width="1" height="1" fill="rgb(181,150,68)" fill-opacity="1.000"/>
<rect x="14" y="19" width="1" height="1" fill="rgb(207,178,86)" fill-opacity="1.000"/>
<rect x="15" y="19" width="1" height="1" fill="rgb(187,160,80)" fill-opacity="1.000"/>
<rect x="16" y="19" width="1" height="1" fill="rgb(61,50,23)" fill-opacity="1.000"/>
<rect x="2" y="20" width="1" height="1" fill="rgb(90,68,19)" fill-opacity="1.000"/>
<rect x="3" y="20" width="1" height="1" fill="rgb(189,166,88)" fill-opacity="1.000"/>
<rect x="4" y="20" width="1" height="1" fill="rgb(174,145,65)" fill-opacity="1.000"/>
<rect x="5" y="20" width="1" height="1" fill="rgb(190,166,88)" fill-opacity="1.000"/>
<rect x="6" y="20" width="1" height="1" fill="rgb(216,187,97)" fill-opacity="1.000"/>
<rect x="7" y="20" width="1" height="1" fill="rgb(197,165,72)" fill-opacity="1.000"/>
<rect x="8" y="20" width="1" height="1" fill="rgb(204,159,53)" fill-opacity="1.000"/>
<rect x="9" y="20" width="1" height="1" fill="rgb(191,154,58)" fill-opacity="1.000"/>
<rect x="10" y="20" width="1" height="1" fill="rgb(207,169,69)" fill-opacity="1.000"/>
<rect x="11" y="20" width="1" height="1" fill="rgb(188,160,81)" fill-opacity="1.000"/>
<rect x="12" y="20" width="1" height="1" fill="rgb(224,189,91)" fill-opacity="1.000"/>
<rect x="13" y="20" width="1" height="1" fill="rgb(183,156,80)" fill-opacity="1.000"/>
<rect x="14" y="20" width="1" height="1" fill="rgb(191,165,81)" fill-opacity="1.000"/>
<rect x="15" y="20" width="1" height="1" fill="rgb(229,185,57)" fill-opacity="1.000"/>
<rect x="16" y="20" width="1" height="1" fill="rgb(77,66,35)" fill-opacity="1.000"/>
<rect x="2" y="21" width="1" height="1" fill="rgb(78,61,20)" fill-opacity="1.000"/>
<rect x="3" y="21" width="1" height="1" fill="rgb(185,152,59)" fill-opacity="1.000"/>
<rect x="4" y="21" width="1" height="1" fill="rgb(185,160,76)" fill-opacity="1.000"/>
<rect x="5" y="21" width="1" height="1" fill="rgb(183,155,80)" fill-opacity="1.000"/>
<rect x="6" y="21" width="1" height="1" fill="rgb(203,175,91)" fill-opacity="1.000"/>
<rect x="7" y="21" width="1" height="1" fill="rgb(238,201,95)" fill-opacity="1.000"/>
<rect x="8" y="21" width="1" height="1" fill="rgb(194,168,87)" fill-opacity="1.000"/>
<rect x="9" y="21" width="1" height="1" fill="rgb(242,215,114)" fill-opacity="1.000"/>
<rect x="10" y="21" width="1" height="1" fill="rgb(212,176,77)" fill-opacity="1.000"/>
<rect x="11" y="21" width="1" height="1" fill="rgb(180,160,86)" fill-opacity="1.000"/>
<rect x="12" y="21" width="1" height="1" fill="rgb(229,195,91)" fill-opacity="1.000"/>
<rect x="13" y="21" width="1" height="1" fill="rgb(192,169,90)" fill-opacity="1.000"/>
<rect x="14" y="21" width="1" height="1" fill="rgb(255,230,138)" fill-opacity="1.000"/>
<rect x="15" y="21" width="1" height="1" fill="rgb(227,199,109)" fill-opacity="1.000"/>
<rect x="16" y="21" width="1" height="1" fill="rgb(80,62,21)" fill-opacity="1.000"/>
<rect x="2" y="22" width="1" height="1" fill="rgb(81,66,28)" fill-opacity="1.000"/>
<rect x="3" y="22" width="1" height="1" fill="rgb(152,133,64)" fill-opacity="1.000"/>
<rect x="4" y="22" width="1" height="1" fill="rgb(114,97,46)" fill-opacity="1.000"/>
<rect x="5" y="22" width="1" height="1" fill="rgb(233,203,109)" fill-opacity="1.000"/>
<rect x="6" y="22" width="1" height="1" fill="rgb(203,176,90)" fill-opacity="1.000"/>
<rect x="7" y="22" width="1" height="1" fill="rgb(232,196,91)" fill-opacity="1.000"/>
<rect x="8" y="22" width="1" height="1" fill="rgb(226,188,80)" fill-opacity="1.000"/>
<rect x="9" y="22" width="1" height="1" fill="rgb(229,196,91)" fill-opacity="1.000"/>
<rect x="10" y="22" width="1" height="1" fill="rgb(218,185,88)" fill-opacity="1.000"/>
<rect x="11" y="22" width="1" height="1" fill="rgb(225,195,95)" fill-opacity="1.000"/>
<rect x="12" y="22" width="1" height="1" fill="rgb(216,187,90)" fill-opacity="1.000"/>
<rect x="13" y="22" width="1" height="1" fill="rgb(207,177,83)" fill-opacity="1.000"/>
<rect x="14" y="22" width="1" height="1" fill="rgb(203,176,92)" fill-opacity="1.000"/>
<rect x="15" y="22" width="1" height="1" fill="rgb(185,167,96)" fill-opacity="1.000"/>
<rect x="16" y="22" width="1" height="1" fill="rgb(61,48,18)" fill-opacity="1.000"/>
<rect x="2" y="23" width="1" height="1" fill="rgb(59,48,17)" fill-opacity="1.000"/>
<rect x="3" y="23" width="1" height="1" fill="rgb(48,39,15)" fill-opacity="1.000"/>
<rect x="4" y="23" width="1" height="1" fill="rgb(73,59,25)" fill-opacity="1.000"/>
<rect x="5" y="23" width="1" height="1" fill="rgb(89,74,34)" fill-opacity="1.000"/>
<rect x="6" y="23" width="1" height="1" fill="rgb(106,86,35)" fill-opacity="1.000"/>
<rect x="7" y="23" width="1" height="1" fill="rgb(66,52,19)" fill-opacity="1.000"/>
<rect x="8" y="23" width="1" height="1" fill="rgb(89,71,28)" fill-opacity="1.000"/>
<rect x="9" y="23" width="1" height="1" fill="rgb(84,65,23)" fill-opacity="1.000"/>
<rect x="10" y="23" width="1" height="1" fill="rgb(65,53,20)" fill-opacity="1.000"/>
<rect x="11" y="23" width="1" height="1" fill="rgb(65,53,22)" fill-opacity="1.000"/>
<rect x="12" y="23" width="1" height="1" fill="rgb(48,39,15)" fill-opacity="1.000"/>
<rect x="13" y="23" width="1" height="1" fill="rgb(57,45,15)" fill-opacity="1.000"/>
<rect x="14" y="23" width="1" height="1" fill="rgb(36,28,11)" fill-opacity="1.000"/>
<rect x="15" y="23" width="1" height="1" fill="rgb(48,39,15)" fill-opacity="1.000"/>
<rect x="16" y="23" width="1" height="1" fill="rgb(55,43,16)" fill-opacity="1.000"/>
<rect x="2" y="24" width="1" height="1" fill="rgb(44,35,13)" fill-opacity="1.000"/>
<rect x="3" y="24" width="1" height="1" fill="rgb(123,0,39)" fill-opacity="1.000"/>
<rect x="4" y="24" width="1" height="1" fill="rgb(137,0,43)" fill-opacity="1.000"/>
<rect x="5" y="24" width="1" height="1" fill="rgb(90,0,28)" fill-opacity="1.000"/>
<rect x="6" y="24" width="1" height="1" fill="rgb(124,0,39)" fill-opacity="1.000"/>
<rect x="7" y="24" width="1" height="1" fill="rgb(137,0,43)" fill-opacity="1.000"/>
<rect x="8" y="24" width="1" height="1" fill="rgb(124,0,39)" fill-opacity="1.000"/>
<rect x="9" y="24" width="1" height="1" fill="rgb(137,0,43)" fill-opacity="1.000"/>
<rect x="10" y="24" width="1" height="1" fill="rgb(111,0,35)" fill-opacity="1.000"/>
<rect x="11" y="24" width="1" height="1" fill="rgb(111,0,35)" fill-opacity="1.000"/>
<rect x="12" y="24" width="1" height="1" fill="rgb(100,0,32)" fill-opacity="1.000"/>
<rect x="13" y="24" width="1" height="1" fill="rgb(80,0,25)" fill-opacity="1.000"/>
<rect x="14" y="24" width="1" height="1" fill="rgb(123,0,39)" fill-opacity="1.000"/>
<rect x="15" y="24" width="1" height="1" fill="rgb(123,0,39)" fill-opacity="1.000"/>
<rect x="16" y="24" width="1" height="1" fill="rgb(44,35,13)" fill-opacity="1.000"/>
<rect x="2" y="25" width="1" height="1" fill="rgb(55,43,16)" fill-opacity="1.000"/>
<rect x="3" y="25" width="1" height="1" fill="rgb(28,22,8)" fill-opacity="1.000"/>
<rect x="4" y="25" width="1" height="1" fill="rgb(47,39,16)" fill-opacity="1.000"/>
<rect x="5" y="25" width="1" height="1" fill="rgb(44,35,13)" fill-opacity="1.000"/>
<rect x="6" y="25" width="1" height="1" fill="rgb(49,39,14)" fill-opacity="1.000"/>
<rect x="7" y="25" width="1" height="1" fill="rgb(61,48,18)" fill-opacity="1.000"/>
<rect x="8" y="25" width="1" height="1" fill="rgb(39,32,12)" fill-opacity="1.000"/>
<rect x="9" y="25" width="1" height="1" fill="rgb(58,47,17)" fill-opacity="1.000"/>
<rect x="10" y="25" width="1" height="1" fill="rgb(47,38,13)" fill-opacity="1.000"/>
<rect x="11" y="25" width="1" height="1" fill="rgb(34,27,10)" fill-opacity="1.000"/>
<rect x="12" y="25" width="1" height="1" fill="rgb(48,39,13)" fill-opacity="1.000"/>
<rect x="13" y="25" width="1" height="1" fill="rgb(31,25,9)" fill-opacity="1.000"/>
<rect x="14" y="25" width="1" height="1" fill="rgb(36,28,11)" fill-opacity="1.000"/>
<rect x="15" y="25" width="1" height="1" fill="rgb(49,39,15)" fill-opacity="1.000"/>
<rect x="16" y="25" width="1" height="1" fill="rgb(49,39,14)" fill-opacity="1.000"/>
<rect x="2" y="26" width="1" height="1" fill="rgb(55,43,16)" fill-opacity="1.000"/>
<rect x="3" y="26" width="1" height="1" fill="rgb(137,0,43)" fill-opacity="1.000"/>
<rect x="4" y="26" width="1" height="1" fill="rgb(111,0,35)" fill-opacity="1.000"/>
<rect x="5" y="26" width="1" height="1" fill="rgb(123,0,39)" fill-opacity="1.000"/>
<rect x="6" y="26" width="1" height="1" fill="rgb(124,0,39)" fill-opacity="1.000"/>
<rect x="7" y="26" width="1" height="1" fill="rgb(111,0,35)" fill-opacity="1.000"/>
<rect x="8" y="26" width="1" height="1" fill="rgb(111,0,35)" fill-opacity="1.000"/>
<rect x="9" y="26" width="1" height="1" fill="rgb(124,0,39)" fill-opacity="1.000"/>
<rect x="10" y="26" width="1" height="1" fill="rgb(100,0,31)" fill-opacity="1.000"/>
<rect x="11" y="26" width="1" height="1" fill="rgb(111,0,35)" fill-opacity="1.000"/>
<rect x="12" y="26" width="1" height="1" fill="rgb(111,0,35)" fill-opacity="1.000"/>
<rect x="13" y="26" width="1" height="1" fill="rgb(99,0,31)" fill-opacity="1.000"/>
<rect x="14" y="26" width="1" height="1" fill="rgb(153,0,48)" fill-opacity="1.000"/>
<rect x="15" y="26" width="1" height="1" fill="rgb(153,0,48)" fill-opacity="1.000"/>
<rect x="16" y="26" width="1" height="1" fill="rgb(65,50,17)" fill-opacity="1.000"/>
<rect x="1" y="27" width="1" height="1" fill="rgb(81,66,28)" fill-opacity="1.000"/>
<rect x="2" y="27" width="1" height="1" fill="rgb(86,71,27)" fill-opacity="1.000"/>
<rect x="3" y="27" width="1" height="1" fill="rgb(55,43,16)" fill-opacity="1.000"/>
<rect x="4" y="27" width="1" height="1" fill="rgb(111,89,33)" fill-opacity="1.000"/>
<rect x="5" y="27" width="1" height="1" fill="rgb(55,43,16)" fill-opacity="1.000"/>
<rect x="6" y="27" width="1" height="1" fill="rgb(91,73,25)" fill-opacity="1.000"/>
<rect x="7" y="27" width="1" height="1" fill="rgb(61,48,18)" fill-opacity="1.000"/>
<rect x="8" y="27" width="1" height="1" fill="rgb(64,53,22)" fill-opacity="1.000"/>
<rect x="9" y="27" width="1" height="1" fill="rgb(48,39,13)" fill-opacity="1.000"/>
<rect x="10" y="27" width="1" height="1" fill="rgb(57,45,15)" fill-opacity="1.000"/>
<rect x="11" y="27" width="1" height="1" fill="rgb(90,72,27)" fill-opacity="1.000"/>
<rect x="12" y="27" width="1" height="1" fill="rgb(64,53,22)" fill-opacity="1.000"/>
<rect x="13" y="27" width="1" height="1" fill="rgb(67,57,27)" fill-opacity="1.000"/>
<rect x="14" y="27" width="1" height="1" fill="rgb(40,31,12)" fill-opacity="1.000"/>
<rect x="15" y="27" width="1" height="1" fill="rgb(55,43,16)" fill-opacity="1.000"/>
<rect x="16" y="27" width="1" height="1" fill="rgb(58,45,15)" fill-opacity="1.000"/>
<rect x="17" y="27" width="1" height="1" fill="rgb(114,94,40)" fill-opacity="1.000"/>
<rect x="0" y="28" width="1" height="1" fill="rgb(98,79,31)" fill-opacity="1.000"/>
<rect x="1" y="28" width="1" height="1" fill="rgb(61,48,18)" fill-opacity="1.000"/>
<rect x="2" y="28" width="1" height="1" fill="rgb(157,136,65)" fill-opacity="1.000"/>
<rect x="3" y="28" width="1" height="1" fill="rgb(179,152,67)" fill-opacity="1.000"/>
<rect x="4" y="28" width="1" height="1" fill="rgb(170,148,68)" fill-opacity="1.000"/>
<rect x="5" y="28" width="1" height="1" fill="rgb(215,188,96)" fill-opacity="1.000"/>
<rect x="6" y="28" width="1" height="1" fill="rgb(194,163,76)" fill-opacity="1.000"/>
<rect x="7" y="28" width="1" height="1" fill="rgb(145,126,63)" fill-opacity="1.000"/>
<rect x="8" y="28" width="1" height="1" fill="rgb(184,161,88)" fill-opacity="1.000"/>
<rect x="9" y="28" width="1" height="1" fill="rgb(164,138,63)" fill-opacity="1.000"/>
<rect x="10" y="28" width="1" height="1" fill="rgb(192,167,86)" fill-opacity="1.000"/>
<rect x="11" y="28" width="1" height="1" fill="rgb(201,180,105)" fill-opacity="1.000"/>
<rect x="12" y="28" width="1" height="1" fill="rgb(130,116,65)" fill-opacity="1.000"/>
<rect x="13" y="28" width="1" height="1" fill="rgb(238,211,118)" fill-opacity="1.000"/>
<rect x="14" y="28" width="1" height="1" fill="rgb(237,207,111)" fill-opacity="1.000"/>
<rect x="15" y="28" width="1" height="1" fill="rgb(193,171,92)" fill-opacity="1.000"/>
<rect x="16" y="28" width="1" height="1" fill="rgb(201,180,105)" fill-opacity="1.000"/>
<rect x="17" y="28" width="1" height="1" fill="rgb(72,56,19)" fill-opacity="1.000"/>
<rect x="18" y="28" width="1" height="1" fill="rgb(61,48,18)" fill-opacity="1.000"/>
<rect x="0" y="29" width="1" height="1" fill="rgb(114,94,40)" fill-opacity="1.000"/>
<rect x="1" y="29" width="1" height="1" fill="rgb(194,167,77)" fill-opacity="1.000"/>
<rect x="2" y="29" width="1" height="1" fill="rgb(150,133,65)" fill-opacity="1.000"/>
<rect x="3" y="29" width="1" height="1" fill="rgb(189,163,75)" fill-opacity="1.000"/>
<rect x="4" y="29" width="1" height="1" fill="rgb(219,191,98)" fill-opacity="1.000"/>
<rect x="5" y="29" width="1" height="1" fill="rgb(240,217,124)" fill-opacity="1.000"/>
<rect x="6" y="29" width="1" height="1" fill="rgb(215,188,101)" fill-opacity="1.000"/>
<rect x="7" y="29" width="1" height="1" fill="rgb(180,155,78)" fill-opacity="1.000"/>
<rect x="8" y="29" width="1" height="1" fill="rgb(239,209,112)" fill-opacity="1.000"/>
<rect x="9" y="29" width="1" height="1" fill="rgb(213,186,95)" fill-opacity="1.000"/>
<rect x="10" y="29" width="1" height="1" fill="rgb(230,203,111)" fill-opacity="1.000"/>
<rect x="11" y="29" width="1" height="1" fill="rgb(197,171,86)" fill-opacity="1.000"/>
<rect x="12" y="29" width="1" height="1" fill="rgb(221,198,114)" fill-opacity="1.000"/>
<rect x="13" y="29" width="1" height="1" fill="rgb(239,215,125)" fill-opacity="1.000"/>
<rect x="14" y="29" width="1" height="1" fill="rgb(199,174,91)" fill-opacity="1.000"/>
<rect x="15" y="29" width="1" height="1" fill="rgb(181,163,93)" fill-opacity="1.000"/>
<rect x="16" y="29" width="1" height="1" fill="rgb(238,211,118)" fill-opacity="1.000"/>
<rect x="17" y="29" width="1" height="1" fill="rgb(254,226,129)" fill-opacity="1.000"/>
<rect x="18" y="29" width="1" height="1" fill="rgb(81,66,28)" fill-opacity="1.000"/>
<rect x="0" y="30" width="1" height="1" fill="rgb(96,79,30)" fill-opacity="1.000"/>
<rect x="1" y="30" width="1" height="1" fill="rgb(191,168,85)" fill-opacity="1.000"/>
<rect x="2" y="30" width="1" height="1" fill="rgb(207,184,93)" fill-opacity="1.000"/>
<rect x="3" y="30" width="1" height="1" fill="rgb(171,146,64)" fill-opacity="1.000"/>
<rect x="4" y="30" width="1" height="1" fill="rgb(178,160,87)" fill-opacity="1.000"/>
<rect x="5" y="30" width="1" height="1" fill="rgb(254,226,128)" fill-opacity="1.000"/>
<rect x="6" y="30" width="1" height="1" fill="rgb(254,227,126)" fill-opacity="1.000"/>
<rect x="7" y="30" width="1" height="1" fill="rgb(255,230,138)" fill-opacity="1.000"/>
<rect x="8" y="30" width="1" height="1" fill="rgb(181,161,90)" fill-opacity="1.000"/>
<rect x="9" y="30" width="1" height="1" fill="rgb(230,203,111)" fill-opacity="1.000"/>
<rect x="10" y="30" width="1" height="1" fill="rgb(204,181,96)" fill-opacity="1.000"/>
<rect x="11" y="30" width="1" height="1" fill="rgb(180,158,84)" fill-opacity="1.000"/>
<rect x="12" y="30" width="1" height="1" fill="rgb(227,204,115)" fill-opacity="1.000"/>
<rect x="13" y="30" width="1" height="1" fill="rgb(243,215,114)" fill-opacity="1.000"/>
<rect x="14" y="30" width="1" height="1" fill="rgb(205,184,101)" fill-opacity="1.000"/>
<rect x="15" y="30" width="1" height="1" fill="rgb(238,211,118)" fill-opacity="1.000"/>
<rect x="16" y="30" width="1" height="1" fill="rgb(201,180,104)" fill-opacity="1.000"/>
<rect x="17" y="30" width="1" height="1" fill="rgb(236,209,118)" fill-opacity="1.000"/>
<rect x="18" y="30" width="1" height="1" fill="rgb(61,48,18)" fill-opacity="1.000"/>
<rect x="0" y="31" width="1" height="1" fill="rgb(80,62,21)" fill-opacity="1.000"/>
<rect x="1" y="31" width="1" height="1" fill="rgb(113,98,46)" fill-opacity="1.000"/>
<rect x="2" y="31" width="1" height="1" fill="rgb(98,83,38)" fill-opacity="1.000"/>
<rect x="3" y="31" width="1" height="1" fill="rgb(112,90,34)" fill-opacity="1.000"/>
<rect x="4" y="31" width="1" height="1" fill="rgb(98,79,31)" fill-opacity="1.000"/>
<rect x="5" y="31" width="1" height="1" fill="rgb(97,83,38)" fill-opacity="1.000"/>
<rect x="6" y="31" width="1" height="1" fill="rgb(60,48,18)" fill-opacity="1.000"/>
<rect x="7" y="31" width="1" height="1" fill="rgb(79,62,21)" fill-opacity="1.000"/>
<rect x="8" y="31" width="1" height="1" fill="rgb(60,48,18)" fill-opacity="1.000"/>
<rect x="9" y="31" width="1" height="1" fill="rgb(99,82,37)" fill-opacity="1.000"/>
<rect x="10" y="31" width="1" height="1" fill="rgb(80,62,21)" fill-opacity="1.000"/>
<rect x="11" y="31" width="1" height="1" fill="rgb(114,94,40)" fill-opacity="1.000"/>
<rect x="12" y="31" width="1" height="1" fill="rgb(78,61,20)" fill-opacity="1.000"/>
<rect x="13" y="31" width="1" height="1" fill="rgb(96,78,30)" fill-opacity="1.000"/>
<rect x="14" y="31" width="1" height="1" fill="rgb(127,108,48)" fill-opacity="1.000"/>
<rect x="15" y="31" width="1" height="1" fill="rgb(79,66,27)" fill-opacity="1.000"/>
<rect x="16" y="31" width="1" height="1" fill="rgb(97,79,31)" fill-opacity="1.000"/>
<rect x="17" y="31" width="1" height="1" fill="rgb(81,66,28)" fill-opacity="1.000"/>
<rect x="18" y="31" width="1" height="1" fill="rgb(61,48,18)" fill-opacity="1.000"/>
</svg>