<svg xmlns="http://www.w3.org/2000/svg" width="19" height="32" shape-rendering="crispEdges">
<rect x="5" y="0" width="1" height="1" fill="rgb(88,69,22)" fill-opacity="1.000"/>
<rect x="6" y="0" width="1" height="1" fill="rgb(96,75,23)" fill-opacity="1.000"/>
<rect x="4" y="1" width="1" height="1" fill="rgb(96,75,23)" fill-opacity="1.000"/>
<rect x="5" y="1" width="1" height="1" fill="rgb(255,230,136)" fill-opacity="1.000"/>
<rect x="6" y="1" width="1" height="1" fill="rgb(77,60,18)" fill-opacity="1.000"/>
<rect x="4" y="2" width="1" height="1" fill="rgb(96,75,23)" fill-opacity="1.000"/>
<rect x="5" y="2" width="1" height="1" fill="rgb(231,208,124)" fill-opacity="1.000"/>
<rect x="6" y="2" width="1" height="1" fill="rgb(86,67,20)" fill-opacity="1.000"/>
<rect x="4" y="3" width="1" height="1" fill="rgb(88,69,22)" fill-opacity="1.000"/>
<rect x="5" y="3" width="1" height="1" fill="rgb(231,208,124)" fill-opacity="1.000"/>
<rect x="6" y="3" width="1" height="1" fill="rgb(84,67,19)" fill-opacity="1.000"/>
<rect x="7" y="3" width="1" height="1" fill="rgb(96,75,23)" fill-opacity="1.000"/>
<rect x="8" y="3" width="1" height="1" fill="rgb(86,67,20)" fill-opacity="1.000"/>
<rect x="9" y="3" width="1" height="1" fill="rgb(123,99,27)" fill-opacity="1.000"/>
<rect x="10" y="3" width="1" height="1" fill="rgb(96,75,23)" fill-opacity="1.000"/>
<rect x="11" y="3" width="1" height="1" fill="rgb(96,75,23)" fill-opacity="1.000"/>
<rect x="3" y="4" width="1" height="1" fill="rgb(98,76,16)" fill-opacity="1.000"/>
<rect x="4" y="4" width="1" height="1" fill="rgb(168,152,91)" fill-opacity="1.000"/>
<rect x="5" y="4" width="1" height="1" fill="rgb(255,230,136)" fill-opacity="1.000"/>
<rect x="6" y="4" width="1" height="1" fill="rgb(112,87,21)" fill-opacity="1.000"/>
<rect x="7" y="4" width="1" height="1" fill="rgb(228,202,107)" fill-opacity="1.000"/>
<rect x="8" y="4" width="1" height="1" fill="rgb(209,186,100)" fill-opacity="1.000"/>
<rect x="9" y="4" width="1" height="1" fill="rgb(229,206,122)" fill-opacity="1.000"/>
<rect x="10" y="4" width="1" height="1" fill="rgb(229,206,122)" fill-opacity="1.000"/>
<rect x="11" y="4" width="1" height="1" fill="rgb(255,230,136)" fill-opacity="1.000"/>
<rect x="12" y="4" width="1" height="1" fill="rgb(96,75,23)" fill-opacity="1.000"/>
<rect x="13" y="4" width="1" height="1" fill="rgb(96,75,23)" fill-opacity="1.000"/>
<rect x="3" y="5" width="1" height="1" fill="rgb(96,75,23)" fill-opacity="1.000"/>
<rect x="4" y="5" width="1" height="1" fill="rgb(255,226,123)" fill-opacity="1.000"/>
<rect x="5" y="5" width="1" height="1" fill="rgb(228,202,107)" fill-opacity="1.000"/>
<rect x="6" y="5" width="1" height="1" fill="rgb(191,169,90)" fill-opacity="1.000"/>
<rect x="7" y="5" width="1" height="1" fill="rgb(230,200,95)" fill-opacity="1.000"/>
<rect x="8" y="5" width="1" height="1" fill="rgb(179,154,67)" fill-opacity="1.000"/>
<rect x="9" y="5" width="1" height="1" fill="rgb(61,48,18)" fill-opacity="1.000"/>
<rect x="10" y="5" width="1" height="1" fill="rgb(96,75,23)" fill-opacity="1.000"/>
<rect x="11" y="5" width="1" height="1" fill="rgb(229,206,122)" fill-opacity="1.000"/>
<rect x="12" y="5" width="1" height="1" fill="rgb(255,226,123)" fill-opacity="1.000"/>
<rect x="13" y="5" width="1" height="1" fill="rgb(231,208,124)" fill-opacity="1.000"/>
<rect x="14" y="5" width="1" height="1" fill="rgb(96,75,23)" fill-opacity="1.000"/>
<rect x="3" y="6" width="1" height="1" fill="rgb(161,132,50)" fill-opacity="1.000"/>
<rect x="4" y="6" width="1" height="1" fill="rgb(235,203,98)" fill-opacity="1.000"/>
<rect x="5" y="6" width="1" height="1" fill="rgb(231,205,112)" fill-opacity="1.000"/>
<rect x="6" y="6" width="1" height="1" fill="rgb(185,157,66)" fill-opacity="1.000"/>
<rect x="7" y="6" width="1" height="1" fill="rgb(172,152,83)" fill-opacity="1.000"/>
<rect x="8" y="6" width="1" height="1" fill="rgb(252,222,115)" fill-opacity="1.000"/>
<rect x="9" y="6" width="1" height="1" fill="rgb(207,185,102)" fill-opacity="1.000"/>
<rect x="10" y="6" width="1" height="1" fill="rgb(129,100,20)" fill-opacity="1.000"/>
<rect x="11" y="6" width="1" height="1" fill="rgb(170,153,92)" fill-opacity="1.000"/>
<rect x="12" y="6" width="1" height="1" fill="rgb(195,169,81)" fill-opacity="1.000"/>
<rect x="13" y="6" width="1" height="1" fill="rgb(255,223,111)" fill-opacity="1.000"/>
<rect x="14" y="6" width="1" height="1" fill="rgb(102,80,20)" fill-opacity="1.000"/>
<rect x="15" y="6" width="1" height="1" fill="rgb(86,67,20)" fill-opacity="1.000"/>
<rect x="3" y="7" width="1" height="1" fill="rgb(117,94,31)" fill-opacity="1.000"/>
<rect x="4" y="7" width="1" height="1" fill="rgb(195,173,95)" fill-opacity="1.000"/>
<rect x="5" y="7" width="1" height="1" fill="rgb(230,195,78)" fill-opacity="1.000"/>
<rect x="6" y="7" width="1" height="1" fill="rgb(139,111,31)" fill-opacity="1.000"/>
<rect x="7" y="7" width="1" height="1" fill="rgb(235,200,84)" fill-opacity="1.000"/>
<rect x="8" y="7" width="1" height="1" fill="rgb(255,230,136)" fill-opacity="1.000"/>
<rect x="9" y="7" width="1" height="1" fill="rgb(249,221,119)" fill-opacity="1.000"/>
<rect x="10" y="7" width="1" height="1" fill="rgb(231,205,110)" fill-opacity="1.000"/>
<rect x="11" y="7" width="1" height="1" fill="rgb(198,175,93)" fill-opacity="1.000"/>
<rect x="12" y="7" width="1" height="1" fill="rgb(252,218,107)" fill-opacity="1.000"/>
<rect x="13" y="7" width="1" height="1" fill="rgb(255,226,123)" fill-opacity="1.000"/>
<rect x="14" y="7" width="1" height="1" fill="rgb(179,154,67)" fill-opacity="1.000"/>
<rect x="15" y="7" width="1" height="1" fill="rgb(255,226,123)" fill-opacity="1.000"/>
<rect x="16" y="7" width="1" height="1" fill="rgb(112,87,21)" fill-opacity="1.000"/>
<rect x="17" y="7" width="1" height="1" fill="rgb(96,75,23)" fill-opacity="1.000"/>
<rect x="2" y="8" width="1" height="1" fill="rgb(93,73,19)" fill-opacity="1.000"/>
<rect x="3" y="8" width="1" height="1" fill="rgb(209,188,112)" fill-opacity="1.000"/>
<rect x="4" y="8" width="1" height="1" fill="rgb(219,187,80)" fill-opacity="1.000"/>
<rect x="5" y="8" width="1" height="1" fill="rgb(241,199,65)" fill-opacity="1.000"/>
<rect x="6" y="8" width="1" height="1" fill="rgb(128,102,26)" fill-opacity="1.000"/>
<rect x="7" y="8" width="1" height="1" fill="rgb(203,174,72)" fill-opacity="1.000"/>
<rect x="8" y="8" width="1" height="1" fill="rgb(207,187,111)" fill-opacity="1.000"/>
<rect x="9" y="8" width="1" height="1" fill="rgb(176,155,79)" fill-opacity="1.000"/>
<rect x="10" y="8" width="1" height="1" fill="rgb(233,209,125)" fill-opacity="1.000"/>
<rect x="11" y="8" width="1" height="1" fill="rgb(203,175,82)" fill-opacity="1.000"/>
<rect x="12" y="8" width="1" height="1" fill="rgb(242,199,59)" fill-opacity="1.000"/>
<rect x="13" y="8" width="1" height="1" fill="rgb(233,201,93)" fill-opacity="1.000"/>
<rect x="14" y="8" width="1" height="1" fill="rgb(231,205,110)" fill-opacity="1.000"/>
<rect x="15" y="8" width="1" height="1" fill="rgb(231,208,124)" fill-opacity="1.000"/>
<rect x="16" y="8" width="1" height="1" fill="rgb(255,226,123)" fill-opacity="1.000"/>
<rect x="17" y="8" width="1" height="1" fill="rgb(234,203,99)" fill-opacity="1.000"/>
<rect x="18" y="8" width="1" height="1" fill="rgb(96,75,23)" fill-opacity="1.000"/>
<rect x="2" y="9" width="1" height="1" fill="rgb(96,75,23)" fill-opacity="1.000"/>
<rect x="3" y="9" width="1" height="1" fill="rgb(209,188,112)" fill-opacity="1.000"/>
<rect x="4" y="9" width="1" height="1" fill="rgb(205,177,85)" fill-opacity="1.000"/>
<rect x="5" y="9" width="1" height="1" fill="rgb(198,170,73)" fill-opacity="1.000"/>
<rect x="6" y="9" width="1" height="1" fill="rgb(231,201,100)" fill-opacity="1.000"/>
<rect x="7" y="9" width="1" height="1" fill="rgb(139,107,17)" fill-opacity="1.000"/>
<rect x="8" y="9" width="1" height="1" fill="rgb(252,225,127)" fill-opacity="1.000"/>
<rect x="9" y="9" width="1" height="1" fill="rgb(209,186,100)" fill-opacity="1.000"/>
<rect x="10" y="9" width="1" height="1" fill="rgb(211,191,113)" fill-opacity="1.000"/>
<rect x="11" y="9" width="1" height="1" fill="rgb(209,186,100)" fill-opacity="1.000"/>
<rect x="12" y="9" width="1" height="1" fill="rgb(213,187,104)" fill-opacity="1.000"/>
<rect x="13" y="9" width="1" height="1" fill="rgb(188,162,68)" fill-opacity="1.000"/>
<rect x="14" y="9" width="1" height="1" fill="rgb(234,205,109)" fill-opacity="1.000"/>
<rect x="15" y="9" width="1" height="1" fill="rgb(215,190,102)" fill-opacity="1.000"/>
<rect x="16" y="9" width="1" height="1" fill="rgb(61,48,18)" fill-opacity="1.000"/>
<rect x="17" y="9" width="1" height="1" fill="rgb(255,230,136)" fill-opacity="1.000"/>
<rect x="18" y="9" width="1" height="1" fill="rgb(96,75,23)" fill-opacity="1.000"/>
<rect x="2" y="10" width="1" height="1" fill="rgb(112,87,21)" fill-opacity="1.000"/>
<rect x="3" y="10" width="1" height="1" fill="rgb(102,80,20)" fill-opacity="1.000"/>
<rect x="4" y="10" width="1" height="1" fill="rgb(96,75,23)" fill-opacity="1.000"/>
<rect x="5" y="10" width="1" height="1" fill="rgb(214,183,81)" fill-opacity="1.000"/>
<rect x="6" y="10" width="1" height="1" fill="rgb(198,163,50)" fill-opacity="1.000"/>
<rect x="7" y="10" width="1" height="1" fill="rgb(86,67,20)" fill-opacity="1.000"/>
<rect x="8" y="10" width="1" height="1" fill="rgb(255,226,123)" fill-opacity="1.000"/>
<rect x="9" y="10" width="1" height="1" fill="rgb(231,208,124)" fill-opacity="1.000"/>
<rect x="10" y="10" width="1" height="1" fill="rgb(208,185,102)" fill-opacity="1.000"/>
<rect x="11" y="10" width="1" height="1" fill="rgb(215,189,94)" fill-opacity="1.000"/>
<rect x="12" y="10" width="1" height="1" fill="rgb(229,206,122)" fill-opacity="1.000"/>
<rect x="13" y="10" width="1" height="1" fill="rgb(252,221,117)" fill-opacity="1.000"/>
<rect x="14" y="10" width="1" height="1" fill="rgb(157,139,75)" fill-opacity="1.000"/>
<rect x="15" y="10" width="1" height="1" fill="rgb(255,222,112)" fill-opacity="1.000"/>
<rect x="16" y="10" width="1" height="1" fill="rgb(255,226,123)" fill-opacity="1.000"/>
<rect x="17" y="10" width="1" height="1" fill="rgb(231,205,110)" fill-opacity="1.000"/>
<rect x="18" y="10" width="1" height="1" fill="rgb(96,75,23)" fill-opacity="1.000"/>
<rect x="2" y="11" width="1" height="1" fill="rgb(126,97,19)" fill-opacity="1.000"/>
<rect x="3" y="11" width="1" height="1" fill="rgb(255,230,136)" fill-opacity="1.000"/>
<rect x="4" y="11" width="1" height="1" fill="rgb(255,226,123)" fill-opacity="1.000"/>
<rect x="5" y="11" width="1" height="1" fill="rgb(235,203,98)" fill-opacity="1.000"/>
<rect x="6" y="11" width="1" height="1" fill="rgb(255,230,136)" fill-opacity="1.000"/>
<rect x="7" y="11" width="1" height="1" fill="rgb(255,216,89)" fill-opacity="1.000"/>
<rect x="8" y="11" width="1" height="1" fill="rgb(96,75,23)" fill-opacity="1.000"/>
<rect x="9" y="11" width="1" height="1" fill="rgb(86,67,20)" fill-opacity="1.000"/>
<rect x="10" y="11" width="1" height="1" fill="rgb(219,194,109)" fill-opacity="1.000"/>
<rect x="11" y="11" width="1" height="1" fill="rgb(233,209,124)" fill-opacity="1.000"/>
<rect x="12" y="11" width="1" height="1" fill="rgb(218,195,116)" fill-opacity="1.000"/>
<rect x="13" y="11" width="1" height="1" fill="rgb(214,185,90)" fill-opacity="1.000"/>
<rect x="14" y="11" width="1" height="1" fill="rgb(211,189,111)" fill-opacity="1.000"/>
<rect x="15" y="11" width="1" height="1" fill="rgb(255,222,110)" fill-opacity="1.000"/>
<rect x="16" y="11" width="1" height="1" fill="rgb(255,226,124)" fill-opacity="1.000"/>
<rect x="17" y="11" width="1" height="1" fill="rgb(255,226,123)" fill-opacity="1.000"/>
<rect x="18" y="11" width="1" height="1" fill="rgb(96,75,23)" fill-opacity="1.000"/>
<rect x="2" y="12" width="1" height="1" fill="rgb(96,75,23)" fill-opacity="1.000"/>
<rect x="3" y="12" width="1" height="1" fill="rgb(96,75,23)" fill-opacity="1.000"/>
<rect x="4" y="12" width="1" height="1" fill="rgb(129,103,31)" fill-opacity="1.000"/>
<rect x="5" y="12" width="1" height="1" fill="rgb(235,203,98)" fill-opacity="1.000"/>
<rect x="6" y="12" width="1" height="1" fill="rgb(225,191,78)" fill-opacity="1.000"/>
<rect x="7" y="12" width="1" height="1" fill="rgb(187,168,99)" fill-opacity="1.000"/>
<rect x="8" y="12" width="1" height="1" fill="rgb(255,226,124)" fill-opacity="1.000"/>
<rect x="9" y="12" width="1" height="1" fill="rgb(229,206,122)" fill-opacity="1.000"/>
<rect x="10" y="12" width="1" height="1" fill="rgb(112,90,34)" fill-opacity="1.000"/>
<rect x="11" y="12" width="1" height="1" fill="rgb(112,90,25)" fill-opacity="1.000"/>
<rect x="12" y="12" width="1" height="1" fill="rgb(211,191,113)" fill-opacity="1.000"/>
<rect x="13" y="12" width="1" height="1" fill="rgb(218,187,76)" fill-opacity="1.000"/>
<rect x="14" y="12" width="1" height="1" fill="rgb(169,152,91)" fill-opacity="1.000"/>
<rect x="15" y="12" width="1" height="1" fill="rgb(93,73,19)" fill-opacity="1.000"/>
<rect x="16" y="12" width="1" height="1" fill="rgb(77,60,18)" fill-opacity="1.000"/>
<rect x="17" y="12" width="1" height="1" fill="rgb(86,67,20)" fill-opacity="1.000"/>
<rect x="2" y="13" width="1" height="1" fill="rgb(96,75,23)" fill-opacity="1.000"/>
<rect x="3" y="13" width="1" height="1" fill="rgb(255,226,123)" fill-opacity="1.000"/>
<rect x="4" y="13" width="1" height="1" fill="rgb(240,208,108)" fill-opacity="1.000"/>
<rect x="5" y="13" width="1" height="1" fill="rgb(219,187,80)" fill-opacity="1.000"/>
<rect x="6" y="13" width="1" height="1" fill="rgb(211,185,90)" fill-opacity="1.000"/>
<rect x="7" y="13" width="1" height="1" fill="rgb(231,205,110)" fill-opacity="1.000"/>
<rect x="8" y="13" width="1" height="1" fill="rgb(205,185,109)" fill-opacity="1.000"/>
<rect x="9" y="13" width="1" height="1" fill="rgb(229,206,122)" fill-opacity="1.000"/>
<rect x="10" y="13" width="1" height="1" fill="rgb(255,230,136)" fill-opacity="1.000"/>
<rect x="11" y="13" width="1" height="1" fill="rgb(255,229,136)" fill-opacity="1.000"/>
<rect x="12" y="13" width="1" height="1" fill="rgb(213,189,105)" fill-opacity="1.000"/>
<rect x="13" y="13" width="1" height="1" fill="rgb(230,203,105)" fill-opacity="1.000"/>
<rect x="14" y="13" width="1" height="1" fill="rgb(93,73,19)" fill-opacity="1.000"/>
<rect x="2" y="14" width="1" height="1" fill="rgb(96,75,23)" fill-opacity="1.000"/>
<rect x="3" y="14" width="1" height="1" fill="rgb(88,69,22)" fill-opacity="1.000"/>
<rect x="4" y="14" width="1" height="1" fill="rgb(111,85,16)" fill-opacity="1.000"/>
<rect x="5" y="14" width="1" height="1" fill="rgb(235,206,102)" fill-opacity="1.000"/>
<rect x="6" y="14" width="1" height="1" fill="rgb(209,188,112)" fill-opacity="1.000"/>
<rect x="7" y="14" width="1" height="1" fill="rgb(211,186,98)" fill-opacity="1.000"/>
<rect x="8" y="14" width="1" height="1" fill="rgb(188,169,101)" fill-opacity="1.000"/>
<rect x="9" y="14" width="1" height="1" fill="rgb(185,166,98)" fill-opacity="1.000"/>
<rect x="10" y="14" width="1" height="1" fill="rgb(209,186,100)" fill-opacity="1.000"/>
<rect x="11" y="14" width="1" height="1" fill="rgb(209,179,82)" fill-opacity="1.000"/>
<rect x="12" y="14" width="1" height="1" fill="rgb(215,188,89)" fill-opacity="1.000"/>
<rect x="13" y="14" width="1" height="1" fill="rgb(194,173,102)" fill-opacity="1.000"/>
<rect x="14" y="14" width="1" height="1" fill="rgb(217,194,116)" fill-opacity="1.000"/>
<rect x="15" y="14" width="1" height="1" fill="rgb(72,57,19)" fill-opacity="1.000"/>
<rect x="2" y="15" width="1" height="1" fill="rgb(112,87,21)" fill-opacity="1.000"/>
<rect x="3" y="15" width="1" height="1" fill="rgb(233,207,112)" fill-opacity="1.000"/>
<rect x="4" y="15" width="1" height="1" fill="rgb(255,223,111)" fill-opacity="1.000"/>
<rect x="5" y="15" width="1" height="1" fill="rgb(213,184,88)" fill-opacity="1.000"/>
<rect x="6" y="15" width="1" height="1" fill="rgb(242,209,105)" fill-opacity="1.000"/>
<rect x="7" y="15" width="1" height="1" fill="rgb(231,205,112)" fill-opacity="1.000"/>
<rect x="8" y="15" width="1" height="1" fill="rgb(255,226,125)" fill-opacity="1.000"/>
<rect x="9" y="15" width="1" height="1" fill="rgb(192,170,89)" fill-opacity="1.000"/>
<rect x="10" y="15" width="1" height="1" fill="rgb(255,222,114)" fill-opacity="1.000"/>
<rect x="11" y="15" width="1" height="1" fill="rgb(146,131,72)" fill-opacity="1.000"/>
<rect x="12" y="15" width="1" height="1" fill="rgb(207,182,96)" fill-opacity="1.000"/>
<rect x="13" y="15" width="1" height="1" fill="rgb(221,190,86)" fill-opacity="1.000"/>
<rect x="14" y="15" width="1" height="1" fill="rgb(233,209,125)" fill-opacity="1.000"/>
<rect x="15" y="15" width="1" height="1" fill="rgb(210,182,86)" fill-opacity="1.000"/>
<rect x="16" y="15" width="1" height="1" fill="rgb(96,75,23)" fill-opacity="1.000"/>
<rect x="2" y="16" width="1" height="1" fill="rgb(96,75,23)" fill-opacity="1.000"/>
<rect x="3" y="16" width="1" height="1" fill="rgb(112,87,21)" fill-opacity="1.000"/>
<rect x="4" y="16" width="1" height="1" fill="rgb(236,202,89)" fill-opacity="1.000"/>
<rect x="5" y="16" width="1" height="1" fill="rgb(166,144,76)" fill-opacity="1.000"/>
<rect x="6" y="16" width="1" height="1" fill="rgb(222,191,85)" fill-opacity="1.000"/>
<rect x="7" y="16" width="1" height="1" fill="rgb(215,189,94)" fill-opacity="1.000"/>
<rect x="8" y="16" width="1" height="1" fill="rgb(194,170,85)" fill-opacity="1.000"/>
<rect x="9" y="16" width="1" height="1" fill="rgb(209,186,102)" fill-opacity="1.000"/>
<rect x="10" y="16" width="1" height="1" fill="rgb(192,167,82)" fill-opacity="1.000"/>
<rect x="11" y="16" width="1" height="1" fill="rgb(233,204,104)" fill-opacity="1.000"/>
<rect x="12" y="16" width="1" height="1" fill="rgb(220,186,74)" fill-opacity="1.000"/>
<rect x="13" y="16" width="1" height="1" fill="rgb(167,146,75)" fill-opacity="1.000"/>
<rect x="14" y="16" width="1" height="1" fill="rgb(255,222,112)" fill-opacity="1.000"/>
<rect x="15" y="16" width="1" height="1" fill="rgb(235,210,126)" fill-opacity="1.000"/>
<rect x="16" y="16" width="1" height="1" fill="rgb(105,84,33)" fill-opacity="1.000"/>
<rect x="3" y="17" width="1" height="1" fill="rgb(86,67,20)" fill-opacity="1.000"/>
<rect x="4" y="17" width="1" height="1" fill="rgb(255,223,111)" fill-opacity="1.000"/>
<rect x="5" y="17" width="1" height="1" fill="rgb(206,185,109)" fill-opacity="1.000"/>
<rect x="6" y="17" width="1" height="1" fill="rgb(171,145,57)" fill-opacity="1.000"/>
<rect x="7" y="17" width="1" height="1" fill="rgb(176,153,74)" fill-opacity="1.000"/>
<rect x="8" y="17" width="1" height="1" fill="rgb(213,184,85)" fill-opacity="1.000"/>
<rect x="9" y="17" width="1" height="1" fill="rgb(240,205,90)" fill-opacity="1.000"/>
<rect x="10" y="17" width="1" height="1" fill="rgb(255,230,136)" fill-opacity="1.000"/>
<rect x="11" y="17" width="1" height="1" fill="rgb(241,207,101)" fill-opacity="1.000"/>
<rect x="12" y="17" width="1" height="1" fill="rgb(183,163,92)" fill-opacity="1.000"/>
<rect x="13" y="17" width="1" height="1" fill="rgb(156,134,61)" fill-opacity="1.000"/>
<rect x="14" y="17" width="1" height="1" fill="rgb(154,136,75)" fill-opacity="1.000"/>
<rect x="15" y="17" width="1" height="1" fill="rgb(235,210,126)" fill-opacity="1.000"/>
<rect x="16" y="17" width="1" height="1" fill="rgb(67,54,19)" fill-opacity="1.000"/>
<rect x="3" y="18" width="1" height="1" fill="rgb(79,62,19)" fill-opacity="1.000"/>
<rect x="4" y="18" width="1" height="1" fill="rgb(255,226,123)" fill-opacity="1.000"/>
<rect x="5" y="18" width="1" height="1" fill="rgb(171,155,94)" fill-opacity="1.000"/>
<rect x="6" y="18" width="1" height="1" fill="rgb(177,156,78)" fill-opacity="1.000"/>
<rect x="7" y="18" width="1" height="1" fill="rgb(209,179,83)" fill-opacity="1.000"/>
<rect x="8" y="18" width="1" height="1" fill="rgb(194,170,85)" fill-opacity="1.000"/>
<rect x="9" y="18" width="1" height="1" fill="rgb(176,146,55)" fill-opacity="1.000"/>
<rect x="10" y="18" width="1" height="1" fill="rgb(195,169,81)" fill-opacity="1.000"/>
<rect x="11" y="18" width="1" height="1" fill="rgb(223,189,75)" fill-opacity="1.000"/>
<rect x="12" y="18" width="1" height="1" fill="rgb(181,162,97)" fill-opacity="1.000"/>
<rect x="13" y="18" width="1" height="1" fill="rgb(179,159,90)" fill-opacity="1.000"/>
<rect x="14" y="18" width="1" height="1" fill="rgb(200,180,107)" fill-opacity="1.000"/>
<rect x="15" y="18" width="1" height="1" fill="rgb(233,209,124)" fill-opacity="1.000"/>
<rect x="16" y="18" width="1" height="1" fill="rgb(133,111,52)" fill-opacity="1.000"/>
<rect x="3" y="19" width="1" height="1" fill="rgb(105,84,33)" fill-opacity="1.000"/>
<rect x="4" y="19" width="1" height="1" fill="rgb(233,209,125)" fill-opacity="1.000"/>
<rect x="5" y="19" width="1" height="1" fill="rgb(194,170,81)" fill-opacity="1.000"/>
<rect x="6" y="19" width="1" height="1" fill="rgb(231,198,84)" fill-opacity="1.000"/>
<rect x="7" y="19" width="1" height="1" fill="rgb(212,186,93)" fill-opacity="1.000"/>
<rect x="8" y="19" width="1" height="1" fill="rgb(206,185,109)" fill-opacity="1.000"/>
<rect x="9" y="19" width="1" height="1" fill="rgb(234,200,84)" fill-opacity="1.000"/>
<rect x="10" y="19" width="1" height="1" fill="rgb(238,204,93)" fill-opacity="1.000"/>
<rect x="11" y="19" width="1" height="1" fill="rgb(197,170,73)" fill-opacity="1.000"/>
<rect x="12" y="19" width="1" height="1" fill="rgb(231,192,66)" fill-opacity="1.000"/>
<rect x="13" y="19" width="1" height="1" fill="rgb(222,195,102)" fill-opacity="1.000"/>
<rect x="14" y="19" width="1" height="1" fill="rgb(210,188,112)" fill-opacity="1.000"/>
<rect x="15" y="19" width="1" height="1" fill="rgb(120,98,43)" fill-opacity="1.000"/>
<rect x="16" y="19" width="1" height="1" fill="rgb(126,103,44)" fill-opacity="1.000"/>
<rect x="3" y="20" width="1" height="1" fill="rgb(96,75,23)" fill-opacity="1.000"/>
<rect x="4" y="20" width="1" height="1" fill="rgb(255,226,124)" fill-opacity="1.000"/>
<rect x="5" y="20" width="1" height="1" fill="rgb(233,200,95)" fill-opacity="1.000"/>
<rect x="6" y="20" width="1" height="1" fill="rgb(198,170,77)" fill-opacity="1.000"/>
<rect x="7" y="20" width="1" height="1" fill="rgb(215,187,89)" fill-opacity="1.000"/>
<rect x="8" y="20" width="1" height="1" fill="rgb(184,158,66)" fill-opacity="1.000"/>
<rect x="9" y="20" width="1" height="1" fill="rgb(210,183,87)" fill-opacity="1.000"/>
<rect x="10" y="20" width="1" height="1" fill="rgb(231,205,112)" fill-opacity="1.000"/>
<rect x="11" y="20" width="1" height="1" fill="rgb(152,138,82)" fill-opacity="1.000"/>
<rect x="12" y="20" width="1" height="1" fill="rgb(216,188,94)" fill-opacity="1.000"/>
<rect x="13" y="20" width="1" height="1" fill="rgb(255,229,136)" fill-opacity="1.000"/>
<rect x="14" y="20" width="1" height="1" fill="rgb(231,208,123)" fill-opacity="1.000"/>
<rect x="15" y="20" width="1" height="1" fill="rgb(88,69,22)" fill-opacity="1.000"/>
<rect x="3" y="21" width="1" height="1" fill="rgb(86,67,20)" fill-opacity="1.000"/>
<rect x="4" y="21" width="1" height="1" fill="rgb(211,185,90)" fill-opacity="1.000"/>
<rect x="5" y="21" width="1" height="1" fill="rgb(229,206,122)" fill-opacity="1.000"/>
<rect x="6" y="21" width="1" height="1" fill="rgb(255,219,102)" fill-opacity="1.000"/>
<rect x="7" y="21" width="1" height="1" fill="rgb(215,183,77)" fill-opacity="1.000"/>
<rect x="8" y="21" width="1" height="1" fill="rgb(198,170,73)" fill-opacity="1.000"/>
<rect x="9" y="21" width="1" height="1" fill="rgb(205,175,69)" fill-opacity="1.000"/>
<rect x="10" y="21" width="1" height="1" fill="rgb(231,205,110)" fill-opacity="1.000"/>
<rect x="11" y="21" width="1" height="1" fill="rgb(231,205,112)" fill-opacity="1.000"/>
<rect x="12" y="21" width="1" height="1" fill="rgb(231,198,91)" fill-opacity="1.000"/>
<rect x="13" y="21" width="1" height="1" fill="rgb(255,226,123)" fill-opacity="1.000"/>
<rect x="14" y="21" width="1" height="1" fill="rgb(255,230,136)" fill-opacity="1.000"/>
<rect x="15" y="21" width="1" height="1" fill="rgb(96,75,23)" fill-opacity="1.000"/>
<rect x="2" y="22" width="1" height="1" fill="rgb(95,76,30)" fill-opacity="1.000"/>
<rect x="3" y="22" width="1" height="1" fill="rgb(126,103,44)" fill-opacity="1.000"/>
<rect x="4" y="22" width="1" height="1" fill="rgb(231,208,123)" fill-opacity="1.000"/>
<rect x="5" y="22" width="1" height="1" fill="rgb(233,207,112)" fill-opacity="1.000"/>
<rect x="6" y="22" width="1" height="1" fill="rgb(229,206,122)" fill-opacity="1.000"/>
<rect x="7" y="22" width="1" height="1" fill="rgb(207,187,111)" fill-opacity="1.000"/>
<rect x="8" y="22" width="1" height="1" fill="rgb(255,220,100)" fill-opacity="1.000"/>
<rect x="9" y="22" width="1" height="1" fill="rgb(235,202,89)" fill-opacity="1.000"/>
<rect x="10" y="22" width="1" height="1" fill="rgb(255,226,123)" fill-opacity="1.000"/>
<rect x="11" y="22" width="1" height="1" fill="rgb(255,223,111)" fill-opacity="1.000"/>
<rect x="12" y="22" width="1" height="1" fill="rgb(155,140,85)" fill-opacity="1.000"/>
<rect x="13" y="22" width="1" height="1" fill="rgb(209,188,113)" fill-opacity="1.000"/>
<rect x="14" y="22" width="1" height="1" fill="rgb(255,230,136)" fill-opacity="1.000"/>
<rect x="15" y="22" width="1" height="1" fill="rgb(96,75,23)" fill-opacity="1.000"/>
<rect x="16" y="22" width="1" height="1" fill="rgb(96,75,23)" fill-opacity="1.000"/>
<rect x="2" y="23" width="1" height="1" fill="rgb(59,48,17)" fill-opacity="1.000"/>
<rect x="3" y="23" width="1" height="1" fill="rgb(48,39,15)" fill-opacity="1.000"/>
<rect x="4" y="23" width="1" height="1" fill="rgb(73,59,25)" fill-opacity="1.000"/>
<rect x="5" y="23" width="1" height="1" fill="rgb(89,74,34)" fill-opacity="1.000"/>
<rect x="6" y="23" width="1" height="1" fill="rgb(106,86,35)" fill-opacity="1.000"/>
<rect x="7" y="23" width="1" height="1" fill="rgb(66,52,19)" fill-opacity="1.000"/>
<rect x="8" y="23" width="1" height="1" fill="rgb(89,71,28)" fill-opacity="1.000"/>
<rect x="9" y="23" width="1" height="1" fill="rgb(84,65,23)" fill-opacity="1.000"/>
<rect x="10" y="23" width="1" height="1" fill="rgb(65,53,20)" fill-opacity="1.000"/>
<rect x="11" y="23" width="1" height="1" fill="rgb(65,53,22)" fill-opacity="1.000"/>
<rect x="12" y="23" width="1" height="1" fill="rgb(65,51,16)" fill-opacity="1.000"/>
<rect x="13" y="23" width="1" height="1" fill="rgb(73,56,16)" fill-opacity="1.000"/>
<rect x="14" y="23" width="1" height="1" fill="rgb(36,28,11)" fill-opacity="1.000"/>
<rect x="15" y="23" width="1" height="1" fill="rgb(48,39,15)" fill-opacity="1.000"/>
<rect x="16" y="23" width="1" height="1" fill="rgb(55,43,16)" fill-opacity="1.000"/>
<rect x="2" y="24" width="1" height="1" fill="rgb(61,50,23)" fill-opacity="1.000"/>
<rect x="3" y="24" width="1" height="1" fill="rgb(123,0,39)" fill-opacity="1.000"/>
<rect x="4" y="24" width="1" height="1" fill="rgb(149,20,39)" fill-opacity="1.000"/>
<rect x="5" y="24" width="1" height="1" fill="rgb(90,0,28)" fill-opacity="1.000"/>
<rect x="6" y="24" width="1" height="1" fill="rgb(115,20,28)" fill-opacity="1.000"/>
<rect x="7" y="24" width="1" height="1" fill="rgb(149,20,39)" fill-opacity="1.000"/>
<rect x="8" y="24" width="1" height="1" fill="rgb(124,0,39)" fill-opacity="1.000"/>
<rect x="9" y="24" width="1" height="1" fill="rgb(137,0,43)" fill-opacity="1.000"/>
<rect x="10" y="24" width="1" height="1" fill="rgb(138,37,29)" fill-opacity="1.000"/>
<rect x="11" y="24" width="1" height="1" fill="rgb(99,0,31)" fill-opacity="1.000"/>
<rect x="12" y="24" width="1" height="1" fill="rgb(115,20,29)" fill-opacity="1.000"/>
<rect x="13" y="24" width="1" height="1" fill="rgb(80,0,25)" fill-opacity="1.000"/>
<rect x="14" y="24" width="1" height="1" fill="rgb(123,0,39)" fill-opacity="1.000"/>
<rect x="15" y="24" width="1" height="1" fill="rgb(123,0,39)" fill-opacity="1.000"/>
<rect x="16" y="24" width="1" height="1" fill="rgb(44,35,13)" fill-opacity="1.000"/>
<rect x="2" y="25" width="1" height="1" fill="rgb(75,61,28)" fill-opacity="1.000"/>
<rect x="3" y="25" width="1" height="1" fill="rgb(28,22,8)" fill-opacity="1.000"/>
<rect x="4" y="25" width="1" height="1" fill="rgb(47,39,16)" fill-opacity="1.000"/>
<rect x="5" y="25" width="1" height="1" fill="rgb(44,35,13)" fill-opacity="1.000"/>
<rect x="6" y="25" width="1" height="1" fill="rgb(49,39,14)" fill-opacity="1.000"/>
<rect x="7" y="25" width="1" height="1" fill="rgb(80,63,17)" fill-opacity="1.000"/>
<rect x="8" y="25" width="1" height="1" fill="rgb(57,45,9)" fill-opacity="1.000"/>
<rect x="9" y="25" width="1" height="1" fill="rgb(58,47,17)" fill-opacity="1.000"/>
<rect x="10" y="25" width="1" height="1" fill="rgb(47,38,13)" fill-opacity="1.000"/>
<rect x="11" y="25" width="1" height="1" fill="rgb(34,27,10)" fill-opacity="1.000"/>
<rect x="12" y="25" width="1" height="1" fill="rgb(69,55,12)" fill-opacity="1.000"/>
<rect x="13" y="25" width="1" height="1" fill="rgb(31,25,9)" fill-opacity="1.000"/>
<rect x="14" y="25" width="1" height="1" fill="rgb(36,28,11)" fill-opacity="1.000"/>
<rect x="15" y="25" width="1" height="1" fill="rgb(49,39,15)" fill-opacity="1.000"/>
<rect x="16" y="25" width="1" height="1" fill="rgb(49,39,14)" fill-opacity="1.000"/>
<rect x="2" y="26" width="1" height="1" fill="rgb(55,43,16)" fill-opacity="1.000"/>
<rect x="3" y="26" width="1" height="1" fill="rgb(137,0,43)" fill-opacity="1.000"/>
<rect x="4" y="26" width="1" height="1" fill="rgb(111,0,35)" fill-opacity="1.000"/>
<rect x="5" y="26" width="1" height="1" fill="rgb(123,0,39)" fill-opacity="1.000"/>
<rect x="6" y="26" width="1" height="1" fill="rgb(124,0,39)" fill-opacity="1.000"/>
<rect x="7" y="26" width="1" height="1" fill="rgb(111,0,35)" fill-opacity="1.000"/>
<rect x="8" y="26" width="1" height="1" fill="rgb(111,0,35)" fill-opacity="1.000"/>
<rect x="9" y="26" width="1" height="1" fill="rgb(124,0,39)" fill-opacity="1.000"/>
<rect x="10" y="26" width="1" height="1" fill="rgb(100,0,31)" fill-opacity="1.000"/>
<rect x="11" y="26" width="1" height="1" fill="rgb(111,0,35)" fill-opacity="1.000"/>
<rect x="12" y="26" width="1" height="1" fill="rgb(111,0,35)" fill-opacity="1.000"/>
<rect x="13" y="26" width="1" height="1" fill="rgb(99,0,31)" fill-opacity="1.000"/>
<rect x="14" y="26" width="1" height="1" fill="rgb(153,0,48)" fill-opacity="1.000"/>
<rect x="15" y="26" width="1" height="1" fill="rgb(153,0,48)" fill-opacity="1.000"/>
<rect x="16" y="26" width="1" height="1" fill="rgb(65,50,17)" fill-opacity="1.000"/>
<rect x="1" y="27" width="1" height="1" fill="rgb(81,66,28)" fill-opacity="1.000"/>
<rect x="2" y="27" width="1" height="1" fill="rgb(86,71,27)" fill-opacity="1.000"/>
<rect x="3" y="27" width="1" height="1" fill="rgb(55,43,16)" fill-opacity="1.000"/>
<rect x="4" y="27" width="1" height="1" fill="rgb(111,89,33)" fill-opacity="1.000"/>
<rect x="5" y="27" width="1" height="1" fill="rgb(55,43,16)" fill-opacity="1.000"/>
<rect x="6" y="27" width="1" height="1" fill="rgb(91,73,25)" fill-opacity="1.000"/>
<rect x="7" y="27" width="1" height="1" fill="rgb(61,48,18)" fill-opacity="1.000"/>
<rect x="8" y="27" width="1" height="1" fill="rgb(64,53,22)" fill-opacity="1.000"/>
<rect x="9" y="27" width="1" height="1" fill="rgb(48,39,13)" fill-opacity="1.000"/>
<rect x="10" y="27" width="1" height="1" fill="rgb(57,45,15)" fill-opacity="1.000"/>
<rect x="11" y="27" width="1" height="1" fill="rgb(90,72,27)" fill-opacity="1.000"/>
<rect x="12" y="27" width="1" height="1" fill="rgb(64,53,22)" fill-opacity="1.000"/>
<rect x="13" y="27" width="1" height="1" fill="rgb(67,57,27)" fill-opacity="1.000"/>
<rect x="14" y="27" width="1" height="1" fill="rgb(40,31,12)" fill-opacity="1.000"/>
<rect x="15" y="27" width="1" height="1" fill="rgb(55,43,16)" fill-opacity="1.000"/>
<rect x="16" y="27" width="1" height="1" fill="rgb(58,45,15)" fill-opacity="1.000"/>
<rect x="17" y="27" width="1" height="1" fill="rgb(114,94,40)" fill-opacity="1.000"/>
<rect x="0" y="28" width="1" height="1" fill="rgb(98,79,31)" fill-opacity="1.000"/>
<rect x="1" y="28" width="1" height="1" fill="rgb(61,48,18)" fill-opacity="1.000"/>
<rect x="2" y="28" width="1" height="1" fill="rgb(157,136,65)" fill-opacity="1.000"/>
<rect x="3" y="28" width="1" height="1" fill="rgb(179,152,67)" fill-opacity="1.000"/>
<rect x="4" y="28" width="1" height="1" fill="rgb(170,148,68)" fill-opacity="1.000"/>
<rect x="5" y="28" width="1" height="1" fill="rgb(215,188,96)" fill-opacity="1.000"/>
<rect x="6" y="28" width="1" height="1" fill="rgb(194,163,76)" fill-opacity="1.000"/>
<rect x="7" y="28" width="1" height="1" fill="rgb(145,126,63)" fill-opacity="1.000"/>
<rect x="8" y="28" width="1" height="1" fill="rgb(184,161,88)" fill-opacity="1.000"/>
<rect x="9" y="28" width="1" height="1" fill="rgb(164,138,63)" fill-opacity="1.000"/>
<rect x="10" y="28" width="1" height="1" fill="rgb(192,167,86)" fill-opacity="1.000"/>
<rect x="11" y="28" width="1" height="1" fill="rgb(201,180,105)" fill-opacity="1.000"/>
<rect x="12" y="28" width="1" height="1" fill="rgb(130,116,65)" fill-opacity="1.000"/>
<rect x="13" y="28" width="1" height="1" fill="rgb(238,211,118)" fill-opacity="1.000"/>
<rect x="14" y="28" width="1" height="1" fill="rgb(237,207,111)" fill-opacity="1.000"/>
<rect x="15" y="28" width="1" height="1" fill="rgb(193,171,92)" fill-opacity="1.000"/>
<rect x="16" y="28" width="1" height="1" fill="rgb(201,180,105)" fill-opacity="1.000"/>
<rect x="17" y="28" width="1" height="1" fill="rgb(72,56,19)" fill-opacity="1.000"/>
<rect x="18" y="28" width="1" height="1" fill="rgb(61,48,18)" fill-opacity="1.000"/>
<rect x="0" y="29" width="1" height="1" fill="rgb(114,94,40)" fill-opacity="1.000"/>
<rect x="1" y="29" width="1" height="1" fill="rgb(194,167,77)" fill-opacity="1.000"/>
<rect x="2" y="29" width="1" height="1" fill="rgb(150,133,65)" fill-opacity="1.000"/>
<rect x="3" y="29" width="1" height="1" fill="rgb(189,163,75)" fill-opacity="1.000"/>
<rect x="4" y="29" width="1" height="1" fill="rgb(219,191,98)" fill-opacity="1.000"/>
<rect x="5" y="29" width="1" height="1" fill="rgb(240,217,124)" fill-opacity="1.000"/>
<rect x="6" y="29" width="1" height="1" fill="rgb(215,188,101)" fill-opacity="1.000"/>
<rect x="7" y="29" width="1" height="1" fill="rgb(180,155,78)" fill-opacity="1.000"/>
<rect x="8" y="29" width="1" height="1" fill="rgb(239,209,112)" fill-opacity="1.000"/>
<rect x="9" y="29" width="1" height="1" fill="rgb(213,186,95)" fill-opacity="1.000"/>
<rect x="10" y="29" width="1" height="1" fill="rgb(230,203,111)" fill-opacity="1.000"/>
<rect x="11" y="29" width="1" height="1" fill="rgb(197,171,86)" fill-opacity="1.000"/>
<rect x="12" y="29" width="1" height="1" fill="rgb(221,198,114)" fill-opacity="1.000"/>
<rect x="13" y="29" width="1" height="1" fill="rgb(239,215,125)" fill-opacity="1.000"/>
<rect x="14" y="29" width="1" height="1" fill="rgb(199,174,91)" fill-opacity="1.000"/>
<rect x="15" y="29" width="1" height="1" fill="rgb(181,163,93)" fill-opacity="1.000"/>
<rect x="16" y="29" width="1" height="1" fill="rgb(238,211,118)" fill-opacity="1.000"/>
<rect x="17" y="29" width="1" height="1" fill="rgb(254,226,129)" fill-opacity="1.000"/>
<rect x="18" y="29" width="1" height="1" fill="rgb(81,66,28)" fill-opacity="1.000"/>
<rect x="0" y="30" width="1" height="1" fill="rgb(96,79,30)" fill-opacity="1.000"/>
<rect x="1" y="30" width="1" height="1" fill="rgb(191,168,85)" fill-opacity="1.000"/>
<rect x="2" y="30" width="1" height="1" fill="rgb(207,184,93)" fill-opacity="1.000"/>
<rect x="3" y="30" width="1" height="1" fill="rgb(171,146,64)" fill-opacity="1.000"/>
<rect x="4" y="30" width="1" height="1" fill="rgb(178,160,87)" fill-opacity="1.000"/>
<rect x="5" y="30" width="1" height="1" fill="rgb(254,226,128)" fill-opacity="1.000"/>
<rect x="6" y="30" width="1" height="1" fill="rgb(254,227,126)" fill-opacity="1.000"/>
<rect x="7" y="30" width="1" height="1" fill="rgb(255,230,138)" fill-opacity="1.000"/>
<rect x="8" y="30" width="1" height="1" fill="rgb(181,161,90)" fill-opacity="1.000"/>
<rect x="9" y="30" width="1" height="1" fill="rgb(230,203,111)" fill-opacity="1.000"/>
<rect x="10" y="30" width="1" height="1" fill="rgb(204,181,96)" fill-opacity="1.000"/>
<rect x="11" y="30" width="1" height="1" fill="rgb(180,158,84)" fill-opacity="1.000"/>
<rect x="12" y="30" width="1" height="1" fill="rgb(227,204,115)" fill-opacity="1.000"/>
<rect x="13" y="30" width="1" height="1" fill="rgb(243,215,114)" fill-opacity="1.000"/>
<rect x="14" y="30" width="1" height="1" fill="rgb(205,184,101)" fill-opacity="1.000"/>
<rect x="15" y="30" width="1" height="1" fill="rgb(238,211,118)" fill-opacity="1.000"/>
<rect x="16" y="30" width="1" height="1" fill="rgb(201,180,104)" fill-opacity="1.000"/>
<rect x="17" y="30" width="1" height="1" fill="rgb(236,209,118)" fill-opacity="1.000"/>
<rect x="18" y="30" width="1" height="1" fill="rgb(61,48,18)" fill-opacity="1.000"/>
<rect x="0" y="31" width="1" height="1" fill="rgb(80,62,21)" fill-opacity="1.000"/>
<rect x="1" y="31" width="1" height="1" fill="rgb(113,98,46)" fill-opacity="1.000"/>
<rect x="2" y="31" width="1" height="1" fill="rgb(98,83,38)" fill-opacity="1.000"/>
<rect x="3" y="31" width="1" height="1" fill="rgb(112,90,34)" fill-opacity="1.000"/>
<rect x="4" y="31" width="1" height="1" fill="rgb(98,79,31)" fill-opacity="1.000"/>
<rect x="5" y="31" width="1" height="1" fill="rgb(97,83,38)" fill-opacity="1.000"/>
<rect x="6" y="31" width="1" height="1" fill="rgb(60,48,18)" fill-opacity="1.000"/>
<rect x="7" y="31" width="1" height="1" fill="rgb(79,62,21)" fill-opacity="1.000"/>
<rect x="8" y="31" width="1" height="1" fill="rgb(60,48,18)" fill-opacity="1.000"/>
<rect x="9" y="31" width="1" height="1" fill="rgb(99,82,37)" fill-opacity="1.000"/>
<rect x="10" y="31" width="1" height="1" fill="rgb(80,62,21)" fill-opacity="1.000"/>
<rect x="11" y="31" width="1" height="1" fill="rgb(114,94,40)" fill-opacity="1.000"/>
<rect x="12" y="31" width="1" height="1" fill="rgb(78,61,20)" fill-opacity="1.000"/>
<rect x="13" y="31" width="1" height="1" fill="rgb(96,78,30)" fill-opacity="1.000"/>
<rect x="14" y="31" width="1" height="1" fill="rgb(127,108,48)" fill-opacity="1.000"/>
<rect x="15" y="31" width="1" height="1" fill="rgb(79,66,27)" fill-opacity="1.000"/>
<rect x="16" y="31" width="1" height="1" fill="rgb(97,79,31)" fill-opacity="1.000"/>
<rect x="17" y="31" width="1" height="1" fill="rgb(81,66,28)" fill-opacity="1.000"/>
<rect x="18" y="31" width="1" height="1" fill="rgb(61,48,18)" fill-opacity="1.000"/>
</svg>