<svg xmlns="http://www.w3.org/2000/svg" width="20" height="33" shape-rendering="crispEdges">
<rect x="0" y="0" width="1" height="1" fill="rgb(95,75,23)" fill-opacity="1.000"/>
<rect x="1" y="0" width="1" height="1" fill="rgb(95,75,23)" fill-opacity="1.000"/>
<rect x="2" y="0" width="1" height="1" fill="rgb(141,109,17)" fill-opacity="1.000"/>
<rect x="6" y="0" width="1" height="1" fill="rgb(61,48,18)" fill-opacity="1.000"/>
<rect x="7" y="0" width="1" height="1" fill="rgb(97,77,24)" fill-opacity="1.000"/>
<rect x="8" y="0" width="1" height="1" fill="rgb(141,112,44)" fill-opacity="1.000"/>
<rect x="9" y="0" width="1" height="1" fill="rgb(97,77,24)" fill-opacity="1.000"/>
<rect x="10" y="0" width="1" height="1" fill="rgb(95,75,23)" fill-opacity="1.000"/>
<rect x="11" y="0" width="1" height="1" fill="rgb(141,112,44)" fill-opacity="1.000"/>
<rect x="12" y="0" width="1" height="1" fill="rgb(61,48,18)" fill-opacity="1.000"/>
<rect x="16" y="0" width="1" height="1" fill="rgb(95,75,23)" fill-opacity="1.000"/>
<rect x="17" y="0" width="1" height="1" fill="rgb(141,112,44)" fill-opacity="1.000"/>
<rect x="18" y="0" width="1" height="1" fill="rgb(61,48,18)" fill-opacity="1.000"/>
<rect x="0" y="1" width="1" height="1" fill="rgb(81,71,42)" fill-opacity="1.000"/>
<rect x="1" y="1" width="1" height="1" fill="rgb(211,197,139)" fill-opacity="1.000"/>
<rect x="2" y="1" width="1" height="1" fill="rgb(171,148,69)" fill-opacity="1.000"/>
<rect x="3" y="1" width="1" height="1" fill="rgb(103,84,36)" fill-opacity="1.000"/>
<rect x="5" y="1" width="1" height="1" fill="rgb(80,64,21)" fill-opacity="1.000"/>
<rect x="6" y="1" width="1" height="1" fill="rgb(194,176,110)" fill-opacity="1.000"/>
<rect x="7" y="1" width="1" height="1" fill="rgb(229,209,133)" fill-opacity="1.000"/>
<rect x="8" y="1" width="1" height="1" fill="rgb(211,179,74)" fill-opacity="1.000"/>
<rect x="9" y="1" width="1" height="1" fill="rgb(207,176,71)" fill-opacity="1.000"/>
<rect x="10" y="1" width="1" height="1" fill="rgb(191,167,88)" fill-opacity="1.000"/>
<rect x="11" y="1" width="1" height="1" fill="rgb(247,215,104)" fill-opacity="1.000"/>
<rect x="12" y="1" width="1" height="1" fill="rgb(238,203,88)" fill-opacity="1.000"/>
<rect x="13" y="1" width="1" height="1" fill="rgb(143,116,37)" fill-opacity="1.000"/>
<rect x="15" y="1" width="1" height="1" fill="rgb(98,88,60)" fill-opacity="1.000"/>
<rect x="16" y="1" width="1" height="1" fill="rgb(207,182,99)" fill-opacity="1.000"/>
<rect x="17" y="1" width="1" height="1" fill="rgb(245,228,156)" fill-opacity="1.000"/>
<rect x="18" y="1" width="1" height="1" fill="rgb(77,67,39)" fill-opacity="1.000"/>
<rect x="0" y="2" width="1" height="1" fill="rgb(112,93,42)" fill-opacity="1.000"/>
<rect x="1" y="2" width="1" height="1" fill="rgb(192,167,86)" fill-opacity="1.000"/>
<rect x="2" y="2" width="1" height="1" fill="rgb(242,206,96)" fill-opacity="1.000"/>
<rect x="3" y="2" width="1" height="1" fill="rgb(61,48,18)" fill-opacity="1.000"/>
<rect x="5" y="2" width="1" height="1" fill="rgb(78,70,51)" fill-opacity="1.000"/>
<rect x="6" y="2" width="1" height="1" fill="rgb(207,180,94)" fill-opacity="1.000"/>
<rect x="7" y="2" width="1" height="1" fill="rgb(184,164,91)" fill-opacity="1.000"/>
<rect x="8" y="2" width="1" height="1" fill="rgb(216,194,116)" fill-opacity="1.000"/>
<rect x="9" y="2" width="1" height="1" fill="rgb(195,169,81)" fill-opacity="1.000"/>
<rect x="10" y="2" width="1" height="1" fill="rgb(194,164,63)" fill-opacity="1.000"/>
<rect x="11" y="2" width="1" height="1" fill="rgb(255,214,81)" fill-opacity="1.000"/>
<rect x="12" y="2" width="1" height="1" fill="rgb(222,198,112)" fill-opacity="1.000"/>
<rect x="13" y="2" width="1" height="1" fill="rgb(59,48,18)" fill-opacity="1.000"/>
<rect x="15" y="2" width="1" height="1" fill="rgb(61,50,23)" fill-opacity="1.000"/>
<rect x="16" y="2" width="1" height="1" fill="rgb(192,169,90)" fill-opacity="1.000"/>
<rect x="17" y="2" width="1" height="1" fill="rgb(216,197,127)" fill-opacity="1.000"/>
<rect x="18" y="2" width="1" height="1" fill="rgb(61,50,23)" fill-opacity="1.000"/>
<rect x="0" y="3" width="1" height="1" fill="rgb(78,70,47)" fill-opacity="1.000"/>
<rect x="1" y="3" width="1" height="1" fill="rgb(220,198,118)" fill-opacity="1.000"/>
<rect x="2" y="3" width="1" height="1" fill="rgb(203,175,91)" fill-opacity="1.000"/>
<rect x="3" y="3" width="1" height="1" fill="rgb(138,119,66)" fill-opacity="1.000"/>
<rect x="5" y="3" width="1" height="1" fill="rgb(113,87,14)" fill-opacity="1.000"/>
<rect x="6" y="3" width="1" height="1" fill="rgb(134,122,80)" fill-opacity="1.000"/>
<rect x="7" y="3" width="1" height="1" fill="rgb(164,145,84)" fill-opacity="1.000"/>
<rect x="8" y="3" width="1" height="1" fill="rgb(220,193,102)" fill-opacity="1.000"/>
<rect x="9" y="3" width="1" height="1" fill="rgb(176,148,58)" fill-opacity="1.000"/>
<rect x="10" y="3" width="1" height="1" fill="rgb(202,164,43)" fill-opacity="1.000"/>
<rect x="11" y="3" width="1" height="1" fill="rgb(226,188,63)" fill-opacity="1.000"/>
<rect x="12" y="3" width="1" height="1" fill="rgb(229,192,69)" fill-opacity="1.000"/>
<rect x="13" y="3" width="1" height="1" fill="rgb(95,75,23)" fill-opacity="1.000"/>
<rect x="15" y="3" width="1" height="1" fill="rgb(123,108,65)" fill-opacity="1.000"/>
<rect x="16" y="3" width="1" height="1" fill="rgb(192,169,90)" fill-opacity="1.000"/>
<rect x="17" y="3" width="1" height="1" fill="rgb(214,196,130)" fill-opacity="1.000"/>
<rect x="18" y="3" width="1" height="1" fill="rgb(77,66,35)" fill-opacity="1.000"/>
<rect x="0" y="4" width="1" height="1" fill="rgb(88,77,49)" fill-opacity="1.000"/>
<rect x="1" y="4" width="1" height="1" fill="rgb(203,184,116)" fill-opacity="1.000"/>
<rect x="2" y="4" width="1" height="1" fill="rgb(203,176,90)" fill-opacity="1.000"/>
<rect x="3" y="4" width="1" height="1" fill="rgb(81,66,28)" fill-opacity="1.000"/>
<rect x="4" y="4" width="1" height="1" fill="rgb(61,48,18)" fill-opacity="1.000"/>
<rect x="5" y="4" width="1" height="1" fill="rgb(60,48,18)" fill-opacity="1.000"/>
<rect x="6" y="4" width="1" height="1" fill="rgb(232,192,56)" fill-opacity="1.000"/>
<rect x="7" y="4" width="1" height="1" fill="rgb(185,162,89)" fill-opacity="1.000"/>
<rect x="8" y="4" width="1" height="1" fill="rgb(246,211,92)" fill-opacity="1.000"/>
<rect x="9" y="4" width="1" height="1" fill="rgb(200,180,108)" fill-opacity="1.000"/>
<rect x="10" y="4" width="1" height="1" fill="rgb(226,191,72)" fill-opacity="1.000"/>
<rect x="11" y="4" width="1" height="1" fill="rgb(214,181,66)" fill-opacity="1.000"/>
<rect x="12" y="4" width="1" height="1" fill="rgb(198,161,43)" fill-opacity="1.000"/>
<rect x="13" y="4" width="1" height="1" fill="rgb(81,66,28)" fill-opacity="1.000"/>
<rect x="14" y="4" width="1" height="1" fill="rgb(110,88,35)" fill-opacity="1.000"/>
<rect x="15" y="4" width="1" height="1" fill="rgb(111,98,67)" fill-opacity="1.000"/>
<rect x="16" y="4" width="1" height="1" fill="rgb(207,177,83)" fill-opacity="1.000"/>
<rect x="17" y="4" width="1" height="1" fill="rgb(194,178,123)" fill-opacity="1.000"/>
<rect x="18" y="4" width="1" height="1" fill="rgb(95,82,44)" fill-opacity="1.000"/>
<rect x="0" y="5" width="1" height="1" fill="rgb(72,61,34)" fill-opacity="1.000"/>
<rect x="1" y="5" width="1" height="1" fill="rgb(220,196,112)" fill-opacity="1.000"/>
<rect x="2" y="5" width="1" height="1" fill="rgb(183,166,103)" fill-opacity="1.000"/>
<rect x="3" y="5" width="1" height="1" fill="rgb(128,104,32)" fill-opacity="1.000"/>
<rect x="4" y="5" width="1" height="1" fill="rgb(204,159,53)" fill-opacity="1.000"/>
<rect x="5" y="5" width="1" height="1" fill="rgb(175,153,86)" fill-opacity="1.000"/>
<rect x="6" y="5" width="1" height="1" fill="rgb(253,215,87)" fill-opacity="1.000"/>
<rect x="7" y="5" width="1" height="1" fill="rgb(183,158,71)" fill-opacity="1.000"/>
<rect x="8" y="5" width="1" height="1" fill="rgb(193,171,96)" fill-opacity="1.000"/>
<rect x="9" y="5" width="1" height="1" fill="rgb(160,143,81)" fill-opacity="1.000"/>
<rect x="10" y="5" width="1" height="1" fill="rgb(236,196,71)" fill-opacity="1.000"/>
<rect x="11" y="5" width="1" height="1" fill="rgb(171,150,79)" fill-opacity="1.000"/>
<rect x="12" y="5" width="1" height="1" fill="rgb(150,131,63)" fill-opacity="1.000"/>
<rect x="13" y="5" width="1" height="1" fill="rgb(227,196,91)" fill-opacity="1.000"/>
<rect x="14" y="5" width="1" height="1" fill="rgb(183,166,103)" fill-opacity="1.000"/>
<rect x="15" y="5" width="1" height="1" fill="rgb(122,106,62)" fill-opacity="1.000"/>
<rect x="16" y="5" width="1" height="1" fill="rgb(210,175,75)" fill-opacity="1.000"/>
<rect x="17" y="5" width="1" height="1" fill="rgb(237,214,131)" fill-opacity="1.000"/>
<rect x="18" y="5" width="1" height="1" fill="rgb(96,86,60)" fill-opacity="1.000"/>
<rect x="0" y="6" width="1" height="1" fill="rgb(80,64,21)" fill-opacity="1.000"/>
<rect x="1" y="6" width="1" height="1" fill="rgb(219,193,102)" fill-opacity="1.000"/>
<rect x="2" y="6" width="1" height="1" fill="rgb(203,185,117)" fill-opacity="1.000"/>
<rect x="3" y="6" width="1" height="1" fill="rgb(201,181,112)" fill-opacity="1.000"/>
<rect x="4" y="6" width="1" height="1" fill="rgb(188,160,70)" fill-opacity="1.000"/>
<rect x="5" y="6" width="1" height="1" fill="rgb(200,172,83)" fill-opacity="1.000"/>
<rect x="6" y="6" width="1" height="1" fill="rgb(232,203,100)" fill-opacity="1.000"/>
<rect x="7" y="6" width="1" height="1" fill="rgb(239,209,104)" fill-opacity="1.000"/>
<rect x="8" y="6" width="1" height="1" fill="rgb(222,188,73)" fill-opacity="1.000"/>
<rect x="9" y="6" width="1" height="1" fill="rgb(204,177,84)" fill-opacity="1.000"/>
<rect x="10" y="6" width="1" height="1" fill="rgb(213,189,101)" fill-opacity="1.000"/>
<rect x="11" y="6" width="1" height="1" fill="rgb(190,166,86)" fill-opacity="1.000"/>
<rect x="12" y="6" width="1" height="1" fill="rgb(234,198,72)" fill-opacity="1.000"/>
<rect x="13" y="6" width="1" height="1" fill="rgb(235,205,104)" fill-opacity="1.000"/>
<rect x="14" y="6" width="1" height="1" fill="rgb(207,187,118)" fill-opacity="1.000"/>
<rect x="15" y="6" width="1" height="1" fill="rgb(240,210,105)" fill-opacity="1.000"/>
<rect x="16" y="6" width="1" height="1" fill="rgb(218,194,113)" fill-opacity="1.000"/>
<rect x="17" y="6" width="1" height="1" fill="rgb(221,195,103)" fill-opacity="1.000"/>
<rect x="18" y="6" width="1" height="1" fill="rgb(106,88,34)" fill-opacity="1.000"/>
<rect x="0" y="7" width="1" height="1" fill="rgb(61,48,18)" fill-opacity="1.000"/>
<rect x="1" y="7" width="1" height="1" fill="rgb(219,198,122)" fill-opacity="1.000"/>
<rect x="2" y="7" width="1" height="1" fill="rgb(237,215,134)" fill-opacity="1.000"/>
<rect x="3" y="7" width="1" height="1" fill="rgb(202,179,104)" fill-opacity="1.000"/>
<rect x="4" y="7" width="1" height="1" fill="rgb(227,193,84)" fill-opacity="1.000"/>
<rect x="5" y="7" width="1" height="1" fill="rgb(211,180,79)" fill-opacity="1.000"/>
<rect x="6" y="7" width="1" height="1" fill="rgb(183,166,103)" fill-opacity="1.000"/>
<rect x="7" y="7" width="1" height="1" fill="rgb(216,187,86)" fill-opacity="1.000"/>
<rect x="8" y="7" width="1" height="1" fill="rgb(232,201,91)" fill-opacity="1.000"/>
<rect x="9" y="7" width="1" height="1" fill="rgb(219,194,105)" fill-opacity="1.000"/>
<rect x="10" y="7" width="1" height="1" fill="rgb(239,210,107)" fill-opacity="1.000"/>
<rect x="11" y="7" width="1" height="1" fill="rgb(229,202,109)" fill-opacity="1.000"/>
<rect x="12" y="7" width="1" height="1" fill="rgb(203,179,92)" fill-opacity="1.000"/>
<rect x="13" y="7" width="1" height="1" fill="rgb(175,163,117)" fill-opacity="1.000"/>
<rect x="14" y="7" width="1" height="1" fill="rgb(214,184,82)" fill-opacity="1.000"/>
<rect x="15" y="7" width="1" height="1" fill="rgb(255,225,117)" fill-opacity="1.000"/>
<rect x="16" y="7" width="1" height="1" fill="rgb(247,224,140)" fill-opacity="1.000"/>
<rect x="17" y="7" width="1" height="1" fill="rgb(221,198,113)" fill-opacity="1.000"/>
<rect x="18" y="7" width="1" height="1" fill="rgb(61,48,18)" fill-opacity="1.000"/>
<rect x="0" y="8" width="1" height="1" fill="rgb(76,59,19)" fill-opacity="1.000"/>
<rect x="1" y="8" width="1" height="1" fill="rgb(149,125,51)" fill-opacity="1.000"/>
<rect x="2" y="8" width="1" height="1" fill="rgb(171,148,69)" fill-opacity="1.000"/>
<rect x="3" y="8" width="1" height="1" fill="rgb(190,167,90)" fill-opacity="1.000"/>
<rect x="4" y="8" width="1" height="1" fill="rgb(232,205,107)" fill-opacity="1.000"/>
<rect x="5" y="8" width="1" height="1" fill="rgb(232,200,101)" fill-opacity="1.000"/>
<rect x="6" y="8" width="1" height="1" fill="rgb(250,219,123)" fill-opacity="1.000"/>
<rect x="7" y="8" width="1" height="1" fill="rgb(219,197,119)" fill-opacity="1.000"/>
<rect x="8" y="8" width="1" height="1" fill="rgb(186,163,88)" fill-opacity="1.000"/>
<rect x="9" y="8" width="1" height="1" fill="rgb(225,192,85)" fill-opacity="1.000"/>
<rect x="10" y="8" width="1" height="1" fill="rgb(237,206,99)" fill-opacity="1.000"/>
<rect x="11" y="8" width="1" height="1" fill="rgb(192,167,86)" fill-opacity="1.000"/>
<rect x="12" y="8" width="1" height="1" fill="rgb(201,180,105)" fill-opacity="1.000"/>
<rect x="13" y="8" width="1" height="1" fill="rgb(227,193,84)" fill-opacity="1.000"/>
<rect x="14" y="8" width="1" height="1" fill="rgb(238,211,118)" fill-opacity="1.000"/>
<rect x="15" y="8" width="1" height="1" fill="rgb(237,207,111)" fill-opacity="1.000"/>
<rect x="16" y="8" width="1" height="1" fill="rgb(230,203,111)" fill-opacity="1.000"/>
<rect x="17" y="8" width="1" height="1" fill="rgb(225,187,78)" fill-opacity="1.000"/>
<rect x="18" y="8" width="1" height="1" fill="rgb(76,59,19)" fill-opacity="1.000"/>
<rect x="0" y="9" width="1" height="1" fill="rgb(61,48,18)" fill-opacity="1.000"/>
<rect x="1" y="9" width="1" height="1" fill="rgb(90,68,19)" fill-opacity="1.000"/>
<rect x="2" y="9" width="1" height="1" fill="rgb(219,198,122)" fill-opacity="1.000"/>
<rect x="3" y="9" width="1" height="1" fill="rgb(236,213,129)" fill-opacity="1.000"/>
<rect x="4" y="9" width="1" height="1" fill="rgb(206,181,97)" fill-opacity="1.000"/>
<rect x="5" y="9" width="1" height="1" fill="rgb(219,189,91)" fill-opacity="1.000"/>
<rect x="6" y="9" width="1" height="1" fill="rgb(255,226,122)" fill-opacity="1.000"/>
<rect x="7" y="9" width="1" height="1" fill="rgb(242,209,91)" fill-opacity="1.000"/>
<rect x="8" y="9" width="1" height="1" fill="rgb(255,225,117)" fill-opacity="1.000"/>
<rect x="9" y="9" width="1" height="1" fill="rgb(203,183,111)" fill-opacity="1.000"/>
<rect x="10" y="9" width="1" height="1" fill="rgb(204,186,118)" fill-opacity="1.000"/>
<rect x="11" y="9" width="1" height="1" fill="rgb(236,209,112)" fill-opacity="1.000"/>
<rect x="12" y="9" width="1" height="1" fill="rgb(238,203,86)" fill-opacity="1.000"/>
<rect x="13" y="9" width="1" height="1" fill="rgb(224,201,116)" fill-opacity="1.000"/>
<rect x="14" y="9" width="1" height="1" fill="rgb(247,220,120)" fill-opacity="1.000"/>
<rect x="15" y="9" width="1" height="1" fill="rgb(236,210,117)" fill-opacity="1.000"/>
<rect x="16" y="9" width="1" height="1" fill="rgb(239,209,104)" fill-opacity="1.000"/>
<rect x="17" y="9" width="1" height="1" fill="rgb(90,68,19)" fill-opacity="1.000"/>
<rect x="18" y="9" width="1" height="1" fill="rgb(61,48,18)" fill-opacity="1.000"/>
<rect x="1" y="10" width="1" height="1" fill="rgb(61,50,23)" fill-opacity="1.000"/>
<rect x="2" y="10" width="1" height="1" fill="rgb(61,48,18)" fill-opacity="1.000"/>
<rect x="3" y="10" width="1" height="1" fill="rgb(59,48,18)" fill-opacity="1.000"/>
<rect x="4" y="10" width="1" height="1" fill="rgb(61,52,31)" fill-opacity="1.000"/>
<rect x="5" y="10" width="1" height="1" fill="rgb(90,76,30)" fill-opacity="1.000"/>
<rect x="6" y="10" width="1" height="1" fill="rgb(125,100,30)" fill-opacity="1.000"/>
<rect x="7" y="10" width="1" height="1" fill="rgb(114,92,32)" fill-opacity="1.000"/>
<rect x="8" y="10" width="1" height="1" fill="rgb(136,105,33)" fill-opacity="1.000"/>
<rect x="9" y="10" width="1" height="1" fill="rgb(155,123,39)" fill-opacity="1.000"/>
<rect x="10" y="10" width="1" height="1" fill="rgb(112,100,63)" fill-opacity="1.000"/>
<rect x="11" y="10" width="1" height="1" fill="rgb(163,134,60)" fill-opacity="1.000"/>
<rect x="12" y="10" width="1" height="1" fill="rgb(108,90,47)" fill-opacity="1.000"/>
<rect x="13" y="10" width="1" height="1" fill="rgb(81,66,28)" fill-opacity="1.000"/>
<rect x="14" y="10" width="1" height="1" fill="rgb(87,75,40)" fill-opacity="1.000"/>
<rect x="15" y="10" width="1" height="1" fill="rgb(105,81,18)" fill-opacity="1.000"/>
<rect x="16" y="10" width="1" height="1" fill="rgb(80,65,23)" fill-opacity="1.000"/>
<rect x="17" y="10" width="1" height="1" fill="rgb(95,77,31)" fill-opacity="1.000"/>
<rect x="1" y="11" width="1" height="1" fill="rgb(76,59,19)" fill-opacity="1.000"/>
<rect x="2" y="11" width="1" height="1" fill="rgb(225,187,78)" fill-opacity="1.000"/>
<rect x="3" y="11" width="1" height="1" fill="rgb(242,206,96)" fill-opacity="1.000"/>
<rect x="4" y="11" width="1" height="1" fill="rgb(229,197,98)" fill-opacity="1.000"/>
<rect x="5" y="11" width="1" height="1" fill="rgb(232,198,100)" fill-opacity="1.000"/>
<rect x="6" y="11" width="1" height="1" fill="rgb(219,187,86)" fill-opacity="1.000"/>
<rect x="7" y="11" width="1" height="1" fill="rgb(194,167,80)" fill-opacity="1.000"/>
<rect x="8" y="11" width="1" height="1" fill="rgb(226,200,113)" fill-opacity="1.000"/>
<rect x="9" y="11" width="1" height="1" fill="rgb(223,192,93)" fill-opacity="1.000"/>
<rect x="10" y="11" width="1" height="1" fill="rgb(234,204,99)" fill-opacity="1.000"/>
<rect x="11" y="11" width="1" height="1" fill="rgb(223,191,84)" fill-opacity="1.000"/>
<rect x="12" y="11" width="1" height="1" fill="rgb(230,203,111)" fill-opacity="1.000"/>
<rect x="13" y="11" width="1" height="1" fill="rgb(197,171,86)" fill-opacity="1.000"/>
<rect x="14" y="11" width="1" height="1" fill="rgb(221,198,114)" fill-opacity="1.000"/>
<rect x="15" y="11" width="1" height="1" fill="rgb(239,215,125)" fill-opacity="1.000"/>
<rect x="16" y="11" width="1" height="1" fill="rgb(199,174,91)" fill-opacity="1.000"/>
<rect x="17" y="11" width="1" height="1" fill="rgb(76,59,19)" fill-opacity="1.000"/>
<rect x="1" y="12" width="1" height="1" fill="rgb(61,48,18)" fill-opacity="1.000"/>
<rect x="2" y="12" width="1" height="1" fill="rgb(183,155,80)" fill-opacity="1.000"/>
<rect x="3" y="12" width="1" height="1" fill="rgb(203,175,91)" fill-opacity="1.000"/>
<rect x="4" y="12" width="1" height="1" fill="rgb(238,201,95)" fill-opacity="1.000"/>
<rect x="5" y="12" width="1" height="1" fill="rgb(194,168,87)" fill-opacity="1.000"/>
<rect x="6" y="12" width="1" height="1" fill="rgb(242,215,114)" fill-opacity="1.000"/>
<rect x="7" y="12" width="1" height="1" fill="rgb(212,176,77)" fill-opacity="1.000"/>
<rect x="8" y="12" width="1" height="1" fill="rgb(226,183,68)" fill-opacity="1.000"/>
<rect x="9" y="12" width="1" height="1" fill="rgb(231,190,76)" fill-opacity="1.000"/>
<rect x="10" y="12" width="1" height="1" fill="rgb(192,164,78)" fill-opacity="1.000"/>
<rect x="11" y="12" width="1" height="1" fill="rgb(205,177,90)" fill-opacity="1.000"/>
<rect x="12" y="12" width="1" height="1" fill="rgb(204,181,96)" fill-opacity="1.000"/>
<rect x="13" y="12" width="1" height="1" fill="rgb(180,158,84)" fill-opacity="1.000"/>
<rect x="14" y="12" width="1" height="1" fill="rgb(227,204,115)" fill-opacity="1.000"/>
<rect x="15" y="12" width="1" height="1" fill="rgb(243,215,114)" fill-opacity="1.000"/>
<rect x="16" y="12" width="1" height="1" fill="rgb(205,184,101)" fill-opacity="1.000"/>
<rect x="17" y="12" width="1" height="1" fill="rgb(61,48,18)" fill-opacity="1.000"/>
<rect x="2" y="13" width="1" height="1" fill="rgb(61,48,18)" fill-opacity="1.000"/>
<rect x="3" y="13" width="1" height="1" fill="rgb(60,48,18)" fill-opacity="1.000"/>
<rect x="4" y="13" width="1" height="1" fill="rgb(80,63,17)" fill-opacity="1.000"/>
<rect x="5" y="13" width="1" height="1" fill="rgb(61,48,18)" fill-opacity="1.000"/>
<rect x="6" y="13" width="1" height="1" fill="rgb(58,48,17)" fill-opacity="1.000"/>
<rect x="7" y="13" width="1" height="1" fill="rgb(78,65,26)" fill-opacity="1.000"/>
<rect x="8" y="13" width="1" height="1" fill="rgb(112,90,34)" fill-opacity="1.000"/>
<rect x="9" y="13" width="1" height="1" fill="rgb(92,72,26)" fill-opacity="1.000"/>
<rect x="10" y="13" width="1" height="1" fill="rgb(113,90,34)" fill-opacity="1.000"/>
<rect x="11" y="13" width="1" height="1" fill="rgb(141,112,44)" fill-opacity="1.000"/>
<rect x="12" y="13" width="1" height="1" fill="rgb(80,62,21)" fill-opacity="1.000"/>
<rect x="13" y="13" width="1" height="1" fill="rgb(61,48,18)" fill-opacity="1.000"/>
<rect x="14" y="13" width="1" height="1" fill="rgb(110,88,35)" fill-opacity="1.000"/>
<rect x="15" y="13" width="1" height="1" fill="rgb(81,66,28)" fill-opacity="1.000"/>
<rect x="16" y="13" width="1" height="1" fill="rgb(61,48,18)" fill-opacity="1.000"/>
<rect x="2" y="14" width="1" height="1" fill="rgb(61,48,18)" fill-opacity="1.000"/>
<rect x="3" y="14" width="1" height="1" fill="rgb(121,100,39)" fill-opacity="1.000"/>
<rect x="4" y="14" width="1" height="1" fill="rgb(198,170,80)" fill-opacity="1.000"/>
<rect x="5" y="14" width="1" height="1" fill="rgb(209,171,65)" fill-opacity="1.000"/>
<rect x="6" y="14" width="1" height="1" fill="rgb(229,193,84)" fill-opacity="1.000"/>
<rect x="7" y="14" width="1" height="1" fill="rgb(231,190,76)" fill-opacity="1.000"/>
<rect x="8" y="14" width="1" height="1" fill="rgb(215,184,89)" fill-opacity="1.000"/>
<rect x="9" y="14" width="1" height="1" fill="rgb(196,164,74)" fill-opacity="1.000"/>
<rect x="10" y="14" width="1" height="1" fill="rgb(210,179,85)" fill-opacity="1.000"/>
<rect x="11" y="14" width="1" height="1" fill="rgb(190,158,66)" fill-opacity="1.000"/>
<rect x="12" y="14" width="1" height="1" fill="rgb(190,169,93)" fill-opacity="1.000"/>
<rect x="13" y="14" width="1" height="1" fill="rgb(198,171,86)" fill-opacity="1.000"/>
<rect x="14" y="14" width="1" height="1" fill="rgb(185,154,68)" fill-opacity="1.000"/>
<rect x="15" y="14" width="1" height="1" fill="rgb(172,151,83)" fill-opacity="1.000"/>
<rect x="16" y="14" width="1" height="1" fill="rgb(76,59,19)" fill-opacity="1.000"/>
<rect x="2" y="15" width="1" height="1" fill="rgb(61,48,18)" fill-opacity="1.000"/>
<rect x="3" y="15" width="1" height="1" fill="rgb(208,173,72)" fill-opacity="1.000"/>
<rect x="4" y="15" width="1" height="1" fill="rgb(236,200,88)" fill-opacity="1.000"/>
<rect x="5" y="15" width="1" height="1" fill="rgb(225,187,78)" fill-opacity="1.000"/>
<rect x="6" y="15" width="1" height="1" fill="rgb(215,178,73)" fill-opacity="1.000"/>
<rect x="7" y="15" width="1" height="1" fill="rgb(201,164,66)" fill-opacity="1.000"/>
<rect x="8" y="15" width="1" height="1" fill="rgb(189,157,64)" fill-opacity="1.000"/>
<rect x="9" y="15" width="1" height="1" fill="rgb(210,175,75)" fill-opacity="1.000"/>
<rect x="10" y="15" width="1" height="1" fill="rgb(211,182,86)" fill-opacity="1.000"/>
<rect x="11" y="15" width="1" height="1" fill="rgb(206,177,85)" fill-opacity="1.000"/>
<rect x="12" y="15" width="1" height="1" fill="rgb(201,165,67)" fill-opacity="1.000"/>
<rect x="13" y="15" width="1" height="1" fill="rgb(181,150,68)" fill-opacity="1.000"/>
<rect x="14" y="15" width="1" height="1" fill="rgb(207,178,86)" fill-opacity="1.000"/>
<rect x="15" y="15" width="1" height="1" fill="rgb(187,160,80)" fill-opacity="1.000"/>
<rect x="16" y="15" width="1" height="1" fill="rgb(90,68,19)" fill-opacity="1.000"/>
<rect x="2" y="16" width="1" height="1" fill="rgb(61,48,18)" fill-opacity="1.000"/>
<rect x="3" y="16" width="1" height="1" fill="rgb(189,166,88)" fill-opacity="1.000"/>
<rect x="4" y="16" width="1" height="1" fill="rgb(174,145,65)" fill-opacity="1.000"/>
<rect x="5" y="16" width="1" height="1" fill="rgb(190,166,88)" fill-opacity="1.000"/>
<rect x="6" y="16" width="1" height="1" fill="rgb(216,187,97)" fill-opacity="1.000"/>
<rect x="7" y="16" width="1" height="1" fill="rgb(197,165,72)" fill-opacity="1.000"/>
<rect x="8" y="16" width="1" height="1" fill="rgb(204,159,53)" fill-opacity="1.000"/>
<rect x="9" y="16" width="1" height="1" fill="rgb(191,154,58)" fill-opacity="1.000"/>
<rect x="10" y="16" width="1" height="1" fill="rgb(207,169,69)" fill-opacity="1.000"/>
<rect x="11" y="16" width="1" height="1" fill="rgb(188,160,81)" fill-opacity="1.000"/>
<rect x="12" y="16" width="1" height="1" fill="rgb(224,189,91)" fill-opacity="1.000"/>
<rect x="13" y="16" width="1" height="1" fill="rgb(183,156,80)" fill-opacity="1.000"/>
<rect x="14" y="16" width="1" height="1" fill="rgb(191,165,81)" fill-opacity="1.000"/>
<rect x="15" y="16" width="1" height="1" fill="rgb(229,185,57)" fill-opacity="1.000"/>
<rect x="16" y="16" width="1" height="1" fill="rgb(76,59,19)" fill-opacity="1.000"/>
<rect x="2" y="17" width="1" height="1" fill="rgb(61,48,18)" fill-opacity="1.000"/>
<rect x="3" y="17" width="1" height="1" fill="rgb(223,179,46)" fill-opacity="1.000"/>
<rect x="4" y="17" width="1" height="1" fill="rgb(219,192,105)" fill-opacity="1.000"/>
<rect x="5" y="17" width="1" height="1" fill="rgb(149,124,56)" fill-opacity="1.000"/>
<rect x="6" y="17" width="1" height="1" fill="rgb(179,146,59)" fill-opacity="1.000"/>
<rect x="7" y="17" width="1" height="1" fill="rgb(182,145,48)" fill-opacity="1.000"/>
<rect x="8" y="17" width="1" height="1" fill="rgb(186,147,52)" fill-opacity="1.000"/>
<rect x="9" y="17" width="1" height="1" fill="rgb(208,166,61)" fill-opacity="1.000"/>
<rect x="10" y="17" width="1" height="1" fill="rgb(230,194,89)" fill-opacity="1.000"/>
<rect x="11" y="17" width="1" height="1" fill="rgb(181,145,56)" fill-opacity="1.000"/>
<rect x="12" y="17" width="1" height="1" fill="rgb(230,190,78)" fill-opacity="1.000"/>
<rect x="13" y="17" width="1" height="1" fill="rgb(201,168,75)" fill-opacity="1.000"/>
<rect x="14" y="17" width="1" height="1" fill="rgb(206,165,46)" fill-opacity="1.000"/>
<rect x="15" y="17" width="1" height="1" fill="rgb(198,169,77)" fill-opacity="1.000"/>
<rect x="16" y="17" width="1" height="1" fill="rgb(76,59,19)" fill-opacity="1.000"/>
<rect x="2" y="18" width="1" height="1" fill="rgb(61,48,18)" fill-opacity="1.000"/>
<rect x="3" y="18" width="1" height="1" fill="rgb(255,230,138)" fill-opacity="1.000"/>
<rect x="4" y="18" width="1" height="1" fill="rgb(221,197,114)" fill-opacity="1.000"/>
<rect x="5" y="18" width="1" height="1" fill="rgb(206,174,79)" fill-opacity="1.000"/>
<rect x="6" y="18" width="1" height="1" fill="rgb(185,152,60)" fill-opacity="1.000"/>
<rect x="7" y="18" width="1" height="1" fill="rgb(171,148,77)" fill-opacity="1.000"/>
<rect x="8" y="18" width="1" height="1" fill="rgb(198,158,63)" fill-opacity="1.000"/>
<rect x="9" y="18" width="1" height="1" fill="rgb(215,171,62)" fill-opacity="1.000"/>
<rect x="10" y="18" width="1" height="1" fill="rgb(203,168,68)" fill-opacity="1.000"/>
<rect x="11" y="18" width="1" height="1" fill="rgb(171,142,71)" fill-opacity="1.000"/>
<rect x="12" y="18" width="1" height="1" fill="rgb(189,158,73)" fill-opacity="1.000"/>
<rect x="13" y="18" width="1" height="1" fill="rgb(204,165,58)" fill-opacity="1.000"/>
<rect x="14" y="18" width="1" height="1" fill="rgb(206,169,60)" fill-opacity="1.000"/>
<rect x="15" y="18" width="1" height="1" fill="rgb(251,222,126)" fill-opacity="1.000"/>
<rect x="16" y="18" width="1" height="1" fill="rgb(61,48,18)" fill-opacity="1.000"/>
<rect x="2" y="19" width="1" height="1" fill="rgb(61,48,18)" fill-opacity="1.000"/>
<rect x="3" y="19" width="1" height="1" fill="rgb(204,174,72)" fill-opacity="1.000"/>
<rect x="4" y="19" width="1" height="1" fill="rgb(236,197,70)" fill-opacity="1.000"/>
<rect x="5" y="19" width="1" height="1" fill="rgb(161,131,46)" fill-opacity="1.000"/>
<rect x="6" y="19" width="1" height="1" fill="rgb(185,149,53)" fill-opacity="1.000"/>
<rect x="7" y="19" width="1" height="1" fill="rgb(192,166,83)" fill-opacity="1.000"/>
<rect x="8" y="19" width="1" height="1" fill="rgb(230,200,99)" fill-opacity="1.000"/>
<rect x="9" y="19" width="1" height="1" fill="rgb(211,178,84)" fill-opacity="1.000"/>
<rect x="10" y="19" width="1" height="1" fill="rgb(218,179,81)" fill-opacity="1.000"/>
<rect x="11" y="19" width="1" height="1" fill="rgb(220,186,87)" fill-opacity="1.000"/>
<rect x="12" y="19" width="1" height="1" fill="rgb(199,169,88)" fill-opacity="1.000"/>
<rect x="13" y="19" width="1" height="1" fill="rgb(208,173,73)" fill-opacity="1.000"/>
<rect x="14" y="19" width="1" height="1" fill="rgb(217,184,89)" fill-opacity="1.000"/>
<rect x="15" y="19" width="1" height="1" fill="rgb(206,179,92)" fill-opacity="1.000"/>
<rect x="16" y="19" width="1" height="1" fill="rgb(61,48,18)" fill-opacity="1.000"/>
<rect x="2" y="20" width="1" height="1" fill="rgb(111,86,26)" fill-opacity="1.000"/>
<rect x="3" y="20" width="1" height="1" fill="rgb(203,171,58)" fill-opacity="1.000"/>
<rect x="4" y="20" width="1" height="1" fill="rgb(207,176,79)" fill-opacity="1.000"/>
<rect x="5" y="20" width="1" height="1" fill="rgb(225,187,78)" fill-opacity="1.000"/>
<rect x="6" y="20" width="1" height="1" fill="rgb(236,196,82)" fill-opacity="1.000"/>
<rect x="7" y="20" width="1" height="1" fill="rgb(225,188,84)" fill-opacity="1.000"/>
<rect x="8" y="20" width="1" height="1" fill="rgb(226,185,79)" fill-opacity="1.000"/>
<rect x="9" y="20" width="1" height="1" fill="rgb(217,176,64)" fill-opacity="1.000"/>
<rect x="10" y="20" width="1" height="1" fill="rgb(198,163,65)" fill-opacity="1.000"/>
<rect x="11" y="20" width="1" height="1" fill="rgb(204,165,61)" fill-opacity="1.000"/>
<rect x="12" y="20" width="1" height="1" fill="rgb(200,166,72)" fill-opacity="1.000"/>
<rect x="13" y="20" width="1" height="1" fill="rgb(194,167,83)" fill-opacity="1.000"/>
<rect x="14" y="20" width="1" height="1" fill="rgb(205,177,89)" fill-opacity="1.000"/>
<rect x="15" y="20" width="1" height="1" fill="rgb(207,176,85)" fill-opacity="1.000"/>
<rect x="16" y="20" width="1" height="1" fill="rgb(80,62,21)" fill-opacity="1.000"/>
<rect x="2" y="21" width="1" height="1" fill="rgb(78,61,20)" fill-opacity="1.000"/>
<rect x="3" y="21" width="1" height="1" fill="rgb(185,152,59)" fill-opacity="1.000"/>
<rect x="4" y="21" width="1" height="1" fill="rgb(185,160,76)" fill-opacity="1.000"/>
<rect x="5" y="21" width="1" height="1" fill="rgb(188,155,69)" fill-opacity="1.000"/>
<rect x="6" y="21" width="1" height="1" fill="rgb(203,175,91)" fill-opacity="1.000"/>
<rect x="7" y="21" width="1" height="1" fill="rgb(235,196,88)" fill-opacity="1.000"/>
<rect x="8" y="21" width="1" height="1" fill="rgb(194,168,87)" fill-opacity="1.000"/>
<rect x="9" y="21" width="1" height="1" fill="rgb(224,200,109)" fill-opacity="1.000"/>
<rect x="10" y="21" width="1" height="1" fill="rgb(184,153,71)" fill-opacity="1.000"/>
<rect x="11" y="21" width="1" height="1" fill="rgb(186,158,74)" fill-opacity="1.000"/>
<rect x="12" y="21" width="1" height="1" fill="rgb(229,195,91)" fill-opacity="1.000"/>
<rect x="13" y="21" width="1" height="1" fill="rgb(192,169,90)" fill-opacity="1.000"/>
<rect x="14" y="21" width="1" height="1" fill="rgb(255,230,138)" fill-opacity="1.000"/>
<rect x="15" y="21" width="1" height="1" fill="rgb(224,190,93)" fill-opacity="1.000"/>
<rect x="16" y="21" width="1" height="1" fill="rgb(93,71,21)" fill-opacity="1.000"/>
<rect x="2" y="22" width="1" height="1" fill="rgb(81,66,28)" fill-opacity="1.000"/>
<rect x="3" y="22" width="1" height="1" fill="rgb(152,133,64)" fill-opacity="1.000"/>
<rect x="4" y="22" width="1" height="1" fill="rgb(114,97,46)" fill-opacity="1.000"/>
<rect x="5" y="22" width="1" height="1" fill="rgb(233,203,109)" fill-opacity="1.000"/>
<rect x="6" y="22" width="1" height="1" fill="rgb(205,172,77)" fill-opacity="1.000"/>
<rect x="7" y="22" width="1" height="1" fill="rgb(232,196,91)" fill-opacity="1.000"/>
<rect x="8" y="22" width="1" height="1" fill="rgb(226,188,80)" fill-opacity="1.000"/>
<rect x="9" y="22" width="1" height="1" fill="rgb(229,196,91)" fill-opacity="1.000"/>
<rect x="10" y="22" width="1" height="1" fill="rgb(218,185,88)" fill-opacity="1.000"/>
<rect x="11" y="22" width="1" height="1" fill="rgb(225,195,95)" fill-opacity="1.000"/>
<rect x="12" y="22" width="1" height="1" fill="rgb(216,184,83)" fill-opacity="1.000"/>
<rect x="13" y="22" width="1" height="1" fill="rgb(207,175,77)" fill-opacity="1.000"/>
<rect x="14" y="22" width="1" height="1" fill="rgb(203,176,92)" fill-opacity="1.000"/>
<rect x="15" y="22" width="1" height="1" fill="rgb(190,165,82)" fill-opacity="1.000"/>
<rect x="16" y="22" width="1" height="1" fill="rgb(61,48,18)" fill-opacity="1.000"/>
<rect x="2" y="23" width="1" height="1" fill="rgb(59,48,17)" fill-opacity="1.000"/>
<rect x="3" y="23" width="1" height="1" fill="rgb(48,39,15)" fill-opacity="1.000"/>
<rect x="4" y="23" width="1" height="1" fill="rgb(73,59,25)" fill-opacity="1.000"/>
<rect x="5" y="23" width="1" height="1" fill="rgb(89,74,34)" fill-opacity="1.000"/>
<rect x="6" y="23" width="1" height="1" fill="rgb(106,86,35)" fill-opacity="1.000"/>
<rect x="7" y="23" width="1" height="1" fill="rgb(66,52,19)" fill-opacity="1.000"/>
<rect x="8" y="23" width="1" height="1" fill="rgb(89,71,28)" fill-opacity="1.000"/>
<rect x="9" y="23" width="1" height="1" fill="rgb(84,65,23)" fill-opacity="1.000"/>
<rect x="10" y="23" width="1" height="1" fill="rgb(65,53,20)" fill-opacity="1.000"/>
<rect x="11" y="23" width="1" height="1" fill="rgb(65,53,22)" fill-opacity="1.000"/>
<rect x="12" y="23" width="1" height="1" fill="rgb(65,51,16)" fill-opacity="1.000"/>
<rect x="13" y="23" width="1" height="1" fill="rgb(73,56,16)" fill-opacity="1.000"/>
<rect x="14" y="23" width="1" height="1" fill="rgb(36,28,11)" fill-opacity="1.000"/>
<rect x="15" y="23" width="1" height="1" fill="rgb(48,39,15)" fill-opacity="1.000"/>
<rect x="16" y="23" width="1" height="1" fill="rgb(55,43,16)" fill-opacity="1.000"/>
<rect x="2" y="24" width="1" height="1" fill="rgb(44,35,13)" fill-opacity="1.000"/>
<rect x="3" y="24" width="1" height="1" fill="rgb(123,0,39)" fill-opacity="1.000"/>
<rect x="4" y="24" width="1" height="1" fill="rgb(137,0,43)" fill-opacity="1.000"/>
<rect x="5" y="24" width="1" height="1" fill="rgb(90,0,28)" fill-opacity="1.000"/>
<rect x="6" y="24" width="1" height="1" fill="rgb(124,0,39)" fill-opacity="1.000"/>
<rect x="7" y="24" width="1" height="1" fill="rgb(137,0,43)" fill-opacity="1.000"/>
<rect x="8" y="24" width="1" height="1" fill="rgb(124,0,39)" fill-opacity="1.000"/>
<rect x="9" y="24" width="1" height="1" fill="rgb(137,0,43)" fill-opacity="1.000"/>
<rect x="10" y="24" width="1" height="1" fill="rgb(111,0,35)" fill-opacity="1.000"/>
<rect x="11" y="24" width="1" height="1" fill="rgb(111,0,35)" fill-opacity="1.000"/>
<rect x="12" y="24" width="1" height="1" fill="rgb(100,0,32)" fill-opacity="1.000"/>
<rect x="13" y="24" width="1" height="1" fill="rgb(80,0,25)" fill-opacity="1.000"/>
<rect x="14" y="24" width="1" height="1" fill="rgb(123,0,39)" fill-opacity="1.000"/>
<rect x="15" y="24" width="1" height="1" fill="rgb(123,0,39)" fill-opacity="1.000"/>
<rect x="16" y="24" width="1" height="1" fill="rgb(44,35,13)" fill-opacity="1.000"/>
<rect x="2" y="25" width="1" height="1" fill="rgb(55,43,16)" fill-opacity="1.000"/>
<rect x="3" y="25" width="1" height="1" fill="rgb(28,22,8)" fill-opacity="1.000"/>
<rect x="4" y="25" width="1" height="1" fill="rgb(47,39,16)" fill-opacity="1.000"/>
<rect x="5" y="25" width="1" height="1" fill="rgb(44,35,13)" fill-opacity="1.000"/>
<rect x="6" y="25" width="1" height="1" fill="rgb(49,39,14)" fill-opacity="1.000"/>
<rect x="7" y="25" width="1" height="1" fill="rgb(61,48,18)" fill-opacity="1.000"/>
<rect x="8" y="25" width="1" height="1" fill="rgb(39,32,12)" fill-opacity="1.000"/>
<rect x="9" y="25" width="1" height="1" fill="rgb(58,47,17)" fill-opacity="1.000"/>
<rect x="10" y="25" width="1" height="1" fill="rgb(47,38,13)" fill-opacity="1.000"/>
<rect x="11" y="25" width="1" height="1" fill="rgb(34,27,10)" fill-opacity="1.000"/>
<rect x="12" y="25" width="1" height="1" fill="rgb(48,39,13)" fill-opacity="1.000"/>
<rect x="13" y="25" width="1" height="1" fill="rgb(31,25,9)" fill-opacity="1.000"/>
<rect x="14" y="25" width="1" height="1" fill="rgb(36,28,11)" fill-opacity="1.000"/>
<rect x="15" y="25" width="1" height="1" fill="rgb(49,39,15)" fill-opacity="1.000"/>
<rect x="16" y="25" width="1" height="1" fill="rgb(49,39,14)" fill-opacity="1.000"/>
<rect x="2" y="26" width="1" height="1" fill="rgb(55,43,16)" fill-opacity="1.000"/>
<rect x="3" y="26" width="1" height="1" fill="rgb(137,0,43)" fill-opacity="1.000"/>
<rect x="4" y="26" width="1" height="1" fill="rgb(111,0,35)" fill-opacity="1.000"/>
<rect x="5" y="26" width="1" height="1" fill="rgb(123,0,39)" fill-opacity="1.000"/>
<rect x="6" y="26" width="1" height="1" fill="rgb(124,0,39)" fill-opacity="1.000"/>
<rect x="7" y="26" width="1" height="1" fill="rgb(111,0,35)" fill-opacity="1.000"/>
<rect x="8" y="26" width="1" height="1" fill="rgb(111,0,35)" fill-opacity="1.000"/>
<rect x="9" y="26" width="1" height="1" fill="rgb(124,0,39)" fill-opacity="1.000"/>
<rect x="10" y="26" width="1" height="1" fill="rgb(100,0,31)" fill-opacity="1.000"/>
<rect x="11" y="26" width="1" height="1" fill="rgb(111,0,35)" fill-opacity="1.000"/>
<rect x="12" y="26" width="1" height="1" fill="rgb(111,0,35)" fill-opacity="1.000"/>
<rect x="13" y="26" width="1" height="1" fill="rgb(99,0,31)" fill-opacity="1.000"/>
<rect x="14" y="26" width="1" height="1" fill="rgb(153,0,48)" fill-opacity="1.000"/>
<rect x="15" y="26" width="1" height="1" fill="rgb(153,0,48)" fill-opacity="1.000"/>
<rect x="16" y="26" width="1" height="1" fill="rgb(65,50,17)" fill-opacity="1.000"/>
<rect x="1" y="27" width="1" height="1" fill="rgb(81,66,28)" fill-opacity="1.000"/>
<rect x="2" y="27" width="1" height="1" fill="rgb(86,71,27)" fill-opacity="1.000"/>
<rect x="3" y="27" width="1" height="1" fill="rgb(55,43,16)" fill-opacity="1.000"/>
<rect x="4" y="27" width="1" height="1" fill="rgb(111,89,33)" fill-opacity="1.000"/>
<rect x="5" y="27" width="1" height="1" fill="rgb(55,43,16)" fill-opacity="1.000"/>
<rect x="6" y="27" width="1" height="1" fill="rgb(91,73,25)" fill-opacity="1.000"/>
<rect x="7" y="27" width="1" height="1" fill="rgb(61,48,18)" fill-opacity="1.000"/>
<rect x="8" y="27" width="1" height="1" fill="rgb(64,53,22)" fill-opacity="1.000"/>
<rect x="9" y="27" width="1" height="1" fill="rgb(48,39,13)" fill-opacity="1.000"/>
<rect x="10" y="27" width="1" height="1" fill="rgb(57,45,15)" fill-opacity="1.000"/>
<rect x="11" y="27" width="1" height="1" fill="rgb(90,72,27)" fill-opacity="1.000"/>
<rect x="12" y="27" width="1" height="1" fill="rgb(64,53,22)" fill-opacity="1.000"/>
<rect x="13" y="27" width="1" height="1" fill="rgb(67,57,27)" fill-opacity="1.000"/>
<rect x="14" y="27" width="1" height="1" fill="rgb(40,31,12)" fill-opacity="1.000"/>
<rect x="15" y="27" width="1" height="1" fill="rgb(55,43,16)" fill-opacity="1.000"/>
<rect x="16" y="27" width="1" height="1" fill="rgb(58,45,15)" fill-opacity="1.000"/>
<rect x="17" y="27" width="1" height="1" fill="rgb(114,94,40)" fill-opacity="1.000"/>
<rect x="0" y="28" width="1" height="1" fill="rgb(98,79,31)" fill-opacity="1.000"/>
<rect x="1" y="28" width="1" height="1" fill="rgb(61,48,18)" fill-opacity="1.000"/>
<rect x="2" y="28" width="1" height="1" fill="rgb(157,136,65)" fill-opacity="1.000"/>
<rect x="3" y="28" width="1" height="1" fill="rgb(179,152,67)" fill-opacity="1.000"/>
<rect x="4" y="28" width="1" height="1" fill="rgb(170,148,68)" fill-opacity="1.000"/>
<rect x="5" y="28" width="1" height="1" fill="rgb(215,188,96)" fill-opacity="1.000"/>
<rect x="6" y="28" width="1" height="1" fill="rgb(194,163,76)" fill-opacity="1.000"/>
<rect x="7" y="28" width="1" height="1" fill="rgb(145,126,63)" fill-opacity="1.000"/>
<rect x="8" y="28" width="1" height="1" fill="rgb(184,161,88)" fill-opacity="1.000"/>
<rect x="9" y="28" width="1" height="1" fill="rgb(164,138,63)" fill-opacity="1.000"/>
<rect x="10" y="28" width="1" height="1" fill="rgb(192,167,86)" fill-opacity="1.000"/>
<rect x="11" y="28" width="1" height="1" fill="rgb(201,180,105)" fill-opacity="1.000"/>
<rect x="12" y="28" width="1" height="1" fill="rgb(130,116,65)" fill-opacity="1.000"/>
<rect x="13" y="28" width="1" height="1" fill="rgb(238,211,118)" fill-opacity="1.000"/>
<rect x="14" y="28" width="1" height="1" fill="rgb(237,207,111)" fill-opacity="1.000"/>
<rect x="15" y="28" width="1" height="1" fill="rgb(193,171,92)" fill-opacity="1.000"/>
<rect x="16" y="28" width="1" height="1" fill="rgb(201,180,105)" fill-opacity="1.000"/>
<rect x="17" y="28" width="1" height="1" fill="rgb(72,56,19)" fill-opacity="1.000"/>
<rect x="18" y="28" width="1" height="1" fill="rgb(61,48,18)" fill-opacity="1.000"/>
<rect x="0" y="29" width="1" height="1" fill="rgb(114,94,40)" fill-opacity="1.000"/>
<rect x="1" y="29" width="1" height="1" fill="rgb(194,167,77)" fill-opacity="1.000"/>
<rect x="2" y="29" width="1" height="1" fill="rgb(150,133,65)" fill-opacity="1.000"/>
<rect x="3" y="29" width="1" height="1" fill="rgb(189,163,75)" fill-opacity="1.000"/>
<rect x="4" y="29" width="1" height="1" fill="rgb(219,191,98)" fill-opacity="1.000"/>
<rect x="5" y="29" width="1" height="1" fill="rgb(240,217,124)" fill-opacity="1.000"/>
<rect x="6" y="29" width="1" height="1" fill="rgb(215,188,101)" fill-opacity="1.000"/>
<rect x="7" y="29" width="1" height="1" fill="rgb(180,155,78)" fill-opacity="1.000"/>
<rect x="8" y="29" width="1" height="1" fill="rgb(239,209,112)" fill-opacity="1.000"/>
<rect x="9" y="29" width="1" height="1" fill="rgb(213,186,95)" fill-opacity="1.000"/>
<rect x="10" y="29" width="1" height="1" fill="rgb(230,203,111)" fill-opacity="1.000"/>
<rect x="11" y="29" width="1" height="1" fill="rgb(197,171,86)" fill-opacity="1.000"/>
<rect x="12" y="29" width="1" height="1" fill="rgb(221,198,114)" fill-opacity="1.000"/>
<rect x="13" y="29" width="1" height="1" fill="rgb(239,215,125)" fill-opacity="1.000"/>
<rect x="14" y="29" width="1" height="1" fill="rgb(199,174,91)" fill-opacity="1.000"/>
<rect x="15" y="29" width="1" height="1" fill="rgb(181,163,93)" fill-opacity="1.000"/>
<rect x="16" y="29" width="1" height="1" fill="rgb(238,211,118)" fill-opacity="1.000"/>
<rect x="17" y="29" width="1" height="1" fill="rgb(254,226,129)" fill-opacity="1.000"/>
<rect x="18" y="29" width="1" height="1" fill="rgb(81,66,28)" fill-opacity="1.000"/>
<rect x="0" y="30" width="1" height="1" fill="rgb(96,79,30)" fill-opacity="1.000"/>
<rect x="1" y="30" width="1" height="1" fill="rgb(191,168,85)" fill-opacity="1.000"/>
<rect x="2" y="30" width="1" height="1" fill="rgb(207,184,93)" fill-opacity="1.000"/>
<rect x="3" y="30" width="1" height="1" fill="rgb(171,146,64)" fill-opacity="1.000"/>
<rect x="4" y="30" width="1" height="1" fill="rgb(178,160,87)" fill-opacity="1.000"/>
<rect x="5" y="30" width="1" height="1" fill="rgb(254,226,128)" fill-opacity="1.000"/>
<rect x="6" y="30" width="1" height="1" fill="rgb(254,227,126)" fill-opacity="1.000"/>
<rect x="7" y="30" width="1" height="1" fill="rgb(255,230,138)" fill-opacity="1.000"/>
<rect x="8" y="30" width="1" height="1" fill="rgb(181,161,90)" fill-opacity="1.000"/>
<rect x="9" y="30" width="1" height="1" fill="rgb(230,203,111)" fill-opacity="1.000"/>
<rect x="10" y="30" width="1" height="1" fill="rgb(204,181,96)" fill-opacity="1.000"/>
<rect x="11" y="30" width="1" height="1" fill="rgb(180,158,84)" fill-opacity="1.000"/>
<rect x="12" y="30" width="1" height="1" fill="rgb(227,204,115)" fill-opacity="1.000"/>
<rect x="13" y="30" width="1" height="1" fill="rgb(243,215,114)" fill-opacity="1.000"/>
<rect x="14" y="30" width="1" height="1" fill="rgb(205,184,101)" fill-opacity="1.000"/>
<rect x="15" y="30" width="1" height="1" fill="rgb(238,211,118)" fill-opacity="1.000"/>
<rect x="16" y="30" width="1" height="1" fill="rgb(201,180,104)" fill-opacity="1.000"/>
<rect x="17" y="30" width="1" height="1" fill="rgb(236,209,118)" fill-opacity="1.000"/>
<rect x="18" y="30" width="1" height="1" fill="rgb(61,48,18)" fill-opacity="1.000"/>
<rect x="0" y="31" width="1" height="1" fill="rgb(80,62,21)" fill-opacity="1.000"/>
<rect x="1" y="31" width="1" height="1" fill="rgb(113,98,46)" fill-opacity="1.000"/>
<rect x="2" y="31" width="1" height="1" fill="rgb(98,83,38)" fill-opacity="1.000"/>
<rect x="3" y="31" width="1" height="1" fill="rgb(112,90,34)" fill-opacity="1.000"/>
<rect x="4" y="31" width="1" height="1" fill="rgb(98,79,31)" fill-opacity="1.000"/>
<rect x="5" y="31" width="1" height="1" fill="rgb(97,83,38)" fill-opacity="1.000"/>
<rect x="6" y="31" width="1" height="1" fill="rgb(60,48,18)" fill-opacity="1.000"/>
<rect x="7" y="31" width="1" height="1" fill="rgb(79,62,21)" fill-opacity="1.000"/>
<rect x="8" y="31" width="1" height="1" fill="rgb(60,48,18)" fill-opacity="1.000"/>
<rect x="9" y="31" width="1" height="1" fill="rgb(99,82,37)" fill-opacity="1.000"/>
<rect x="10" y="31" width="1" height="1" fill="rgb(80,62,21)" fill-opacity="1.000"/>
<rect x="11" y="31" width="1" height="1" fill="rgb(114,94,40)" fill-opacity="1.000"/>
<rect x="12" y="31" width="1" height="1" fill="rgb(78,61,20)" fill-opacity="1.000"/>
<rect x="13" y="31" width="1" height="1" fill="rgb(96,78,30)" fill-opacity="1.000"/>
<rect x="14" y="31" width="1" height="1" fill="rgb(127,108,48)" fill-opacity="1.000"/>
<rect x="15" y="31" width="1" height="1" fill="rgb(79,66,27)" fill-opacity="1.000"/>
<rect x="16" y="31" width="1" height="1" fill="rgb(97,79,31)" fill-opacity="1.000"/>
<rect x="17" y="31" width="1" height="1" fill="rgb(81,66,28)" fill-opacity="1.000"/>
<rect x="18" y="31" width="1" height="1" fill="rgb(61,48,18)" fill-opacity="1.000"/>
</svg>