<svg xmlns="http://www.w3.org/2000/svg" width="19" height="33" shape-rendering="crispEdges">
<rect x="8" y="1" width="1" height="1" fill="rgb(3,4,10)" fill-opacity="1.000"/>
<rect x="9" y="1" width="1" height="1" fill="rgb(9,12,33)" fill-opacity="1.000"/>
<rect x="10" y="1" width="1" height="1" fill="rgb(12,17,41)" fill-opacity="1.000"/>
<rect x="11" y="1" width="1" height="1" fill="rgb(0,0,0)" fill-opacity="1.000"/>
<rect x="7" y="2" width="1" height="1" fill="rgb(7,9,24)" fill-opacity="1.000"/>
<rect x="8" y="2" width="1" height="1" fill="rgb(43,59,117)" fill-opacity="1.000"/>
<rect x="9" y="2" width="1" height="1" fill="rgb(33,45,88)" fill-opacity="1.000"/>
<rect x="10" y="2" width="1" height="1" fill="rgb(45,61,128)" fill-opacity="1.000"/>
<rect x="11" y="2" width="1" height="1" fill="rgb(16,22,57)" fill-opacity="1.000"/>
<rect x="12" y="2" width="1" height="1" fill="rgb(7,10,26)" fill-opacity="1.000"/>
<rect x="7" y="3" width="1" height="1" fill="rgb(19,27,58)" fill-opacity="1.000"/>
<rect x="8" y="3" width="1" height="1" fill="rgb(38,53,103)" fill-opacity="1.000"/>
<rect x="9" y="3" width="1" height="1" fill="rgb(38,53,112)" fill-opacity="1.000"/>
<rect x="10" y="3" width="1" height="1" fill="rgb(46,64,130)" fill-opacity="1.000"/>
<rect x="11" y="3" width="1" height="1" fill="rgb(38,52,96)" fill-opacity="1.000"/>
<rect x="12" y="3" width="1" height="1" fill="rgb(0,0,0)" fill-opacity="1.000"/>
<rect x="7" y="4" width="1" height="1" fill="rgb(1,1,1)" fill-opacity="1.000"/>
<rect x="8" y="4" width="1" height="1" fill="rgb(35,48,95)" fill-opacity="1.000"/>
<rect x="9" y="4" width="1" height="1" fill="rgb(41,55,111)" fill-opacity="1.000"/>
<rect x="10" y="4" width="1" height="1" fill="rgb(36,50,104)" fill-opacity="1.000"/>
<rect x="11" y="4" width="1" height="1" fill="rgb(12,17,40)" fill-opacity="1.000"/>
<rect x="5" y="5" width="1" height="1" fill="rgb(0,0,0)" fill-opacity="1.000"/>
<rect x="7" y="5" width="1" height="1" fill="rgb(3,4,9)" fill-opacity="1.000"/>
<rect x="8" y="5" width="1" height="1" fill="rgb(40,54,111)" fill-opacity="1.000"/>
<rect x="9" y="5" width="1" height="1" fill="rgb(31,43,86)" fill-opacity="1.000"/>
<rect x="10" y="5" width="1" height="1" fill="rgb(32,45,89)" fill-opacity="1.000"/>
<rect x="11" y="5" width="1" height="1" fill="rgb(5,7,18)" fill-opacity="1.000"/>
<rect x="12" y="5" width="1" height="1" fill="rgb(16,23,54)" fill-opacity="1.000"/>
<rect x="13" y="5" width="1" height="1" fill="rgb(0,0,0)" fill-opacity="1.000"/>
<rect x="4" y="6" width="1" height="1" fill="rgb(0,0,0)" fill-opacity="1.000"/>
<rect x="5" y="6" width="1" height="1" fill="rgb(11,15,37)" fill-opacity="1.000"/>
<rect x="7" y="6" width="1" height="1" fill="rgb(25,34,76)" fill-opacity="1.000"/>
<rect x="8" y="6" width="1" height="1" fill="rgb(42,57,125)" fill-opacity="1.000"/>
<rect x="9" y="6" width="1" height="1" fill="rgb(42,57,127)" fill-opacity="1.000"/>
<rect x="10" y="6" width="1" height="1" fill="rgb(33,45,86)" fill-opacity="1.000"/>
<rect x="11" y="6" width="1" height="1" fill="rgb(33,46,95)" fill-opacity="1.000"/>
<rect x="12" y="6" width="1" height="1" fill="rgb(38,52,103)" fill-opacity="1.000"/>
<rect x="13" y="6" width="1" height="1" fill="rgb(3,4,10)" fill-opacity="1.000"/>
<rect x="14" y="6" width="1" height="1" fill="rgb(0,0,0)" fill-opacity="1.000"/>
<rect x="4" y="7" width="1" height="1" fill="rgb(3,4,10)" fill-opacity="1.000"/>
<rect x="5" y="7" width="1" height="1" fill="rgb(13,18,37)" fill-opacity="1.000"/>
<rect x="7" y="7" width="1" height="1" fill="rgb(20,28,70)" fill-opacity="1.000"/>
<rect x="8" y="7" width="1" height="1" fill="rgb(28,38,84)" fill-opacity="1.000"/>
<rect x="9" y="7" width="1" height="1" fill="rgb(31,42,94)" fill-opacity="1.000"/>
<rect x="10" y="7" width="1" height="1" fill="rgb(39,55,110)" fill-opacity="1.000"/>
<rect x="11" y="7" width="1" height="1" fill="rgb(34,48,100)" fill-opacity="1.000"/>
<rect x="12" y="7" width="1" height="1" fill="rgb(38,52,94)" fill-opacity="1.000"/>
<rect x="13" y="7" width="1" height="1" fill="rgb(34,44,89)" fill-opacity="1.000"/>
<rect x="14" y="7" width="1" height="1" fill="rgb(3,4,9)" fill-opacity="1.000"/>
<rect x="15" y="7" width="1" height="1" fill="rgb(1,1,1)" fill-opacity="1.000"/>
<rect x="3" y="8" width="1" height="1" fill="rgb(13,18,40)" fill-opacity="1.000"/>
<rect x="4" y="8" width="1" height="1" fill="rgb(40,55,100)" fill-opacity="1.000"/>
<rect x="5" y="8" width="1" height="1" fill="rgb(13,18,37)" fill-opacity="1.000"/>
<rect x="7" y="8" width="1" height="1" fill="rgb(13,18,37)" fill-opacity="1.000"/>
<rect x="8" y="8" width="1" height="1" fill="rgb(23,31,68)" fill-opacity="1.000"/>
<rect x="9" y="8" width="1" height="1" fill="rgb(44,61,142)" fill-opacity="1.000"/>
<rect x="10" y="8" width="1" height="1" fill="rgb(34,48,109)" fill-opacity="1.000"/>
<rect x="11" y="8" width="1" height="1" fill="rgb(35,49,98)" fill-opacity="1.000"/>
<rect x="12" y="8" width="1" height="1" fill="rgb(24,31,72)" fill-opacity="1.000"/>
<rect x="13" y="8" width="1" height="1" fill="rgb(33,47,102)" fill-opacity="1.000"/>
<rect x="14" y="8" width="1" height="1" fill="rgb(38,52,102)" fill-opacity="1.000"/>
<rect x="15" y="8" width="1" height="1" fill="rgb(1,1,1)" fill-opacity="1.000"/>
<rect x="3" y="9" width="1" height="1" fill="rgb(7,9,24)" fill-opacity="1.000"/>
<rect x="4" y="9" width="1" height="1" fill="rgb(36,50,114)" fill-opacity="1.000"/>
<rect x="5" y="9" width="1" height="1" fill="rgb(13,18,37)" fill-opacity="1.000"/>
<rect x="7" y="9" width="1" height="1" fill="rgb(13,18,37)" fill-opacity="1.000"/>
<rect x="8" y="9" width="1" height="1" fill="rgb(29,39,91)" fill-opacity="1.000"/>
<rect x="9" y="9" width="1" height="1" fill="rgb(30,41,92)" fill-opacity="1.000"/>
<rect x="10" y="9" width="1" height="1" fill="rgb(27,37,72)" fill-opacity="1.000"/>
<rect x="11" y="9" width="1" height="1" fill="rgb(36,49,115)" fill-opacity="1.000"/>
<rect x="12" y="9" width="1" height="1" fill="rgb(28,40,93)" fill-opacity="1.000"/>
<rect x="13" y="9" width="1" height="1" fill="rgb(24,34,73)" fill-opacity="1.000"/>
<rect x="14" y="9" width="1" height="1" fill="rgb(37,51,115)" fill-opacity="1.000"/>
<rect x="15" y="9" width="1" height="1" fill="rgb(20,27,70)" fill-opacity="1.000"/>
<rect x="3" y="10" width="1" height="1" fill="rgb(17,23,55)" fill-opacity="1.000"/>
<rect x="4" y="10" width="1" height="1" fill="rgb(38,51,110)" fill-opacity="1.000"/>
<rect x="5" y="10" width="1" height="1" fill="rgb(0,0,0)" fill-opacity="1.000"/>
<rect x="7" y="10" width="1" height="1" fill="rgb(13,18,37)" fill-opacity="1.000"/>
<rect x="8" y="10" width="1" height="1" fill="rgb(33,44,98)" fill-opacity="1.000"/>
<rect x="9" y="10" width="1" height="1" fill="rgb(29,39,92)" fill-opacity="1.000"/>
<rect x="10" y="10" width="1" height="1" fill="rgb(19,26,64)" fill-opacity="1.000"/>
<rect x="11" y="10" width="1" height="1" fill="rgb(21,30,73)" fill-opacity="1.000"/>
<rect x="12" y="10" width="1" height="1" fill="rgb(25,35,81)" fill-opacity="1.000"/>
<rect x="13" y="10" width="1" height="1" fill="rgb(27,38,79)" fill-opacity="1.000"/>
<rect x="14" y="10" width="1" height="1" fill="rgb(32,43,102)" fill-opacity="1.000"/>
<rect x="15" y="10" width="1" height="1" fill="rgb(7,9,24)" fill-opacity="1.000"/>
<rect x="3" y="11" width="1" height="1" fill="rgb(5,7,18)" fill-opacity="1.000"/>
<rect x="4" y="11" width="1" height="1" fill="rgb(43,59,120)" fill-opacity="1.000"/>
<rect x="5" y="11" width="1" height="1" fill="rgb(13,18,37)" fill-opacity="1.000"/>
<rect x="7" y="11" width="1" height="1" fill="rgb(8,11,25)" fill-opacity="1.000"/>
<rect x="8" y="11" width="1" height="1" fill="rgb(32,44,100)" fill-opacity="1.000"/>
<rect x="9" y="11" width="1" height="1" fill="rgb(24,35,80)" fill-opacity="1.000"/>
<rect x="10" y="11" width="1" height="1" fill="rgb(31,43,99)" fill-opacity="1.000"/>
<rect x="11" y="11" width="1" height="1" fill="rgb(17,26,62)" fill-opacity="1.000"/>
<rect x="12" y="11" width="1" height="1" fill="rgb(21,30,76)" fill-opacity="1.000"/>
<rect x="13" y="11" width="1" height="1" fill="rgb(25,36,82)" fill-opacity="1.000"/>
<rect x="14" y="11" width="1" height="1" fill="rgb(37,49,110)" fill-opacity="1.000"/>
<rect x="15" y="11" width="1" height="1" fill="rgb(14,19,51)" fill-opacity="1.000"/>
<rect x="3" y="12" width="1" height="1" fill="rgb(21,28,64)" fill-opacity="1.000"/>
<rect x="4" y="12" width="1" height="1" fill="rgb(40,54,103)" fill-opacity="1.000"/>
<rect x="5" y="12" width="1" height="1" fill="rgb(0,0,0)" fill-opacity="1.000"/>
<rect x="6" y="12" width="1" height="1" fill="rgb(13,18,37)" fill-opacity="1.000"/>
<rect x="7" y="12" width="1" height="1" fill="rgb(13,18,37)" fill-opacity="1.000"/>
<rect x="8" y="12" width="1" height="1" fill="rgb(37,52,115)" fill-opacity="1.000"/>
<rect x="9" y="12" width="1" height="1" fill="rgb(26,37,92)" fill-opacity="1.000"/>
<rect x="10" y="12" width="1" height="1" fill="rgb(19,27,63)" fill-opacity="1.000"/>
<rect x="11" y="12" width="1" height="1" fill="rgb(26,36,84)" fill-opacity="1.000"/>
<rect x="12" y="12" width="1" height="1" fill="rgb(31,43,100)" fill-opacity="1.000"/>
<rect x="13" y="12" width="1" height="1" fill="rgb(22,33,78)" fill-opacity="1.000"/>
<rect x="14" y="12" width="1" height="1" fill="rgb(27,38,87)" fill-opacity="1.000"/>
<rect x="15" y="12" width="1" height="1" fill="rgb(5,7,18)" fill-opacity="1.000"/>
<rect x="3" y="13" width="1" height="1" fill="rgb(14,19,44)" fill-opacity="1.000"/>
<rect x="4" y="13" width="1" height="1" fill="rgb(43,59,117)" fill-opacity="1.000"/>
<rect x="5" y="13" width="1" height="1" fill="rgb(42,57,122)" fill-opacity="1.000"/>
<rect x="6" y="13" width="1" height="1" fill="rgb(0,0,0)" fill-opacity="1.000"/>
<rect x="7" y="13" width="1" height="1" fill="rgb(31,42,82)" fill-opacity="1.000"/>
<rect x="8" y="13" width="1" height="1" fill="rgb(25,38,90)" fill-opacity="1.000"/>
<rect x="9" y="13" width="1" height="1" fill="rgb(35,49,108)" fill-opacity="1.000"/>
<rect x="10" y="13" width="1" height="1" fill="rgb(19,27,63)" fill-opacity="1.000"/>
<rect x="11" y="13" width="1" height="1" fill="rgb(23,36,79)" fill-opacity="1.000"/>
<rect x="12" y="13" width="1" height="1" fill="rgb(31,44,105)" fill-opacity="1.000"/>
<rect x="13" y="13" width="1" height="1" fill="rgb(26,37,83)" fill-opacity="1.000"/>
<rect x="14" y="13" width="1" height="1" fill="rgb(30,42,89)" fill-opacity="1.000"/>
<rect x="15" y="13" width="1" height="1" fill="rgb(7,9,24)" fill-opacity="1.000"/>
<rect x="3" y="14" width="1" height="1" fill="rgb(14,19,44)" fill-opacity="1.000"/>
<rect x="4" y="14" width="1" height="1" fill="rgb(0,0,0)" fill-opacity="1.000"/>
<rect x="5" y="14" width="1" height="1" fill="rgb(42,57,103)" fill-opacity="1.000"/>
<rect x="6" y="14" width="1" height="1" fill="rgb(35,47,102)" fill-opacity="1.000"/>
<rect x="7" y="14" width="1" height="1" fill="rgb(29,39,91)" fill-opacity="1.000"/>
<rect x="8" y="14" width="1" height="1" fill="rgb(25,32,69)" fill-opacity="1.000"/>
<rect x="9" y="14" width="1" height="1" fill="rgb(42,58,130)" fill-opacity="1.000"/>
<rect x="10" y="14" width="1" height="1" fill="rgb(30,43,85)" fill-opacity="1.000"/>
<rect x="11" y="14" width="1" height="1" fill="rgb(20,29,70)" fill-opacity="1.000"/>
<rect x="12" y="14" width="1" height="1" fill="rgb(28,41,93)" fill-opacity="1.000"/>
<rect x="13" y="14" width="1" height="1" fill="rgb(26,36,78)" fill-opacity="1.000"/>
<rect x="14" y="14" width="1" height="1" fill="rgb(15,22,55)" fill-opacity="1.000"/>
<rect x="15" y="14" width="1" height="1" fill="rgb(5,7,18)" fill-opacity="1.000"/>
<rect x="4" y="15" width="1" height="1" fill="rgb(9,12,33)" fill-opacity="1.000"/>
<rect x="5" y="15" width="1" height="1" fill="rgb(11,14,39)" fill-opacity="1.000"/>
<rect x="6" y="15" width="1" height="1" fill="rgb(34,47,94)" fill-opacity="1.000"/>
<rect x="7" y="15" width="1" height="1" fill="rgb(43,59,127)" fill-opacity="1.000"/>
<rect x="8" y="15" width="1" height="1" fill="rgb(38,51,102)" fill-opacity="1.000"/>
<rect x="9" y="15" width="1" height="1" fill="rgb(25,36,80)" fill-opacity="1.000"/>
<rect x="10" y="15" width="1" height="1" fill="rgb(21,30,63)" fill-opacity="1.000"/>
<rect x="11" y="15" width="1" height="1" fill="rgb(37,51,115)" fill-opacity="1.000"/>
<rect x="12" y="15" width="1" height="1" fill="rgb(37,51,93)" fill-opacity="1.000"/>
<rect x="13" y="15" width="1" height="1" fill="rgb(8,11,28)" fill-opacity="1.000"/>
<rect x="5" y="16" width="1" height="1" fill="rgb(11,15,37)" fill-opacity="1.000"/>
<rect x="6" y="16" width="1" height="1" fill="rgb(39,55,115)" fill-opacity="1.000"/>
<rect x="7" y="16" width="1" height="1" fill="rgb(34,47,92)" fill-opacity="1.000"/>
<rect x="8" y="16" width="1" height="1" fill="rgb(31,45,96)" fill-opacity="1.000"/>
<rect x="9" y="16" width="1" height="1" fill="rgb(27,37,78)" fill-opacity="1.000"/>
<rect x="10" y="16" width="1" height="1" fill="rgb(31,45,91)" fill-opacity="1.000"/>
<rect x="11" y="16" width="1" height="1" fill="rgb(28,40,76)" fill-opacity="1.000"/>
<rect x="12" y="16" width="1" height="1" fill="rgb(27,38,87)" fill-opacity="1.000"/>
<rect x="13" y="16" width="1" height="1" fill="rgb(6,9,23)" fill-opacity="1.000"/>
<rect x="3" y="17" width="1" height="1" fill="rgb(0,0,0)" fill-opacity="1.000"/>
<rect x="4" y="17" width="1" height="1" fill="rgb(0,0,0)" fill-opacity="1.000"/>
<rect x="5" y="17" width="1" height="1" fill="rgb(5,7,18)" fill-opacity="1.000"/>
<rect x="6" y="17" width="1" height="1" fill="rgb(8,11,25)" fill-opacity="1.000"/>
<rect x="7" y="17" width="1" height="1" fill="rgb(8,11,30)" fill-opacity="1.000"/>
<rect x="8" y="17" width="1" height="1" fill="rgb(2,3,7)" fill-opacity="1.000"/>
<rect x="9" y="17" width="1" height="1" fill="rgb(9,13,35)" fill-opacity="1.000"/>
<rect x="10" y="17" width="1" height="1" fill="rgb(5,6,16)" fill-opacity="1.000"/>
<rect x="11" y="17" width="1" height="1" fill="rgb(3,5,13)" fill-opacity="1.000"/>
<rect x="12" y="17" width="1" height="1" fill="rgb(5,6,16)" fill-opacity="1.000"/>
<rect x="13" y="17" width="1" height="1" fill="rgb(5,7,18)" fill-opacity="1.000"/>
<rect x="14" y="17" width="1" height="1" fill="rgb(0,0,0)" fill-opacity="1.000"/>
<rect x="15" y="17" width="1" height="1" fill="rgb(0,0,0)" fill-opacity="1.000"/>
<rect x="2" y="18" width="1" height="1" fill="rgb(0,0,0)" fill-opacity="1.000"/>
<rect x="3" y="18" width="1" height="1" fill="rgb(40,54,96)" fill-opacity="1.000"/>
<rect x="4" y="18" width="1" height="1" fill="rgb(36,49,95)" fill-opacity="1.000"/>
<rect x="5" y="18" width="1" height="1" fill="rgb(36,49,86)" fill-opacity="1.000"/>
<rect x="6" y="18" width="1" height="1" fill="rgb(43,59,111)" fill-opacity="1.000"/>
<rect x="7" y="18" width="1" height="1" fill="rgb(38,51,104)" fill-opacity="1.000"/>
<rect x="8" y="18" width="1" height="1" fill="rgb(29,41,76)" fill-opacity="1.000"/>
<rect x="9" y="18" width="1" height="1" fill="rgb(35,48,90)" fill-opacity="1.000"/>
<rect x="10" y="18" width="1" height="1" fill="rgb(35,48,93)" fill-opacity="1.000"/>
<rect x="11" y="18" width="1" height="1" fill="rgb(24,33,65)" fill-opacity="1.000"/>
<rect x="12" y="18" width="1" height="1" fill="rgb(35,48,93)" fill-opacity="1.000"/>
<rect x="13" y="18" width="1" height="1" fill="rgb(35,48,86)" fill-opacity="1.000"/>
<rect x="14" y="18" width="1" height="1" fill="rgb(45,61,107)" fill-opacity="1.000"/>
<rect x="15" y="18" width="1" height="1" fill="rgb(45,61,107)" fill-opacity="1.000"/>
<rect x="16" y="18" width="1" height="1" fill="rgb(0,0,0)" fill-opacity="1.000"/>
<rect x="3" y="19" width="1" height="1" fill="rgb(8,11,25)" fill-opacity="1.000"/>
<rect x="4" y="19" width="1" height="1" fill="rgb(4,6,12)" fill-opacity="1.000"/>
<rect x="5" y="19" width="1" height="1" fill="rgb(10,14,33)" fill-opacity="1.000"/>
<rect x="6" y="19" width="1" height="1" fill="rgb(20,28,64)" fill-opacity="1.000"/>
<rect x="7" y="19" width="1" height="1" fill="rgb(16,23,54)" fill-opacity="1.000"/>
<rect x="8" y="19" width="1" height="1" fill="rgb(5,7,17)" fill-opacity="1.000"/>
<rect x="9" y="19" width="1" height="1" fill="rgb(8,11,29)" fill-opacity="1.000"/>
<rect x="10" y="19" width="1" height="1" fill="rgb(11,16,43)" fill-opacity="1.000"/>
<rect x="11" y="19" width="1" height="1" fill="rgb(3,4,10)" fill-opacity="1.000"/>
<rect x="12" y="19" width="1" height="1" fill="rgb(5,6,16)" fill-opacity="1.000"/>
<rect x="13" y="19" width="1" height="1" fill="rgb(0,0,1)" fill-opacity="1.000"/>
<rect x="14" y="19" width="1" height="1" fill="rgb(0,0,0)" fill-opacity="1.000"/>
<rect x="15" y="19" width="1" height="1" fill="rgb(0,0,0)" fill-opacity="1.000"/>
<rect x="4" y="20" width="1" height="1" fill="rgb(6,9,20)" fill-opacity="1.000"/>
<rect x="5" y="20" width="1" height="1" fill="rgb(42,56,116)" fill-opacity="1.000"/>
<rect x="6" y="20" width="1" height="1" fill="rgb(35,48,110)" fill-opacity="1.000"/>
<rect x="7" y="20" width="1" height="1" fill="rgb(26,38,89)" fill-opacity="1.000"/>
<rect x="8" y="20" width="1" height="1" fill="rgb(26,36,81)" fill-opacity="1.000"/>
<rect x="9" y="20" width="1" height="1" fill="rgb(38,53,110)" fill-opacity="1.000"/>
<rect x="10" y="20" width="1" height="1" fill="rgb(22,32,63)" fill-opacity="1.000"/>
<rect x="11" y="20" width="1" height="1" fill="rgb(38,53,111)" fill-opacity="1.000"/>
<rect x="12" y="20" width="1" height="1" fill="rgb(35,48,105)" fill-opacity="1.000"/>
<rect x="13" y="20" width="1" height="1" fill="rgb(31,42,79)" fill-opacity="1.000"/>
<rect x="14" y="20" width="1" height="1" fill="rgb(0,0,0)" fill-opacity="1.000"/>
<rect x="4" y="21" width="1" height="1" fill="rgb(5,8,20)" fill-opacity="1.000"/>
<rect x="5" y="21" width="1" height="1" fill="rgb(25,35,78)" fill-opacity="1.000"/>
<rect x="6" y="21" width="1" height="1" fill="rgb(35,51,111)" fill-opacity="1.000"/>
<rect x="7" y="21" width="1" height="1" fill="rgb(30,41,98)" fill-opacity="1.000"/>
<rect x="8" y="21" width="1" height="1" fill="rgb(30,41,94)" fill-opacity="1.000"/>
<rect x="9" y="21" width="1" height="1" fill="rgb(22,31,71)" fill-opacity="1.000"/>
<rect x="10" y="21" width="1" height="1" fill="rgb(34,48,114)" fill-opacity="1.000"/>
<rect x="11" y="21" width="1" height="1" fill="rgb(36,51,123)" fill-opacity="1.000"/>
<rect x="12" y="21" width="1" height="1" fill="rgb(30,41,81)" fill-opacity="1.000"/>
<rect x="13" y="21" width="1" height="1" fill="rgb(33,46,93)" fill-opacity="1.000"/>
<rect x="14" y="21" width="1" height="1" fill="rgb(0,0,0)" fill-opacity="1.000"/>
<rect x="3" y="22" width="1" height="1" fill="rgb(14,18,36)" fill-opacity="1.000"/>
<rect x="4" y="22" width="1" height="1" fill="rgb(10,13,36)" fill-opacity="1.000"/>
<rect x="5" y="22" width="1" height="1" fill="rgb(31,45,91)" fill-opacity="1.000"/>
<rect x="6" y="22" width="1" height="1" fill="rgb(30,41,96)" fill-opacity="1.000"/>
<rect x="7" y="22" width="1" height="1" fill="rgb(36,48,115)" fill-opacity="1.000"/>
<rect x="8" y="22" width="1" height="1" fill="rgb(34,46,113)" fill-opacity="1.000"/>
<rect x="9" y="22" width="1" height="1" fill="rgb(41,57,136)" fill-opacity="1.000"/>
<rect x="10" y="22" width="1" height="1" fill="rgb(21,30,79)" fill-opacity="1.000"/>
<rect x="11" y="22" width="1" height="1" fill="rgb(25,35,85)" fill-opacity="1.000"/>
<rect x="12" y="22" width="1" height="1" fill="rgb(26,35,78)" fill-opacity="1.000"/>
<rect x="13" y="22" width="1" height="1" fill="rgb(39,53,120)" fill-opacity="1.000"/>
<rect x="14" y="22" width="1" height="1" fill="rgb(2,3,9)" fill-opacity="1.000"/>
<rect x="15" y="22" width="1" height="1" fill="rgb(16,22,44)" fill-opacity="1.000"/>
<rect x="2" y="23" width="1" height="1" fill="rgb(13,18,37)" fill-opacity="1.000"/>
<rect x="3" y="23" width="1" height="1" fill="rgb(17,26,55)" fill-opacity="1.000"/>
<rect x="4" y="23" width="1" height="1" fill="rgb(30,37,88)" fill-opacity="1.000"/>
<rect x="5" y="23" width="1" height="1" fill="rgb(26,33,80)" fill-opacity="1.000"/>
<rect x="6" y="23" width="1" height="1" fill="rgb(40,53,123)" fill-opacity="1.000"/>
<rect x="7" y="23" width="1" height="1" fill="rgb(26,32,78)" fill-opacity="1.000"/>
<rect x="8" y="23" width="1" height="1" fill="rgb(33,43,98)" fill-opacity="1.000"/>
<rect x="9" y="23" width="1" height="1" fill="rgb(40,54,118)" fill-opacity="1.000"/>
<rect x="10" y="23" width="1" height="1" fill="rgb(40,56,118)" fill-opacity="1.000"/>
<rect x="11" y="23" width="1" height="1" fill="rgb(36,48,104)" fill-opacity="1.000"/>
<rect x="12" y="23" width="1" height="1" fill="rgb(42,56,122)" fill-opacity="1.000"/>
<rect x="13" y="23" width="1" height="1" fill="rgb(30,37,88)" fill-opacity="1.000"/>
<rect x="14" y="23" width="1" height="1" fill="rgb(31,40,92)" fill-opacity="1.000"/>
<rect x="15" y="23" width="1" height="1" fill="rgb(5,7,14)" fill-opacity="1.000"/>
<rect x="16" y="23" width="1" height="1" fill="rgb(0,0,0)" fill-opacity="1.000"/>
<rect x="2" y="24" width="1" height="1" fill="rgb(10,13,25)" fill-opacity="1.000"/>
<rect x="3" y="24" width="1" height="1" fill="rgb(5,6,10)" fill-opacity="1.000"/>
<rect x="4" y="24" width="1" height="1" fill="rgb(5,5,5)" fill-opacity="1.000"/>
<rect x="5" y="24" width="1" height="1" fill="rgb(9,12,23)" fill-opacity="1.000"/>
<rect x="6" y="24" width="1" height="1" fill="rgb(3,3,3)" fill-opacity="1.000"/>
<rect x="7" y="24" width="1" height="1" fill="rgb(9,11,23)" fill-opacity="1.000"/>
<rect x="8" y="24" width="1" height="1" fill="rgb(14,19,37)" fill-opacity="1.000"/>
<rect x="9" y="24" width="1" height="1" fill="rgb(18,25,48)" fill-opacity="1.000"/>
<rect x="10" y="24" width="1" height="1" fill="rgb(1,1,1)" fill-opacity="1.000"/>
<rect x="11" y="24" width="1" height="1" fill="rgb(7,8,11)" fill-opacity="1.000"/>
<rect x="12" y="24" width="1" height="1" fill="rgb(20,27,54)" fill-opacity="1.000"/>
<rect x="13" y="24" width="1" height="1" fill="rgb(2,2,2)" fill-opacity="1.000"/>
<rect x="14" y="24" width="1" height="1" fill="rgb(13,18,37)" fill-opacity="1.000"/>
<rect x="15" y="24" width="1" height="1" fill="rgb(9,13,26)" fill-opacity="1.000"/>
<rect x="16" y="24" width="1" height="1" fill="rgb(10,13,25)" fill-opacity="1.000"/>
<rect x="2" y="25" width="1" height="1" fill="rgb(9,13,26)" fill-opacity="1.000"/>
<rect x="3" y="25" width="1" height="1" fill="rgb(121,98,44)" fill-opacity="1.000"/>
<rect x="4" y="25" width="1" height="1" fill="rgb(141,107,50)" fill-opacity="1.000"/>
<rect x="5" y="25" width="1" height="1" fill="rgb(185,133,46)" fill-opacity="1.000"/>
<rect x="6" y="25" width="1" height="1" fill="rgb(193,143,27)" fill-opacity="1.000"/>
<rect x="7" y="25" width="1" height="1" fill="rgb(163,127,48)" fill-opacity="1.000"/>
<rect x="8" y="25" width="1" height="1" fill="rgb(158,124,49)" fill-opacity="1.000"/>
<rect x="9" y="25" width="1" height="1" fill="rgb(155,117,57)" fill-opacity="1.000"/>
<rect x="10" y="25" width="1" height="1" fill="rgb(193,143,27)" fill-opacity="1.000"/>
<rect x="11" y="25" width="1" height="1" fill="rgb(187,140,67)" fill-opacity="1.000"/>
<rect x="12" y="25" width="1" height="1" fill="rgb(112,99,78)" fill-opacity="1.000"/>
<rect x="13" y="25" width="1" height="1" fill="rgb(214,159,30)" fill-opacity="1.000"/>
<rect x="14" y="25" width="1" height="1" fill="rgb(214,159,30)" fill-opacity="1.000"/>
<rect x="15" y="25" width="1" height="1" fill="rgb(170,126,62)" fill-opacity="1.000"/>
<rect x="16" y="25" width="1" height="1" fill="rgb(10,13,25)" fill-opacity="1.000"/>
<rect x="2" y="26" width="1" height="1" fill="rgb(16,23,47)" fill-opacity="1.000"/>
<rect x="3" y="26" width="1" height="1" fill="rgb(26,37,77)" fill-opacity="1.000"/>
<rect x="4" y="26" width="1" height="1" fill="rgb(13,18,37)" fill-opacity="1.000"/>
<rect x="5" y="26" width="1" height="1" fill="rgb(19,27,56)" fill-opacity="1.000"/>
<rect x="6" y="26" width="1" height="1" fill="rgb(22,31,64)" fill-opacity="1.000"/>
<rect x="7" y="26" width="1" height="1" fill="rgb(13,18,37)" fill-opacity="1.000"/>
<rect x="8" y="26" width="1" height="1" fill="rgb(5,7,14)" fill-opacity="1.000"/>
<rect x="9" y="26" width="1" height="1" fill="rgb(5,7,14)" fill-opacity="1.000"/>
<rect x="10" y="26" width="1" height="1" fill="rgb(9,13,26)" fill-opacity="1.000"/>
<rect x="11" y="26" width="1" height="1" fill="rgb(9,13,26)" fill-opacity="1.000"/>
<rect x="12" y="26" width="1" height="1" fill="rgb(6,8,15)" fill-opacity="1.000"/>
<rect x="13" y="26" width="1" height="1" fill="rgb(13,18,37)" fill-opacity="1.000"/>
<rect x="14" y="26" width="1" height="1" fill="rgb(24,34,71)" fill-opacity="1.000"/>
<rect x="15" y="26" width="1" height="1" fill="rgb(21,31,64)" fill-opacity="1.000"/>
<rect x="16" y="26" width="1" height="1" fill="rgb(16,23,47)" fill-opacity="1.000"/>
<rect x="2" y="27" width="1" height="1" fill="rgb(20,28,57)" fill-opacity="1.000"/>
<rect x="3" y="27" width="1" height="1" fill="rgb(214,159,30)" fill-opacity="1.000"/>
<rect x="4" y="27" width="1" height="1" fill="rgb(214,159,30)" fill-opacity="1.000"/>
<rect x="5" y="27" width="1" height="1" fill="rgb(169,138,85)" fill-opacity="1.000"/>
<rect x="6" y="27" width="1" height="1" fill="rgb(242,182,53)" fill-opacity="1.000"/>
<rect x="7" y="27" width="1" height="1" fill="rgb(128,107,64)" fill-opacity="1.000"/>
<rect x="8" y="27" width="1" height="1" fill="rgb(214,159,30)" fill-opacity="1.000"/>
<rect x="9" y="27" width="1" height="1" fill="rgb(132,104,59)" fill-opacity="1.000"/>
<rect x="10" y="27" width="1" height="1" fill="rgb(242,182,53)" fill-opacity="1.000"/>
<rect x="11" y="27" width="1" height="1" fill="rgb(139,114,90)" fill-opacity="1.000"/>
<rect x="12" y="27" width="1" height="1" fill="rgb(136,113,65)" fill-opacity="1.000"/>
<rect x="13" y="27" width="1" height="1" fill="rgb(204,160,65)" fill-opacity="1.000"/>
<rect x="14" y="27" width="1" height="1" fill="rgb(242,182,53)" fill-opacity="1.000"/>
<rect x="15" y="27" width="1" height="1" fill="rgb(204,160,65)" fill-opacity="1.000"/>
<rect x="16" y="27" width="1" height="1" fill="rgb(13,18,37)" fill-opacity="1.000"/>
<rect x="1" y="28" width="1" height="1" fill="rgb(13,18,37)" fill-opacity="1.000"/>
<rect x="2" y="28" width="1" height="1" fill="rgb(0,0,0)" fill-opacity="1.000"/>
<rect x="3" y="28" width="1" height="1" fill="rgb(13,13,13)" fill-opacity="1.000"/>
<rect x="4" y="28" width="1" height="1" fill="rgb(5,5,5)" fill-opacity="1.000"/>
<rect x="5" y="28" width="1" height="1" fill="rgb(9,13,26)" fill-opacity="1.000"/>
<rect x="6" y="28" width="1" height="1" fill="rgb(5,5,5)" fill-opacity="1.000"/>
<rect x="7" y="28" width="1" height="1" fill="rgb(5,5,5)" fill-opacity="1.000"/>
<rect x="8" y="28" width="1" height="1" fill="rgb(9,13,26)" fill-opacity="1.000"/>
<rect x="9" y="28" width="1" height="1" fill="rgb(20,28,57)" fill-opacity="1.000"/>
<rect x="10" y="28" width="1" height="1" fill="rgb(5,5,5)" fill-opacity="1.000"/>
<rect x="11" y="28" width="1" height="1" fill="rgb(5,7,14)" fill-opacity="1.000"/>
<rect x="12" y="28" width="1" height="1" fill="rgb(17,24,48)" fill-opacity="1.000"/>
<rect x="13" y="28" width="1" height="1" fill="rgb(13,13,13)" fill-opacity="1.000"/>
<rect x="14" y="28" width="1" height="1" fill="rgb(13,13,13)" fill-opacity="1.000"/>
<rect x="15" y="28" width="1" height="1" fill="rgb(13,13,13)" fill-opacity="1.000"/>
<rect x="16" y="28" width="1" height="1" fill="rgb(5,7,14)" fill-opacity="1.000"/>
<rect x="17" y="28" width="1" height="1" fill="rgb(5,7,14)" fill-opacity="1.000"/>
<rect x="0" y="29" width="1" height="1" fill="rgb(5,7,14)" fill-opacity="1.000"/>
<rect x="1" y="29" width="1" height="1" fill="rgb(14,18,36)" fill-opacity="1.000"/>
<rect x="2" y="29" width="1" height="1" fill="rgb(34,44,101)" fill-opacity="1.000"/>
<rect x="3" y="29" width="1" height="1" fill="rgb(34,45,101)" fill-opacity="1.000"/>
<rect x="4" y="29" width="1" height="1" fill="rgb(40,55,118)" fill-opacity="1.000"/>
<rect x="5" y="29" width="1" height="1" fill="rgb(40,53,113)" fill-opacity="1.000"/>
<rect x="6" y="29" width="1" height="1" fill="rgb(38,51,112)" fill-opacity="1.000"/>
<rect x="7" y="29" width="1" height="1" fill="rgb(40,53,114)" fill-opacity="1.000"/>
<rect x="8" y="29" width="1" height="1" fill="rgb(36,47,103)" fill-opacity="1.000"/>
<rect x="9" y="29" width="1" height="1" fill="rgb(30,37,88)" fill-opacity="1.000"/>
<rect x="10" y="29" width="1" height="1" fill="rgb(31,38,89)" fill-opacity="1.000"/>
<rect x="11" y="29" width="1" height="1" fill="rgb(41,56,117)" fill-opacity="1.000"/>
<rect x="12" y="29" width="1" height="1" fill="rgb(39,53,112)" fill-opacity="1.000"/>
<rect x="13" y="29" width="1" height="1" fill="rgb(38,52,111)" fill-opacity="1.000"/>
<rect x="14" y="29" width="1" height="1" fill="rgb(41,56,117)" fill-opacity="1.000"/>
<rect x="15" y="29" width="1" height="1" fill="rgb(32,41,94)" fill-opacity="1.000"/>
<rect x="16" y="29" width="1" height="1" fill="rgb(37,50,107)" fill-opacity="1.000"/>
<rect x="17" y="29" width="1" height="1" fill="rgb(0,0,0)" fill-opacity="1.000"/>
<rect x="18" y="29" width="1" height="1" fill="rgb(0,0,0)" fill-opacity="1.000"/>
<rect x="0" y="30" width="1" height="1" fill="rgb(0,0,0)" fill-opacity="1.000"/>
<rect x="1" y="30" width="1" height="1" fill="rgb(32,42,97)" fill-opacity="1.000"/>
<rect x="2" y="30" width="1" height="1" fill="rgb(35,46,104)" fill-opacity="1.000"/>
<rect x="3" y="30" width="1" height="1" fill="rgb(40,54,116)" fill-opacity="1.000"/>
<rect x="4" y="30" width="1" height="1" fill="rgb(37,50,110)" fill-opacity="1.000"/>
<rect x="5" y="30" width="1" height="1" fill="rgb(43,59,123)" fill-opacity="1.000"/>
<rect x="6" y="30" width="1" height="1" fill="rgb(33,42,97)" fill-opacity="1.000"/>
<rect x="7" y="30" width="1" height="1" fill="rgb(38,49,104)" fill-opacity="1.000"/>
<rect x="8" y="30" width="1" height="1" fill="rgb(41,55,116)" fill-opacity="1.000"/>
<rect x="9" y="30" width="1" height="1" fill="rgb(26,31,77)" fill-opacity="1.000"/>
<rect x="10" y="30" width="1" height="1" fill="rgb(34,45,101)" fill-opacity="1.000"/>
<rect x="11" y="30" width="1" height="1" fill="rgb(38,50,109)" fill-opacity="1.000"/>
<rect x="12" y="30" width="1" height="1" fill="rgb(31,40,93)" fill-opacity="1.000"/>
<rect x="13" y="30" width="1" height="1" fill="rgb(35,47,104)" fill-opacity="1.000"/>
<rect x="14" y="30" width="1" height="1" fill="rgb(30,37,88)" fill-opacity="1.000"/>
<rect x="15" y="30" width="1" height="1" fill="rgb(29,35,84)" fill-opacity="1.000"/>
<rect x="16" y="30" width="1" height="1" fill="rgb(32,40,90)" fill-opacity="1.000"/>
<rect x="17" y="30" width="1" height="1" fill="rgb(28,34,83)" fill-opacity="1.000"/>
<rect x="18" y="30" width="1" height="1" fill="rgb(0,0,0)" fill-opacity="1.000"/>
<rect x="0" y="31" width="1" height="1" fill="rgb(22,31,64)" fill-opacity="1.000"/>
<rect x="1" y="31" width="1" height="1" fill="rgb(24,27,71)" fill-opacity="1.000"/>
<rect x="2" y="31" width="1" height="1" fill="rgb(34,45,102)" fill-opacity="1.000"/>
<rect x="3" y="31" width="1" height="1" fill="rgb(31,38,89)" fill-opacity="1.000"/>
<rect x="4" y="31" width="1" height="1" fill="rgb(37,50,110)" fill-opacity="1.000"/>
<rect x="5" y="31" width="1" height="1" fill="rgb(34,45,102)" fill-opacity="1.000"/>
<rect x="6" y="31" width="1" height="1" fill="rgb(35,44,99)" fill-opacity="1.000"/>
<rect x="7" y="31" width="1" height="1" fill="rgb(31,40,93)" fill-opacity="1.000"/>
<rect x="8" y="31" width="1" height="1" fill="rgb(34,44,101)" fill-opacity="1.000"/>
<rect x="9" y="31" width="1" height="1" fill="rgb(38,51,109)" fill-opacity="1.000"/>
<rect x="10" y="31" width="1" height="1" fill="rgb(32,40,90)" fill-opacity="1.000"/>
<rect x="11" y="31" width="1" height="1" fill="rgb(35,46,102)" fill-opacity="1.000"/>
<rect x="12" y="31" width="1" height="1" fill="rgb(34,45,99)" fill-opacity="1.000"/>
<rect x="13" y="31" width="1" height="1" fill="rgb(38,51,109)" fill-opacity="1.000"/>
<rect x="14" y="31" width="1" height="1" fill="rgb(34,44,101)" fill-opacity="1.000"/>
<rect x="15" y="31" width="1" height="1" fill="rgb(33,43,98)" fill-opacity="1.000"/>
<rect x="16" y="31" width="1" height="1" fill="rgb(36,48,106)" fill-opacity="1.000"/>
<rect x="17" y="31" width="1" height="1" fill="rgb(31,38,89)" fill-opacity="1.000"/>
<rect x="18" y="31" width="1" height="1" fill="rgb(0,0,0)" fill-opacity="1.000"/>
<rect x="0" y="32" width="1" height="1" fill="rgb(0,0,0)" fill-opacity="1.000"/>
<rect x="1" y="32" width="1" height="1" fill="rgb(9,13,26)" fill-opacity="1.000"/>
<rect x="2" y="32" width="1" height="1" fill="rgb(9,13,26)" fill-opacity="1.000"/>
<rect x="3" y="32" width="1" height="1" fill="rgb(0,0,0)" fill-opacity="1.000"/>
<rect x="4" y="32" width="1" height="1" fill="rgb(16,23,47)" fill-opacity="1.000"/>
<rect x="5" y="32" width="1" height="1" fill="rgb(17,24,48)" fill-opacity="1.000"/>
<rect x="6" y="32" width="1" height="1" fill="rgb(13,18,37)" fill-opacity="1.000"/>
<rect x="7" y="32" width="1" height="1" fill="rgb(20,28,57)" fill-opacity="1.000"/>
<rect x="8" y="32" width="1" height="1" fill="rgb(9,13,26)" fill-opacity="1.000"/>
<rect x="9" y="32" width="1" height="1" fill="rgb(14,19,38)" fill-opacity="1.000"/>
<rect x="10" y="32" width="1" height="1" fill="rgb(19,27,56)" fill-opacity="1.000"/>
<rect x="11" y="32" width="1" height="1" fill="rgb(10,14,27)" fill-opacity="1.000"/>
<rect x="12" y="32" width="1" height="1" fill="rgb(23,32,65)" fill-opacity="1.000"/>
<rect x="13" y="32" width="1" height="1" fill="rgb(23,33,66)" fill-opacity="1.000"/>
<rect x="14" y="32" width="1" height="1" fill="rgb(17,24,48)" fill-opacity="1.000"/>
<rect x="15" y="32" width="1" height="1" fill="rgb(24,34,66)" fill-opacity="1.000"/>
<rect x="16" y="32" width="1" height="1" fill="rgb(0,0,0)" fill-opacity="1.000"/>
<rect x="17" y="32" width="1" height="1" fill="rgb(6,8,15)" fill-opacity="1.000"/>
<rect x="18" y="32" width="1" height="1" fill="rgb(0,0,0)" fill-opacity="1.000"/>
</svg>