<svg xmlns="http://www.w3.org/2000/svg" width="18" height="33" shape-rendering="crispEdges">
<rect x="8" y="1" width="1" height="1" fill="rgb(1,1,1)" fill-opacity="1.000"/>
<rect x="9" y="1" width="1" height="1" fill="rgb(0,0,0)" fill-opacity="1.000"/>
<rect x="7" y="2" width="1" height="1" fill="rgb(1,1,1)" fill-opacity="1.000"/>
<rect x="8" y="2" width="1" height="1" fill="rgb(218,164,48)" fill-opacity="1.000"/>
<rect x="9" y="2" width="1" height="1" fill="rgb(196,148,43)" fill-opacity="1.000"/>
<rect x="10" y="2" width="1" height="1" fill="rgb(1,1,1)" fill-opacity="1.000"/>
<rect x="7" y="3" width="1" height="1" fill="rgb(0,0,0)" fill-opacity="1.000"/>
<rect x="8" y="3" width="1" height="1" fill="rgb(132,104,59)" fill-opacity="1.000"/>
<rect x="9" y="3" width="1" height="1" fill="rgb(242,182,53)" fill-opacity="1.000"/>
<rect x="10" y="3" width="1" height="1" fill="rgb(1,1,1)" fill-opacity="1.000"/>
<rect x="6" y="4" width="1" height="1" fill="rgb(6,8,15)" fill-opacity="1.000"/>
<rect x="7" y="4" width="1" height="1" fill="rgb(1,1,1)" fill-opacity="1.000"/>
<rect x="8" y="4" width="1" height="1" fill="rgb(1,1,1)" fill-opacity="1.000"/>
<rect x="9" y="4" width="1" height="1" fill="rgb(0,0,0)" fill-opacity="1.000"/>
<rect x="10" y="4" width="1" height="1" fill="rgb(1,1,1)" fill-opacity="1.000"/>
<rect x="11" y="4" width="1" height="1" fill="rgb(6,8,15)" fill-opacity="1.000"/>
<rect x="5" y="5" width="1" height="1" fill="rgb(6,8,15)" fill-opacity="1.000"/>
<rect x="6" y="5" width="1" height="1" fill="rgb(47,64,127)" fill-opacity="1.000"/>
<rect x="7" y="5" width="1" height="1" fill="rgb(38,52,103)" fill-opacity="1.000"/>
<rect x="8" y="5" width="1" height="1" fill="rgb(42,55,110)" fill-opacity="1.000"/>
<rect x="9" y="5" width="1" height="1" fill="rgb(42,55,110)" fill-opacity="1.000"/>
<rect x="10" y="5" width="1" height="1" fill="rgb(43,57,113)" fill-opacity="1.000"/>
<rect x="11" y="5" width="1" height="1" fill="rgb(44,59,116)" fill-opacity="1.000"/>
<rect x="12" y="5" width="1" height="1" fill="rgb(6,8,15)" fill-opacity="1.000"/>
<rect x="4" y="6" width="1" height="1" fill="rgb(15,21,41)" fill-opacity="1.000"/>
<rect x="5" y="6" width="1" height="1" fill="rgb(44,59,117)" fill-opacity="1.000"/>
<rect x="6" y="6" width="1" height="1" fill="rgb(42,55,110)" fill-opacity="1.000"/>
<rect x="7" y="6" width="1" height="1" fill="rgb(46,62,122)" fill-opacity="1.000"/>
<rect x="8" y="6" width="1" height="1" fill="rgb(44,60,121)" fill-opacity="1.000"/>
<rect x="9" y="6" width="1" height="1" fill="rgb(33,45,91)" fill-opacity="1.000"/>
<rect x="10" y="6" width="1" height="1" fill="rgb(43,57,111)" fill-opacity="1.000"/>
<rect x="11" y="6" width="1" height="1" fill="rgb(44,59,117)" fill-opacity="1.000"/>
<rect x="12" y="6" width="1" height="1" fill="rgb(47,64,128)" fill-opacity="1.000"/>
<rect x="13" y="6" width="1" height="1" fill="rgb(3,5,11)" fill-opacity="1.000"/>
<rect x="3" y="7" width="1" height="1" fill="rgb(2,3,6)" fill-opacity="1.000"/>
<rect x="4" y="7" width="1" height="1" fill="rgb(47,63,124)" fill-opacity="1.000"/>
<rect x="5" y="7" width="1" height="1" fill="rgb(47,63,124)" fill-opacity="1.000"/>
<rect x="6" y="7" width="1" height="1" fill="rgb(42,55,110)" fill-opacity="1.000"/>
<rect x="7" y="7" width="1" height="1" fill="rgb(51,69,136)" fill-opacity="1.000"/>
<rect x="8" y="7" width="1" height="1" fill="rgb(38,52,103)" fill-opacity="1.000"/>
<rect x="9" y="7" width="1" height="1" fill="rgb(31,41,80)" fill-opacity="1.000"/>
<rect x="10" y="7" width="1" height="1" fill="rgb(47,63,124)" fill-opacity="1.000"/>
<rect x="11" y="7" width="1" height="1" fill="rgb(49,65,128)" fill-opacity="1.000"/>
<rect x="12" y="7" width="1" height="1" fill="rgb(42,55,110)" fill-opacity="1.000"/>
<rect x="13" y="7" width="1" height="1" fill="rgb(47,64,128)" fill-opacity="1.000"/>
<rect x="14" y="7" width="1" height="1" fill="rgb(0,0,0)" fill-opacity="1.000"/>
<rect x="3" y="8" width="1" height="1" fill="rgb(1,1,1)" fill-opacity="1.000"/>
<rect x="4" y="8" width="1" height="1" fill="rgb(43,58,115)" fill-opacity="1.000"/>
<rect x="5" y="8" width="1" height="1" fill="rgb(43,58,115)" fill-opacity="1.000"/>
<rect x="6" y="8" width="1" height="1" fill="rgb(43,58,115)" fill-opacity="1.000"/>
<rect x="7" y="8" width="1" height="1" fill="rgb(36,48,94)" fill-opacity="1.000"/>
<rect x="8" y="8" width="1" height="1" fill="rgb(42,57,112)" fill-opacity="1.000"/>
<rect x="9" y="8" width="1" height="1" fill="rgb(37,51,100)" fill-opacity="1.000"/>
<rect x="10" y="8" width="1" height="1" fill="rgb(42,55,110)" fill-opacity="1.000"/>
<rect x="11" y="8" width="1" height="1" fill="rgb(34,46,88)" fill-opacity="1.000"/>
<rect x="12" y="8" width="1" height="1" fill="rgb(46,62,121)" fill-opacity="1.000"/>
<rect x="13" y="8" width="1" height="1" fill="rgb(51,68,135)" fill-opacity="1.000"/>
<rect x="14" y="8" width="1" height="1" fill="rgb(6,8,15)" fill-opacity="1.000"/>
<rect x="3" y="9" width="1" height="1" fill="rgb(0,0,0)" fill-opacity="1.000"/>
<rect x="4" y="9" width="1" height="1" fill="rgb(47,64,127)" fill-opacity="1.000"/>
<rect x="5" y="9" width="1" height="1" fill="rgb(43,58,115)" fill-opacity="1.000"/>
<rect x="6" y="9" width="1" height="1" fill="rgb(51,68,135)" fill-opacity="1.000"/>
<rect x="7" y="9" width="1" height="1" fill="rgb(47,64,127)" fill-opacity="1.000"/>
<rect x="8" y="9" width="1" height="1" fill="rgb(36,48,97)" fill-opacity="1.000"/>
<rect x="9" y="9" width="1" height="1" fill="rgb(33,44,86)" fill-opacity="1.000"/>
<rect x="10" y="9" width="1" height="1" fill="rgb(43,57,113)" fill-opacity="1.000"/>
<rect x="11" y="9" width="1" height="1" fill="rgb(36,49,99)" fill-opacity="1.000"/>
<rect x="12" y="9" width="1" height="1" fill="rgb(34,46,88)" fill-opacity="1.000"/>
<rect x="13" y="9" width="1" height="1" fill="rgb(51,69,136)" fill-opacity="1.000"/>
<rect x="14" y="9" width="1" height="1" fill="rgb(0,0,0)" fill-opacity="1.000"/>
<rect x="2" y="10" width="1" height="1" fill="rgb(0,0,0)" fill-opacity="1.000"/>
<rect x="3" y="10" width="1" height="1" fill="rgb(2,3,6)" fill-opacity="1.000"/>
<rect x="4" y="10" width="1" height="1" fill="rgb(1,1,1)" fill-opacity="1.000"/>
<rect x="5" y="10" width="1" height="1" fill="rgb(40,55,107)" fill-opacity="1.000"/>
<rect x="6" y="10" width="1" height="1" fill="rgb(0,0,0)" fill-opacity="1.000"/>
<rect x="7" y="10" width="1" height="1" fill="rgb(42,55,110)" fill-opacity="1.000"/>
<rect x="8" y="10" width="1" height="1" fill="rgb(1,1,1)" fill-opacity="1.000"/>
<rect x="9" y="10" width="1" height="1" fill="rgb(6,8,15)" fill-opacity="1.000"/>
<rect x="10" y="10" width="1" height="1" fill="rgb(41,55,108)" fill-opacity="1.000"/>
<rect x="11" y="10" width="1" height="1" fill="rgb(7,10,19)" fill-opacity="1.000"/>
<rect x="12" y="10" width="1" height="1" fill="rgb(36,47,94)" fill-opacity="1.000"/>
<rect x="13" y="10" width="1" height="1" fill="rgb(6,8,15)" fill-opacity="1.000"/>
<rect x="14" y="10" width="1" height="1" fill="rgb(0,0,0)" fill-opacity="1.000"/>
<rect x="15" y="10" width="1" height="1" fill="rgb(0,0,0)" fill-opacity="1.000"/>
<rect x="1" y="11" width="1" height="1" fill="rgb(0,0,0)" fill-opacity="1.000"/>
<rect x="2" y="11" width="1" height="1" fill="rgb(51,69,136)" fill-opacity="1.000"/>
<rect x="3" y="11" width="1" height="1" fill="rgb(2,3,6)" fill-opacity="1.000"/>
<rect x="4" y="11" width="1" height="1" fill="rgb(47,63,124)" fill-opacity="1.000"/>
<rect x="5" y="11" width="1" height="1" fill="rgb(11,16,31)" fill-opacity="1.000"/>
<rect x="6" y="11" width="1" height="1" fill="rgb(51,68,135)" fill-opacity="1.000"/>
<rect x="7" y="11" width="1" height="1" fill="rgb(7,10,19)" fill-opacity="1.000"/>
<rect x="8" y="11" width="1" height="1" fill="rgb(42,55,110)" fill-opacity="1.000"/>
<rect x="9" y="11" width="1" height="1" fill="rgb(38,51,99)" fill-opacity="1.000"/>
<rect x="10" y="11" width="1" height="1" fill="rgb(1,1,1)" fill-opacity="1.000"/>
<rect x="11" y="11" width="1" height="1" fill="rgb(28,37,72)" fill-opacity="1.000"/>
<rect x="12" y="11" width="1" height="1" fill="rgb(2,3,6)" fill-opacity="1.000"/>
<rect x="13" y="11" width="1" height="1" fill="rgb(51,68,135)" fill-opacity="1.000"/>
<rect x="14" y="11" width="1" height="1" fill="rgb(2,3,6)" fill-opacity="1.000"/>
<rect x="15" y="11" width="1" height="1" fill="rgb(51,68,135)" fill-opacity="1.000"/>
<rect x="16" y="11" width="1" height="1" fill="rgb(0,0,0)" fill-opacity="1.000"/>
<rect x="1" y="12" width="1" height="1" fill="rgb(0,0,0)" fill-opacity="1.000"/>
<rect x="2" y="12" width="1" height="1" fill="rgb(47,64,127)" fill-opacity="1.000"/>
<rect x="3" y="12" width="1" height="1" fill="rgb(38,53,107)" fill-opacity="1.000"/>
<rect x="4" y="12" width="1" height="1" fill="rgb(44,60,121)" fill-opacity="1.000"/>
<rect x="5" y="12" width="1" height="1" fill="rgb(41,56,115)" fill-opacity="1.000"/>
<rect x="6" y="12" width="1" height="1" fill="rgb(47,63,124)" fill-opacity="1.000"/>
<rect x="7" y="12" width="1" height="1" fill="rgb(41,57,112)" fill-opacity="1.000"/>
<rect x="8" y="12" width="1" height="1" fill="rgb(36,49,98)" fill-opacity="1.000"/>
<rect x="9" y="12" width="1" height="1" fill="rgb(32,43,85)" fill-opacity="1.000"/>
<rect x="10" y="12" width="1" height="1" fill="rgb(39,52,104)" fill-opacity="1.000"/>
<rect x="11" y="12" width="1" height="1" fill="rgb(38,53,104)" fill-opacity="1.000"/>
<rect x="12" y="12" width="1" height="1" fill="rgb(36,47,94)" fill-opacity="1.000"/>
<rect x="13" y="12" width="1" height="1" fill="rgb(52,70,138)" fill-opacity="1.000"/>
<rect x="14" y="12" width="1" height="1" fill="rgb(42,56,112)" fill-opacity="1.000"/>
<rect x="15" y="12" width="1" height="1" fill="rgb(42,55,110)" fill-opacity="1.000"/>
<rect x="16" y="12" width="1" height="1" fill="rgb(0,0,0)" fill-opacity="1.000"/>
<rect x="1" y="13" width="1" height="1" fill="rgb(0,0,0)" fill-opacity="1.000"/>
<rect x="2" y="13" width="1" height="1" fill="rgb(51,69,136)" fill-opacity="1.000"/>
<rect x="3" y="13" width="1" height="1" fill="rgb(42,55,110)" fill-opacity="1.000"/>
<rect x="4" y="13" width="1" height="1" fill="rgb(44,59,117)" fill-opacity="1.000"/>
<rect x="5" y="13" width="1" height="1" fill="rgb(38,54,106)" fill-opacity="1.000"/>
<rect x="6" y="13" width="1" height="1" fill="rgb(43,58,115)" fill-opacity="1.000"/>
<rect x="7" y="13" width="1" height="1" fill="rgb(48,64,129)" fill-opacity="1.000"/>
<rect x="8" y="13" width="1" height="1" fill="rgb(46,62,122)" fill-opacity="1.000"/>
<rect x="9" y="13" width="1" height="1" fill="rgb(40,54,107)" fill-opacity="1.000"/>
<rect x="10" y="13" width="1" height="1" fill="rgb(27,36,70)" fill-opacity="1.000"/>
<rect x="11" y="13" width="1" height="1" fill="rgb(38,52,105)" fill-opacity="1.000"/>
<rect x="12" y="13" width="1" height="1" fill="rgb(38,50,99)" fill-opacity="1.000"/>
<rect x="13" y="13" width="1" height="1" fill="rgb(51,69,136)" fill-opacity="1.000"/>
<rect x="14" y="13" width="1" height="1" fill="rgb(44,60,120)" fill-opacity="1.000"/>
<rect x="15" y="13" width="1" height="1" fill="rgb(47,64,127)" fill-opacity="1.000"/>
<rect x="16" y="13" width="1" height="1" fill="rgb(0,0,0)" fill-opacity="1.000"/>
<rect x="2" y="14" width="1" height="1" fill="rgb(6,8,15)" fill-opacity="1.000"/>
<rect x="3" y="14" width="1" height="1" fill="rgb(43,58,115)" fill-opacity="1.000"/>
<rect x="4" y="14" width="1" height="1" fill="rgb(43,58,115)" fill-opacity="1.000"/>
<rect x="5" y="14" width="1" height="1" fill="rgb(47,63,124)" fill-opacity="1.000"/>
<rect x="6" y="14" width="1" height="1" fill="rgb(51,68,135)" fill-opacity="1.000"/>
<rect x="7" y="14" width="1" height="1" fill="rgb(44,59,116)" fill-opacity="1.000"/>
<rect x="8" y="14" width="1" height="1" fill="rgb(44,60,120)" fill-opacity="1.000"/>
<rect x="9" y="14" width="1" height="1" fill="rgb(33,46,91)" fill-opacity="1.000"/>
<rect x="10" y="14" width="1" height="1" fill="rgb(44,59,116)" fill-opacity="1.000"/>
<rect x="11" y="14" width="1" height="1" fill="rgb(28,39,81)" fill-opacity="1.000"/>
<rect x="12" y="14" width="1" height="1" fill="rgb(36,48,94)" fill-opacity="1.000"/>
<rect x="13" y="14" width="1" height="1" fill="rgb(40,55,109)" fill-opacity="1.000"/>
<rect x="14" y="14" width="1" height="1" fill="rgb(52,69,137)" fill-opacity="1.000"/>
<rect x="15" y="14" width="1" height="1" fill="rgb(6,8,15)" fill-opacity="1.000"/>
<rect x="3" y="15" width="1" height="1" fill="rgb(2,3,6)" fill-opacity="1.000"/>
<rect x="4" y="15" width="1" height="1" fill="rgb(2,3,6)" fill-opacity="1.000"/>
<rect x="5" y="15" width="1" height="1" fill="rgb(11,15,28)" fill-opacity="1.000"/>
<rect x="6" y="15" width="1" height="1" fill="rgb(7,10,19)" fill-opacity="1.000"/>
<rect x="7" y="15" width="1" height="1" fill="rgb(11,16,31)" fill-opacity="1.000"/>
<rect x="8" y="15" width="1" height="1" fill="rgb(1,1,1)" fill-opacity="1.000"/>
<rect x="9" y="15" width="1" height="1" fill="rgb(11,16,31)" fill-opacity="1.000"/>
<rect x="10" y="15" width="1" height="1" fill="rgb(7,11,23)" fill-opacity="1.000"/>
<rect x="11" y="15" width="1" height="1" fill="rgb(15,21,40)" fill-opacity="1.000"/>
<rect x="12" y="15" width="1" height="1" fill="rgb(7,10,19)" fill-opacity="1.000"/>
<rect x="13" y="15" width="1" height="1" fill="rgb(8,11,23)" fill-opacity="1.000"/>
<rect x="14" y="15" width="1" height="1" fill="rgb(11,15,28)" fill-opacity="1.000"/>
<rect x="2" y="16" width="1" height="1" fill="rgb(0,0,0)" fill-opacity="1.000"/>
<rect x="3" y="16" width="1" height="1" fill="rgb(51,68,135)" fill-opacity="1.000"/>
<rect x="4" y="16" width="1" height="1" fill="rgb(43,58,115)" fill-opacity="1.000"/>
<rect x="5" y="16" width="1" height="1" fill="rgb(47,64,127)" fill-opacity="1.000"/>
<rect x="6" y="16" width="1" height="1" fill="rgb(51,69,136)" fill-opacity="1.000"/>
<rect x="7" y="16" width="1" height="1" fill="rgb(39,52,104)" fill-opacity="1.000"/>
<rect x="8" y="16" width="1" height="1" fill="rgb(33,44,86)" fill-opacity="1.000"/>
<rect x="9" y="16" width="1" height="1" fill="rgb(31,41,79)" fill-opacity="1.000"/>
<rect x="10" y="16" width="1" height="1" fill="rgb(36,48,94)" fill-opacity="1.000"/>
<rect x="11" y="16" width="1" height="1" fill="rgb(34,45,89)" fill-opacity="1.000"/>
<rect x="12" y="16" width="1" height="1" fill="rgb(47,64,128)" fill-opacity="1.000"/>
<rect x="13" y="16" width="1" height="1" fill="rgb(47,64,127)" fill-opacity="1.000"/>
<rect x="14" y="16" width="1" height="1" fill="rgb(51,68,135)" fill-opacity="1.000"/>
<rect x="15" y="16" width="1" height="1" fill="rgb(50,41,21)" fill-opacity="1.000"/>
<rect x="3" y="17" width="1" height="1" fill="rgb(0,0,0)" fill-opacity="1.000"/>
<rect x="4" y="17" width="1" height="1" fill="rgb(0,0,0)" fill-opacity="1.000"/>
<rect x="5" y="17" width="1" height="1" fill="rgb(0,0,0)" fill-opacity="1.000"/>
<rect x="6" y="17" width="1" height="1" fill="rgb(11,17,33)" fill-opacity="1.000"/>
<rect x="7" y="17" width="1" height="1" fill="rgb(6,8,15)" fill-opacity="1.000"/>
<rect x="8" y="17" width="1" height="1" fill="rgb(6,8,15)" fill-opacity="1.000"/>
<rect x="9" y="17" width="1" height="1" fill="rgb(11,15,28)" fill-opacity="1.000"/>
<rect x="10" y="17" width="1" height="1" fill="rgb(1,1,1)" fill-opacity="1.000"/>
<rect x="11" y="17" width="1" height="1" fill="rgb(15,21,40)" fill-opacity="1.000"/>
<rect x="12" y="17" width="1" height="1" fill="rgb(11,15,28)" fill-opacity="1.000"/>
<rect x="13" y="17" width="1" height="1" fill="rgb(0,0,0)" fill-opacity="1.000"/>
<rect x="14" y="17" width="1" height="1" fill="rgb(0,0,0)" fill-opacity="1.000"/>
<rect x="4" y="18" width="1" height="1" fill="rgb(0,0,0)" fill-opacity="1.000"/>
<rect x="5" y="18" width="1" height="1" fill="rgb(47,64,127)" fill-opacity="1.000"/>
<rect x="6" y="18" width="1" height="1" fill="rgb(51,68,135)" fill-opacity="1.000"/>
<rect x="7" y="18" width="1" height="1" fill="rgb(49,66,128)" fill-opacity="1.000"/>
<rect x="8" y="18" width="1" height="1" fill="rgb(31,41,81)" fill-opacity="1.000"/>
<rect x="9" y="18" width="1" height="1" fill="rgb(39,53,104)" fill-opacity="1.000"/>
<rect x="10" y="18" width="1" height="1" fill="rgb(40,53,103)" fill-opacity="1.000"/>
<rect x="11" y="18" width="1" height="1" fill="rgb(45,60,119)" fill-opacity="1.000"/>
<rect x="12" y="18" width="1" height="1" fill="rgb(41,56,110)" fill-opacity="1.000"/>
<rect x="13" y="18" width="1" height="1" fill="rgb(0,0,0)" fill-opacity="1.000"/>
<rect x="4" y="19" width="1" height="1" fill="rgb(2,3,6)" fill-opacity="1.000"/>
<rect x="5" y="19" width="1" height="1" fill="rgb(42,55,110)" fill-opacity="1.000"/>
<rect x="6" y="19" width="1" height="1" fill="rgb(39,52,104)" fill-opacity="1.000"/>
<rect x="7" y="19" width="1" height="1" fill="rgb(40,55,109)" fill-opacity="1.000"/>
<rect x="8" y="19" width="1" height="1" fill="rgb(44,60,116)" fill-opacity="1.000"/>
<rect x="9" y="19" width="1" height="1" fill="rgb(41,55,108)" fill-opacity="1.000"/>
<rect x="10" y="19" width="1" height="1" fill="rgb(33,44,85)" fill-opacity="1.000"/>
<rect x="11" y="19" width="1" height="1" fill="rgb(40,53,103)" fill-opacity="1.000"/>
<rect x="12" y="19" width="1" height="1" fill="rgb(38,54,106)" fill-opacity="1.000"/>
<rect x="13" y="19" width="1" height="1" fill="rgb(6,8,15)" fill-opacity="1.000"/>
<rect x="4" y="20" width="1" height="1" fill="rgb(2,3,6)" fill-opacity="1.000"/>
<rect x="5" y="20" width="1" height="1" fill="rgb(43,58,115)" fill-opacity="1.000"/>
<rect x="6" y="20" width="1" height="1" fill="rgb(37,48,94)" fill-opacity="1.000"/>
<rect x="7" y="20" width="1" height="1" fill="rgb(48,64,126)" fill-opacity="1.000"/>
<rect x="8" y="20" width="1" height="1" fill="rgb(40,55,107)" fill-opacity="1.000"/>
<rect x="9" y="20" width="1" height="1" fill="rgb(37,50,99)" fill-opacity="1.000"/>
<rect x="10" y="20" width="1" height="1" fill="rgb(45,60,119)" fill-opacity="1.000"/>
<rect x="11" y="20" width="1" height="1" fill="rgb(34,46,89)" fill-opacity="1.000"/>
<rect x="12" y="20" width="1" height="1" fill="rgb(39,54,107)" fill-opacity="1.000"/>
<rect x="13" y="20" width="1" height="1" fill="rgb(6,8,15)" fill-opacity="1.000"/>
<rect x="4" y="21" width="1" height="1" fill="rgb(2,3,6)" fill-opacity="1.000"/>
<rect x="5" y="21" width="1" height="1" fill="rgb(43,57,113)" fill-opacity="1.000"/>
<rect x="6" y="21" width="1" height="1" fill="rgb(37,51,102)" fill-opacity="1.000"/>
<rect x="7" y="21" width="1" height="1" fill="rgb(41,56,111)" fill-opacity="1.000"/>
<rect x="8" y="21" width="1" height="1" fill="rgb(44,59,117)" fill-opacity="1.000"/>
<rect x="9" y="21" width="1" height="1" fill="rgb(37,48,94)" fill-opacity="1.000"/>
<rect x="10" y="21" width="1" height="1" fill="rgb(41,56,109)" fill-opacity="1.000"/>
<rect x="11" y="21" width="1" height="1" fill="rgb(35,47,90)" fill-opacity="1.000"/>
<rect x="12" y="21" width="1" height="1" fill="rgb(49,66,129)" fill-opacity="1.000"/>
<rect x="13" y="21" width="1" height="1" fill="rgb(15,21,44)" fill-opacity="1.000"/>
<rect x="4" y="22" width="1" height="1" fill="rgb(6,8,15)" fill-opacity="1.000"/>
<rect x="5" y="22" width="1" height="1" fill="rgb(43,58,113)" fill-opacity="1.000"/>
<rect x="6" y="22" width="1" height="1" fill="rgb(34,47,94)" fill-opacity="1.000"/>
<rect x="7" y="22" width="1" height="1" fill="rgb(36,49,100)" fill-opacity="1.000"/>
<rect x="8" y="22" width="1" height="1" fill="rgb(45,60,119)" fill-opacity="1.000"/>
<rect x="9" y="22" width="1" height="1" fill="rgb(36,51,101)" fill-opacity="1.000"/>
<rect x="10" y="22" width="1" height="1" fill="rgb(44,60,116)" fill-opacity="1.000"/>
<rect x="11" y="22" width="1" height="1" fill="rgb(42,56,110)" fill-opacity="1.000"/>
<rect x="12" y="22" width="1" height="1" fill="rgb(51,68,135)" fill-opacity="1.000"/>
<rect x="13" y="22" width="1" height="1" fill="rgb(6,8,15)" fill-opacity="1.000"/>
<rect x="3" y="23" width="1" height="1" fill="rgb(5,5,5)" fill-opacity="1.000"/>
<rect x="4" y="23" width="1" height="1" fill="rgb(0,0,0)" fill-opacity="1.000"/>
<rect x="5" y="23" width="1" height="1" fill="rgb(47,63,124)" fill-opacity="1.000"/>
<rect x="6" y="23" width="1" height="1" fill="rgb(48,65,126)" fill-opacity="1.000"/>
<rect x="7" y="23" width="1" height="1" fill="rgb(47,64,128)" fill-opacity="1.000"/>
<rect x="8" y="23" width="1" height="1" fill="rgb(45,61,119)" fill-opacity="1.000"/>
<rect x="9" y="23" width="1" height="1" fill="rgb(47,64,128)" fill-opacity="1.000"/>
<rect x="10" y="23" width="1" height="1" fill="rgb(44,59,117)" fill-opacity="1.000"/>
<rect x="11" y="23" width="1" height="1" fill="rgb(51,68,135)" fill-opacity="1.000"/>
<rect x="12" y="23" width="1" height="1" fill="rgb(44,60,120)" fill-opacity="1.000"/>
<rect x="13" y="23" width="1" height="1" fill="rgb(1,1,1)" fill-opacity="1.000"/>
<rect x="14" y="23" width="1" height="1" fill="rgb(5,5,5)" fill-opacity="1.000"/>
<rect x="3" y="24" width="1" height="1" fill="rgb(5,5,5)" fill-opacity="1.000"/>
<rect x="4" y="24" width="1" height="1" fill="rgb(18,25,49)" fill-opacity="1.000"/>
<rect x="5" y="24" width="1" height="1" fill="rgb(11,15,28)" fill-opacity="1.000"/>
<rect x="6" y="24" width="1" height="1" fill="rgb(14,19,38)" fill-opacity="1.000"/>
<rect x="7" y="24" width="1" height="1" fill="rgb(16,23,47)" fill-opacity="1.000"/>
<rect x="8" y="24" width="1" height="1" fill="rgb(0,0,0)" fill-opacity="1.000"/>
<rect x="9" y="24" width="1" height="1" fill="rgb(1,1,1)" fill-opacity="1.000"/>
<rect x="10" y="24" width="1" height="1" fill="rgb(10,13,24)" fill-opacity="1.000"/>
<rect x="11" y="24" width="1" height="1" fill="rgb(23,31,61)" fill-opacity="1.000"/>
<rect x="12" y="24" width="1" height="1" fill="rgb(4,5,10)" fill-opacity="1.000"/>
<rect x="13" y="24" width="1" height="1" fill="rgb(11,15,30)" fill-opacity="1.000"/>
<rect x="14" y="24" width="1" height="1" fill="rgb(9,13,26)" fill-opacity="1.000"/>
<rect x="2" y="25" width="1" height="1" fill="rgb(9,13,26)" fill-opacity="1.000"/>
<rect x="3" y="25" width="1" height="1" fill="rgb(121,98,44)" fill-opacity="1.000"/>
<rect x="4" y="25" width="1" height="1" fill="rgb(132,104,59)" fill-opacity="1.000"/>
<rect x="5" y="25" width="1" height="1" fill="rgb(204,146,49)" fill-opacity="1.000"/>
<rect x="6" y="25" width="1" height="1" fill="rgb(198,150,41)" fill-opacity="1.000"/>
<rect x="7" y="25" width="1" height="1" fill="rgb(152,122,58)" fill-opacity="1.000"/>
<rect x="8" y="25" width="1" height="1" fill="rgb(158,124,49)" fill-opacity="1.000"/>
<rect x="9" y="25" width="1" height="1" fill="rgb(200,153,51)" fill-opacity="1.000"/>
<rect x="10" y="25" width="1" height="1" fill="rgb(154,118,65)" fill-opacity="1.000"/>
<rect x="11" y="25" width="1" height="1" fill="rgb(104,94,82)" fill-opacity="1.000"/>
<rect x="12" y="25" width="1" height="1" fill="rgb(214,159,30)" fill-opacity="1.000"/>
<rect x="13" y="25" width="1" height="1" fill="rgb(214,159,30)" fill-opacity="1.000"/>
<rect x="14" y="25" width="1" height="1" fill="rgb(187,139,67)" fill-opacity="1.000"/>
<rect x="15" y="25" width="1" height="1" fill="rgb(9,13,26)" fill-opacity="1.000"/>
<rect x="2" y="26" width="1" height="1" fill="rgb(16,23,47)" fill-opacity="1.000"/>
<rect x="3" y="26" width="1" height="1" fill="rgb(26,37,77)" fill-opacity="1.000"/>
<rect x="4" y="26" width="1" height="1" fill="rgb(13,18,37)" fill-opacity="1.000"/>
<rect x="5" y="26" width="1" height="1" fill="rgb(19,27,56)" fill-opacity="1.000"/>
<rect x="6" y="26" width="1" height="1" fill="rgb(22,31,64)" fill-opacity="1.000"/>
<rect x="7" y="26" width="1" height="1" fill="rgb(13,18,37)" fill-opacity="1.000"/>
<rect x="8" y="26" width="1" height="1" fill="rgb(5,7,14)" fill-opacity="1.000"/>
<rect x="9" y="26" width="1" height="1" fill="rgb(9,13,26)" fill-opacity="1.000"/>
<rect x="10" y="26" width="1" height="1" fill="rgb(9,13,26)" fill-opacity="1.000"/>
<rect x="11" y="26" width="1" height="1" fill="rgb(6,8,15)" fill-opacity="1.000"/>
<rect x="12" y="26" width="1" height="1" fill="rgb(13,18,37)" fill-opacity="1.000"/>
<rect x="13" y="26" width="1" height="1" fill="rgb(24,34,71)" fill-opacity="1.000"/>
<rect x="14" y="26" width="1" height="1" fill="rgb(21,31,64)" fill-opacity="1.000"/>
<rect x="15" y="26" width="1" height="1" fill="rgb(16,23,47)" fill-opacity="1.000"/>
<rect x="2" y="27" width="1" height="1" fill="rgb(20,28,57)" fill-opacity="1.000"/>
<rect x="3" y="27" width="1" height="1" fill="rgb(214,159,30)" fill-opacity="1.000"/>
<rect x="4" y="27" width="1" height="1" fill="rgb(214,159,30)" fill-opacity="1.000"/>
<rect x="5" y="27" width="1" height="1" fill="rgb(169,138,85)" fill-opacity="1.000"/>
<rect x="6" y="27" width="1" height="1" fill="rgb(242,182,53)" fill-opacity="1.000"/>
<rect x="7" y="27" width="1" height="1" fill="rgb(128,107,64)" fill-opacity="1.000"/>
<rect x="8" y="27" width="1" height="1" fill="rgb(214,159,30)" fill-opacity="1.000"/>
<rect x="9" y="27" width="1" height="1" fill="rgb(242,182,53)" fill-opacity="1.000"/>
<rect x="10" y="27" width="1" height="1" fill="rgb(139,114,90)" fill-opacity="1.000"/>
<rect x="11" y="27" width="1" height="1" fill="rgb(136,113,65)" fill-opacity="1.000"/>
<rect x="12" y="27" width="1" height="1" fill="rgb(204,160,65)" fill-opacity="1.000"/>
<rect x="13" y="27" width="1" height="1" fill="rgb(242,182,53)" fill-opacity="1.000"/>
<rect x="14" y="27" width="1" height="1" fill="rgb(204,160,65)" fill-opacity="1.000"/>
<rect x="15" y="27" width="1" height="1" fill="rgb(13,18,37)" fill-opacity="1.000"/>
<rect x="1" y="28" width="1" height="1" fill="rgb(13,18,37)" fill-opacity="1.000"/>
<rect x="2" y="28" width="1" height="1" fill="rgb(0,0,0)" fill-opacity="1.000"/>
<rect x="3" y="28" width="1" height="1" fill="rgb(13,13,13)" fill-opacity="1.000"/>
<rect x="4" y="28" width="1" height="1" fill="rgb(5,5,5)" fill-opacity="1.000"/>
<rect x="5" y="28" width="1" height="1" fill="rgb(9,13,26)" fill-opacity="1.000"/>
<rect x="6" y="28" width="1" height="1" fill="rgb(5,5,5)" fill-opacity="1.000"/>
<rect x="7" y="28" width="1" height="1" fill="rgb(5,5,5)" fill-opacity="1.000"/>
<rect x="8" y="28" width="1" height="1" fill="rgb(9,13,26)" fill-opacity="1.000"/>
<rect x="9" y="28" width="1" height="1" fill="rgb(5,5,5)" fill-opacity="1.000"/>
<rect x="10" y="28" width="1" height="1" fill="rgb(5,7,14)" fill-opacity="1.000"/>
<rect x="11" y="28" width="1" height="1" fill="rgb(17,24,48)" fill-opacity="1.000"/>
<rect x="12" y="28" width="1" height="1" fill="rgb(13,13,13)" fill-opacity="1.000"/>
<rect x="13" y="28" width="1" height="1" fill="rgb(13,13,13)" fill-opacity="1.000"/>
<rect x="14" y="28" width="1" height="1" fill="rgb(13,13,13)" fill-opacity="1.000"/>
<rect x="15" y="28" width="1" height="1" fill="rgb(5,7,14)" fill-opacity="1.000"/>
<rect x="16" y="28" width="1" height="1" fill="rgb(5,7,14)" fill-opacity="1.000"/>
<rect x="0" y="29" width="1" height="1" fill="rgb(5,7,14)" fill-opacity="1.000"/>
<rect x="1" y="29" width="1" height="1" fill="rgb(14,18,36)" fill-opacity="1.000"/>
<rect x="2" y="29" width="1" height="1" fill="rgb(34,44,101)" fill-opacity="1.000"/>
<rect x="3" y="29" width="1" height="1" fill="rgb(34,45,101)" fill-opacity="1.000"/>
<rect x="4" y="29" width="1" height="1" fill="rgb(40,55,118)" fill-opacity="1.000"/>
<rect x="5" y="29" width="1" height="1" fill="rgb(40,53,113)" fill-opacity="1.000"/>
<rect x="6" y="29" width="1" height="1" fill="rgb(38,51,112)" fill-opacity="1.000"/>
<rect x="7" y="29" width="1" height="1" fill="rgb(40,53,114)" fill-opacity="1.000"/>
<rect x="8" y="29" width="1" height="1" fill="rgb(36,47,103)" fill-opacity="1.000"/>
<rect x="9" y="29" width="1" height="1" fill="rgb(31,38,89)" fill-opacity="1.000"/>
<rect x="10" y="29" width="1" height="1" fill="rgb(41,56,117)" fill-opacity="1.000"/>
<rect x="11" y="29" width="1" height="1" fill="rgb(39,53,112)" fill-opacity="1.000"/>
<rect x="12" y="29" width="1" height="1" fill="rgb(38,52,111)" fill-opacity="1.000"/>
<rect x="13" y="29" width="1" height="1" fill="rgb(41,56,117)" fill-opacity="1.000"/>
<rect x="14" y="29" width="1" height="1" fill="rgb(32,41,94)" fill-opacity="1.000"/>
<rect x="15" y="29" width="1" height="1" fill="rgb(37,50,107)" fill-opacity="1.000"/>
<rect x="16" y="29" width="1" height="1" fill="rgb(0,0,0)" fill-opacity="1.000"/>
<rect x="17" y="29" width="1" height="1" fill="rgb(0,0,0)" fill-opacity="1.000"/>
<rect x="0" y="30" width="1" height="1" fill="rgb(0,0,0)" fill-opacity="1.000"/>
<rect x="1" y="30" width="1" height="1" fill="rgb(32,42,97)" fill-opacity="1.000"/>
<rect x="2" y="30" width="1" height="1" fill="rgb(35,46,104)" fill-opacity="1.000"/>
<rect x="3" y="30" width="1" height="1" fill="rgb(40,54,116)" fill-opacity="1.000"/>
<rect x="4" y="30" width="1" height="1" fill="rgb(37,50,110)" fill-opacity="1.000"/>
<rect x="5" y="30" width="1" height="1" fill="rgb(43,59,123)" fill-opacity="1.000"/>
<rect x="6" y="30" width="1" height="1" fill="rgb(33,42,97)" fill-opacity="1.000"/>
<rect x="7" y="30" width="1" height="1" fill="rgb(38,49,104)" fill-opacity="1.000"/>
<rect x="8" y="30" width="1" height="1" fill="rgb(41,55,116)" fill-opacity="1.000"/>
<rect x="9" y="30" width="1" height="1" fill="rgb(34,45,101)" fill-opacity="1.000"/>
<rect x="10" y="30" width="1" height="1" fill="rgb(38,50,109)" fill-opacity="1.000"/>
<rect x="11" y="30" width="1" height="1" fill="rgb(31,40,93)" fill-opacity="1.000"/>
<rect x="12" y="30" width="1" height="1" fill="rgb(35,47,104)" fill-opacity="1.000"/>
<rect x="13" y="30" width="1" height="1" fill="rgb(30,37,88)" fill-opacity="1.000"/>
<rect x="14" y="30" width="1" height="1" fill="rgb(29,35,84)" fill-opacity="1.000"/>
<rect x="15" y="30" width="1" height="1" fill="rgb(32,40,90)" fill-opacity="1.000"/>
<rect x="16" y="30" width="1" height="1" fill="rgb(28,34,83)" fill-opacity="1.000"/>
<rect x="17" y="30" width="1" height="1" fill="rgb(0,0,0)" fill-opacity="1.000"/>
<rect x="0" y="31" width="1" height="1" fill="rgb(22,31,64)" fill-opacity="1.000"/>
<rect x="1" y="31" width="1" height="1" fill="rgb(24,27,71)" fill-opacity="1.000"/>
<rect x="2" y="31" width="1" height="1" fill="rgb(34,45,102)" fill-opacity="1.000"/>
<rect x="3" y="31" width="1" height="1" fill="rgb(31,38,89)" fill-opacity="1.000"/>
<rect x="4" y="31" width="1" height="1" fill="rgb(37,50,110)" fill-opacity="1.000"/>
<rect x="5" y="31" width="1" height="1" fill="rgb(34,45,102)" fill-opacity="1.000"/>
<rect x="6" y="31" width="1" height="1" fill="rgb(35,44,99)" fill-opacity="1.000"/>
<rect x="7" y="31" width="1" height="1" fill="rgb(31,40,93)" fill-opacity="1.000"/>
<rect x="8" y="31" width="1" height="1" fill="rgb(34,44,101)" fill-opacity="1.000"/>
<rect x="9" y="31" width="1" height="1" fill="rgb(32,40,90)" fill-opacity="1.000"/>
<rect x="10" y="31" width="1" height="1" fill="rgb(35,46,102)" fill-opacity="1.000"/>
<rect x="11" y="31" width="1" height="1" fill="rgb(34,45,99)" fill-opacity="1.000"/>
<rect x="12" y="31" width="1" height="1" fill="rgb(38,51,109)" fill-opacity="1.000"/>
<rect x="13" y="31" width="1" height="1" fill="rgb(34,44,101)" fill-opacity="1.000"/>
<rect x="14" y="31" width="1" height="1" fill="rgb(33,43,98)" fill-opacity="1.000"/>
<rect x="15" y="31" width="1" height="1" fill="rgb(36,48,106)" fill-opacity="1.000"/>
<rect x="16" y="31" width="1" height="1" fill="rgb(31,38,89)" fill-opacity="1.000"/>
<rect x="17" y="31" width="1" height="1" fill="rgb(0,0,0)" fill-opacity="1.000"/>
<rect x="0" y="32" width="1" height="1" fill="rgb(0,0,0)" fill-opacity="1.000"/>
<rect x="1" y="32" width="1" height="1" fill="rgb(9,13,26)" fill-opacity="1.000"/>
<rect x="2" y="32" width="1" height="1" fill="rgb(9,13,26)" fill-opacity="1.000"/>
<rect x="3" y="32" width="1" height="1" fill="rgb(0,0,0)" fill-opacity="1.000"/>
<rect x="4" y="32" width="1" height="1" fill="rgb(16,23,47)" fill-opacity="1.000"/>
<rect x="5" y="32" width="1" height="1" fill="rgb(17,24,48)" fill-opacity="1.000"/>
<rect x="6" y="32" width="1" height="1" fill="rgb(13,18,37)" fill-opacity="1.000"/>
<rect x="7" y="32" width="1" height="1" fill="rgb(20,28,57)" fill-opacity="1.000"/>
<rect x="8" y="32" width="1" height="1" fill="rgb(9,13,26)" fill-opacity="1.000"/>
<rect x="9" y="32" width="1" height="1" fill="rgb(19,27,56)" fill-opacity="1.000"/>
<rect x="10" y="32" width="1" height="1" fill="rgb(10,14,27)" fill-opacity="1.000"/>
<rect x="11" y="32" width="1" height="1" fill="rgb(23,32,65)" fill-opacity="1.000"/>
<rect x="12" y="32" width="1" height="1" fill="rgb(23,33,66)" fill-opacity="1.000"/>
<rect x="13" y="32" width="1" height="1" fill="rgb(17,24,48)" fill-opacity="1.000"/>
<rect x="14" y="32" width="1" height="1" fill="rgb(24,34,66)" fill-opacity="1.000"/>
<rect x="15" y="32" width="1" height="1" fill="rgb(0,0,0)" fill-opacity="1.000"/>
<rect x="16" y="32" width="1" height="1" fill="rgb(6,8,15)" fill-opacity="1.000"/>
<rect x="17" y="32" width="1" height="1" fill="rgb(0,0,0)" fill-opacity="1.000"/>
</svg>