<svg xmlns="http://www.w3.org/2000/svg" width="19" height="33" shape-rendering="crispEdges">
<rect x="5" y="1" width="1" height="1" fill="rgb(0,0,0)" fill-opacity="1.000"/>
<rect x="6" y="1" width="1" height="1" fill="rgb(0,0,0)" fill-opacity="1.000"/>
<rect x="4" y="2" width="1" height="1" fill="rgb(11,15,28)" fill-opacity="1.000"/>
<rect x="5" y="2" width="1" height="1" fill="rgb(45,61,121)" fill-opacity="1.000"/>
<rect x="6" y="2" width="1" height="1" fill="rgb(0,0,0)" fill-opacity="1.000"/>
<rect x="4" y="3" width="1" height="1" fill="rgb(11,15,28)" fill-opacity="1.000"/>
<rect x="5" y="3" width="1" height="1" fill="rgb(51,68,135)" fill-opacity="1.000"/>
<rect x="6" y="3" width="1" height="1" fill="rgb(0,0,0)" fill-opacity="1.000"/>
<rect x="4" y="4" width="1" height="1" fill="rgb(0,0,0)" fill-opacity="1.000"/>
<rect x="5" y="4" width="1" height="1" fill="rgb(51,68,135)" fill-opacity="1.000"/>
<rect x="6" y="4" width="1" height="1" fill="rgb(0,0,0)" fill-opacity="1.000"/>
<rect x="7" y="4" width="1" height="1" fill="rgb(11,15,28)" fill-opacity="1.000"/>
<rect x="8" y="4" width="1" height="1" fill="rgb(11,15,28)" fill-opacity="1.000"/>
<rect x="9" y="4" width="1" height="1" fill="rgb(0,0,0)" fill-opacity="1.000"/>
<rect x="10" y="4" width="1" height="1" fill="rgb(0,0,0)" fill-opacity="1.000"/>
<rect x="11" y="4" width="1" height="1" fill="rgb(0,0,0)" fill-opacity="1.000"/>
<rect x="3" y="5" width="1" height="1" fill="rgb(0,0,0)" fill-opacity="1.000"/>
<rect x="4" y="5" width="1" height="1" fill="rgb(51,69,136)" fill-opacity="1.000"/>
<rect x="5" y="5" width="1" height="1" fill="rgb(46,62,123)" fill-opacity="1.000"/>
<rect x="6" y="5" width="1" height="1" fill="rgb(0,0,0)" fill-opacity="1.000"/>
<rect x="7" y="5" width="1" height="1" fill="rgb(45,61,121)" fill-opacity="1.000"/>
<rect x="8" y="5" width="1" height="1" fill="rgb(36,49,97)" fill-opacity="1.000"/>
<rect x="9" y="5" width="1" height="1" fill="rgb(51,68,135)" fill-opacity="1.000"/>
<rect x="10" y="5" width="1" height="1" fill="rgb(51,68,135)" fill-opacity="1.000"/>
<rect x="11" y="5" width="1" height="1" fill="rgb(45,61,121)" fill-opacity="1.000"/>
<rect x="12" y="5" width="1" height="1" fill="rgb(0,0,0)" fill-opacity="1.000"/>
<rect x="13" y="5" width="1" height="1" fill="rgb(5,7,14)" fill-opacity="1.000"/>
<rect x="3" y="6" width="1" height="1" fill="rgb(0,0,0)" fill-opacity="1.000"/>
<rect x="4" y="6" width="1" height="1" fill="rgb(36,48,97)" fill-opacity="1.000"/>
<rect x="5" y="6" width="1" height="1" fill="rgb(41,54,109)" fill-opacity="1.000"/>
<rect x="6" y="6" width="1" height="1" fill="rgb(51,68,135)" fill-opacity="1.000"/>
<rect x="7" y="6" width="1" height="1" fill="rgb(45,61,121)" fill-opacity="1.000"/>
<rect x="8" y="6" width="1" height="1" fill="rgb(51,69,136)" fill-opacity="1.000"/>
<rect x="9" y="6" width="1" height="1" fill="rgb(0,0,0)" fill-opacity="1.000"/>
<rect x="10" y="6" width="1" height="1" fill="rgb(5,7,14)" fill-opacity="1.000"/>
<rect x="11" y="6" width="1" height="1" fill="rgb(51,69,136)" fill-opacity="1.000"/>
<rect x="12" y="6" width="1" height="1" fill="rgb(42,56,112)" fill-opacity="1.000"/>
<rect x="13" y="6" width="1" height="1" fill="rgb(37,49,98)" fill-opacity="1.000"/>
<rect x="14" y="6" width="1" height="1" fill="rgb(5,7,14)" fill-opacity="1.000"/>
<rect x="3" y="7" width="1" height="1" fill="rgb(0,0,0)" fill-opacity="1.000"/>
<rect x="4" y="7" width="1" height="1" fill="rgb(45,61,121)" fill-opacity="1.000"/>
<rect x="5" y="7" width="1" height="1" fill="rgb(46,62,123)" fill-opacity="1.000"/>
<rect x="6" y="7" width="1" height="1" fill="rgb(38,51,102)" fill-opacity="1.000"/>
<rect x="7" y="7" width="1" height="1" fill="rgb(37,49,98)" fill-opacity="1.000"/>
<rect x="8" y="7" width="1" height="1" fill="rgb(36,49,97)" fill-opacity="1.000"/>
<rect x="9" y="7" width="1" height="1" fill="rgb(51,68,135)" fill-opacity="1.000"/>
<rect x="10" y="7" width="1" height="1" fill="rgb(0,0,0)" fill-opacity="1.000"/>
<rect x="11" y="7" width="1" height="1" fill="rgb(47,64,128)" fill-opacity="1.000"/>
<rect x="12" y="7" width="1" height="1" fill="rgb(46,61,122)" fill-opacity="1.000"/>
<rect x="13" y="7" width="1" height="1" fill="rgb(36,48,96)" fill-opacity="1.000"/>
<rect x="14" y="7" width="1" height="1" fill="rgb(11,15,28)" fill-opacity="1.000"/>
<rect x="15" y="7" width="1" height="1" fill="rgb(5,7,14)" fill-opacity="1.000"/>
<rect x="3" y="8" width="1" height="1" fill="rgb(0,0,0)" fill-opacity="1.000"/>
<rect x="4" y="8" width="1" height="1" fill="rgb(37,49,98)" fill-opacity="1.000"/>
<rect x="5" y="8" width="1" height="1" fill="rgb(51,68,135)" fill-opacity="1.000"/>
<rect x="6" y="8" width="1" height="1" fill="rgb(0,0,0)" fill-opacity="1.000"/>
<rect x="7" y="8" width="1" height="1" fill="rgb(26,35,71)" fill-opacity="1.000"/>
<rect x="8" y="8" width="1" height="1" fill="rgb(51,68,135)" fill-opacity="1.000"/>
<rect x="9" y="8" width="1" height="1" fill="rgb(45,61,121)" fill-opacity="1.000"/>
<rect x="10" y="8" width="1" height="1" fill="rgb(37,52,104)" fill-opacity="1.000"/>
<rect x="11" y="8" width="1" height="1" fill="rgb(40,54,111)" fill-opacity="1.000"/>
<rect x="12" y="8" width="1" height="1" fill="rgb(36,47,97)" fill-opacity="1.000"/>
<rect x="13" y="8" width="1" height="1" fill="rgb(44,59,109)" fill-opacity="1.000"/>
<rect x="14" y="8" width="1" height="1" fill="rgb(41,57,115)" fill-opacity="1.000"/>
<rect x="15" y="8" width="1" height="1" fill="rgb(47,63,125)" fill-opacity="1.000"/>
<rect x="16" y="8" width="1" height="1" fill="rgb(5,7,14)" fill-opacity="1.000"/>
<rect x="17" y="8" width="1" height="1" fill="rgb(5,7,14)" fill-opacity="1.000"/>
<rect x="2" y="9" width="1" height="1" fill="rgb(0,0,0)" fill-opacity="1.000"/>
<rect x="3" y="9" width="1" height="1" fill="rgb(41,54,109)" fill-opacity="1.000"/>
<rect x="4" y="9" width="1" height="1" fill="rgb(41,54,109)" fill-opacity="1.000"/>
<rect x="5" y="9" width="1" height="1" fill="rgb(48,65,131)" fill-opacity="1.000"/>
<rect x="6" y="9" width="1" height="1" fill="rgb(0,0,0)" fill-opacity="1.000"/>
<rect x="7" y="9" width="1" height="1" fill="rgb(51,68,135)" fill-opacity="1.000"/>
<rect x="8" y="9" width="1" height="1" fill="rgb(45,61,121)" fill-opacity="1.000"/>
<rect x="9" y="9" width="1" height="1" fill="rgb(51,69,137)" fill-opacity="1.000"/>
<rect x="10" y="9" width="1" height="1" fill="rgb(48,65,130)" fill-opacity="1.000"/>
<rect x="11" y="9" width="1" height="1" fill="rgb(34,47,98)" fill-opacity="1.000"/>
<rect x="12" y="9" width="1" height="1" fill="rgb(36,49,100)" fill-opacity="1.000"/>
<rect x="13" y="9" width="1" height="1" fill="rgb(46,61,122)" fill-opacity="1.000"/>
<rect x="14" y="9" width="1" height="1" fill="rgb(48,65,129)" fill-opacity="1.000"/>
<rect x="15" y="9" width="1" height="1" fill="rgb(38,55,107)" fill-opacity="1.000"/>
<rect x="16" y="9" width="1" height="1" fill="rgb(51,69,136)" fill-opacity="1.000"/>
<rect x="17" y="9" width="1" height="1" fill="rgb(46,63,125)" fill-opacity="1.000"/>
<rect x="18" y="9" width="1" height="1" fill="rgb(6,8,15)" fill-opacity="1.000"/>
<rect x="2" y="10" width="1" height="1" fill="rgb(0,0,0)" fill-opacity="1.000"/>
<rect x="3" y="10" width="1" height="1" fill="rgb(43,58,118)" fill-opacity="1.000"/>
<rect x="4" y="10" width="1" height="1" fill="rgb(37,49,98)" fill-opacity="1.000"/>
<rect x="5" y="10" width="1" height="1" fill="rgb(41,54,109)" fill-opacity="1.000"/>
<rect x="6" y="10" width="1" height="1" fill="rgb(36,48,98)" fill-opacity="1.000"/>
<rect x="7" y="10" width="1" height="1" fill="rgb(3,4,10)" fill-opacity="1.000"/>
<rect x="8" y="10" width="1" height="1" fill="rgb(51,69,136)" fill-opacity="1.000"/>
<rect x="9" y="10" width="1" height="1" fill="rgb(47,64,125)" fill-opacity="1.000"/>
<rect x="10" y="10" width="1" height="1" fill="rgb(36,50,104)" fill-opacity="1.000"/>
<rect x="11" y="10" width="1" height="1" fill="rgb(43,58,116)" fill-opacity="1.000"/>
<rect x="12" y="10" width="1" height="1" fill="rgb(32,44,91)" fill-opacity="1.000"/>
<rect x="13" y="10" width="1" height="1" fill="rgb(42,56,112)" fill-opacity="1.000"/>
<rect x="14" y="10" width="1" height="1" fill="rgb(47,64,128)" fill-opacity="1.000"/>
<rect x="15" y="10" width="1" height="1" fill="rgb(44,60,118)" fill-opacity="1.000"/>
<rect x="16" y="10" width="1" height="1" fill="rgb(10,14,27)" fill-opacity="1.000"/>
<rect x="17" y="10" width="1" height="1" fill="rgb(46,62,123)" fill-opacity="1.000"/>
<rect x="18" y="10" width="1" height="1" fill="rgb(6,8,15)" fill-opacity="1.000"/>
<rect x="2" y="11" width="1" height="1" fill="rgb(3,4,10)" fill-opacity="1.000"/>
<rect x="3" y="11" width="1" height="1" fill="rgb(5,7,14)" fill-opacity="1.000"/>
<rect x="4" y="11" width="1" height="1" fill="rgb(5,7,14)" fill-opacity="1.000"/>
<rect x="5" y="11" width="1" height="1" fill="rgb(36,49,105)" fill-opacity="1.000"/>
<rect x="6" y="11" width="1" height="1" fill="rgb(36,48,98)" fill-opacity="1.000"/>
<rect x="7" y="11" width="1" height="1" fill="rgb(6,8,15)" fill-opacity="1.000"/>
<rect x="8" y="11" width="1" height="1" fill="rgb(45,61,121)" fill-opacity="1.000"/>
<rect x="9" y="11" width="1" height="1" fill="rgb(47,64,128)" fill-opacity="1.000"/>
<rect x="10" y="11" width="1" height="1" fill="rgb(48,64,129)" fill-opacity="1.000"/>
<rect x="11" y="11" width="1" height="1" fill="rgb(37,51,104)" fill-opacity="1.000"/>
<rect x="12" y="11" width="1" height="1" fill="rgb(26,36,72)" fill-opacity="1.000"/>
<rect x="13" y="11" width="1" height="1" fill="rgb(41,57,113)" fill-opacity="1.000"/>
<rect x="14" y="11" width="1" height="1" fill="rgb(39,54,110)" fill-opacity="1.000"/>
<rect x="15" y="11" width="1" height="1" fill="rgb(35,47,94)" fill-opacity="1.000"/>
<rect x="16" y="11" width="1" height="1" fill="rgb(38,52,104)" fill-opacity="1.000"/>
<rect x="17" y="11" width="1" height="1" fill="rgb(46,63,125)" fill-opacity="1.000"/>
<rect x="18" y="11" width="1" height="1" fill="rgb(0,0,0)" fill-opacity="1.000"/>
<rect x="2" y="12" width="1" height="1" fill="rgb(0,0,0)" fill-opacity="1.000"/>
<rect x="3" y="12" width="1" height="1" fill="rgb(45,61,121)" fill-opacity="1.000"/>
<rect x="4" y="12" width="1" height="1" fill="rgb(46,62,123)" fill-opacity="1.000"/>
<rect x="5" y="12" width="1" height="1" fill="rgb(34,46,97)" fill-opacity="1.000"/>
<rect x="6" y="12" width="1" height="1" fill="rgb(41,55,111)" fill-opacity="1.000"/>
<rect x="7" y="12" width="1" height="1" fill="rgb(33,44,88)" fill-opacity="1.000"/>
<rect x="8" y="12" width="1" height="1" fill="rgb(6,8,15)" fill-opacity="1.000"/>
<rect x="9" y="12" width="1" height="1" fill="rgb(5,7,13)" fill-opacity="1.000"/>
<rect x="10" y="12" width="1" height="1" fill="rgb(23,33,65)" fill-opacity="1.000"/>
<rect x="11" y="12" width="1" height="1" fill="rgb(49,66,129)" fill-opacity="1.000"/>
<rect x="12" y="12" width="1" height="1" fill="rgb(39,54,109)" fill-opacity="1.000"/>
<rect x="13" y="12" width="1" height="1" fill="rgb(42,57,114)" fill-opacity="1.000"/>
<rect x="14" y="12" width="1" height="1" fill="rgb(51,68,135)" fill-opacity="1.000"/>
<rect x="15" y="12" width="1" height="1" fill="rgb(47,65,127)" fill-opacity="1.000"/>
<rect x="16" y="12" width="1" height="1" fill="rgb(46,63,125)" fill-opacity="1.000"/>
<rect x="17" y="12" width="1" height="1" fill="rgb(51,68,135)" fill-opacity="1.000"/>
<rect x="18" y="12" width="1" height="1" fill="rgb(5,7,14)" fill-opacity="1.000"/>
<rect x="2" y="13" width="1" height="1" fill="rgb(0,0,0)" fill-opacity="1.000"/>
<rect x="3" y="13" width="1" height="1" fill="rgb(7,10,22)" fill-opacity="1.000"/>
<rect x="4" y="13" width="1" height="1" fill="rgb(5,7,14)" fill-opacity="1.000"/>
<rect x="5" y="13" width="1" height="1" fill="rgb(42,56,112)" fill-opacity="1.000"/>
<rect x="6" y="13" width="1" height="1" fill="rgb(37,50,102)" fill-opacity="1.000"/>
<rect x="7" y="13" width="1" height="1" fill="rgb(41,54,109)" fill-opacity="1.000"/>
<rect x="8" y="13" width="1" height="1" fill="rgb(29,38,78)" fill-opacity="1.000"/>
<rect x="9" y="13" width="1" height="1" fill="rgb(46,61,123)" fill-opacity="1.000"/>
<rect x="10" y="13" width="1" height="1" fill="rgb(4,6,12)" fill-opacity="1.000"/>
<rect x="11" y="13" width="1" height="1" fill="rgb(3,4,9)" fill-opacity="1.000"/>
<rect x="12" y="13" width="1" height="1" fill="rgb(36,49,101)" fill-opacity="1.000"/>
<rect x="13" y="13" width="1" height="1" fill="rgb(31,42,84)" fill-opacity="1.000"/>
<rect x="14" y="13" width="1" height="1" fill="rgb(51,69,136)" fill-opacity="1.000"/>
<rect x="15" y="13" width="1" height="1" fill="rgb(6,8,15)" fill-opacity="1.000"/>
<rect x="16" y="13" width="1" height="1" fill="rgb(0,0,0)" fill-opacity="1.000"/>
<rect x="17" y="13" width="1" height="1" fill="rgb(0,0,0)" fill-opacity="1.000"/>
<rect x="2" y="14" width="1" height="1" fill="rgb(0,0,0)" fill-opacity="1.000"/>
<rect x="3" y="14" width="1" height="1" fill="rgb(51,69,136)" fill-opacity="1.000"/>
<rect x="4" y="14" width="1" height="1" fill="rgb(39,53,106)" fill-opacity="1.000"/>
<rect x="5" y="14" width="1" height="1" fill="rgb(45,61,120)" fill-opacity="1.000"/>
<rect x="6" y="14" width="1" height="1" fill="rgb(38,51,100)" fill-opacity="1.000"/>
<rect x="7" y="14" width="1" height="1" fill="rgb(45,60,119)" fill-opacity="1.000"/>
<rect x="8" y="14" width="1" height="1" fill="rgb(25,34,67)" fill-opacity="1.000"/>
<rect x="9" y="14" width="1" height="1" fill="rgb(40,53,106)" fill-opacity="1.000"/>
<rect x="10" y="14" width="1" height="1" fill="rgb(33,44,88)" fill-opacity="1.000"/>
<rect x="11" y="14" width="1" height="1" fill="rgb(42,56,112)" fill-opacity="1.000"/>
<rect x="12" y="14" width="1" height="1" fill="rgb(41,55,110)" fill-opacity="1.000"/>
<rect x="13" y="14" width="1" height="1" fill="rgb(45,61,121)" fill-opacity="1.000"/>
<rect x="14" y="14" width="1" height="1" fill="rgb(14,14,14)" fill-opacity="1.000"/>
<rect x="2" y="15" width="1" height="1" fill="rgb(0,0,0)" fill-opacity="1.000"/>
<rect x="3" y="15" width="1" height="1" fill="rgb(5,7,14)" fill-opacity="1.000"/>
<rect x="4" y="15" width="1" height="1" fill="rgb(6,9,18)" fill-opacity="1.000"/>
<rect x="5" y="15" width="1" height="1" fill="rgb(37,51,102)" fill-opacity="1.000"/>
<rect x="6" y="15" width="1" height="1" fill="rgb(29,40,82)" fill-opacity="1.000"/>
<rect x="7" y="15" width="1" height="1" fill="rgb(30,42,82)" fill-opacity="1.000"/>
<rect x="8" y="15" width="1" height="1" fill="rgb(36,48,95)" fill-opacity="1.000"/>
<rect x="9" y="15" width="1" height="1" fill="rgb(43,58,115)" fill-opacity="1.000"/>
<rect x="10" y="15" width="1" height="1" fill="rgb(39,52,104)" fill-opacity="1.000"/>
<rect x="11" y="15" width="1" height="1" fill="rgb(41,56,111)" fill-opacity="1.000"/>
<rect x="12" y="15" width="1" height="1" fill="rgb(46,62,123)" fill-opacity="1.000"/>
<rect x="13" y="15" width="1" height="1" fill="rgb(35,48,97)" fill-opacity="1.000"/>
<rect x="14" y="15" width="1" height="1" fill="rgb(42,56,110)" fill-opacity="1.000"/>
<rect x="15" y="15" width="1" height="1" fill="rgb(5,7,13)" fill-opacity="1.000"/>
<rect x="2" y="16" width="1" height="1" fill="rgb(0,0,0)" fill-opacity="1.000"/>
<rect x="3" y="16" width="1" height="1" fill="rgb(47,64,127)" fill-opacity="1.000"/>
<rect x="4" y="16" width="1" height="1" fill="rgb(42,58,116)" fill-opacity="1.000"/>
<rect x="5" y="16" width="1" height="1" fill="rgb(43,59,117)" fill-opacity="1.000"/>
<rect x="6" y="16" width="1" height="1" fill="rgb(41,56,113)" fill-opacity="1.000"/>
<rect x="7" y="16" width="1" height="1" fill="rgb(33,48,97)" fill-opacity="1.000"/>
<rect x="8" y="16" width="1" height="1" fill="rgb(35,49,98)" fill-opacity="1.000"/>
<rect x="9" y="16" width="1" height="1" fill="rgb(31,44,87)" fill-opacity="1.000"/>
<rect x="10" y="16" width="1" height="1" fill="rgb(36,50,101)" fill-opacity="1.000"/>
<rect x="11" y="16" width="1" height="1" fill="rgb(28,38,73)" fill-opacity="1.000"/>
<rect x="12" y="16" width="1" height="1" fill="rgb(28,39,78)" fill-opacity="1.000"/>
<rect x="13" y="16" width="1" height="1" fill="rgb(32,43,86)" fill-opacity="1.000"/>
<rect x="14" y="16" width="1" height="1" fill="rgb(35,48,96)" fill-opacity="1.000"/>
<rect x="15" y="16" width="1" height="1" fill="rgb(46,62,122)" fill-opacity="1.000"/>
<rect x="16" y="16" width="1" height="1" fill="rgb(14,18,36)" fill-opacity="1.000"/>
<rect x="2" y="17" width="1" height="1" fill="rgb(0,0,0)" fill-opacity="1.000"/>
<rect x="3" y="17" width="1" height="1" fill="rgb(9,13,26)" fill-opacity="1.000"/>
<rect x="4" y="17" width="1" height="1" fill="rgb(36,51,104)" fill-opacity="1.000"/>
<rect x="5" y="17" width="1" height="1" fill="rgb(42,57,114)" fill-opacity="1.000"/>
<rect x="6" y="17" width="1" height="1" fill="rgb(35,51,103)" fill-opacity="1.000"/>
<rect x="7" y="17" width="1" height="1" fill="rgb(36,49,96)" fill-opacity="1.000"/>
<rect x="8" y="17" width="1" height="1" fill="rgb(31,43,86)" fill-opacity="1.000"/>
<rect x="9" y="17" width="1" height="1" fill="rgb(30,39,83)" fill-opacity="1.000"/>
<rect x="10" y="17" width="1" height="1" fill="rgb(37,49,98)" fill-opacity="1.000"/>
<rect x="11" y="17" width="1" height="1" fill="rgb(31,43,86)" fill-opacity="1.000"/>
<rect x="12" y="17" width="1" height="1" fill="rgb(19,25,51)" fill-opacity="1.000"/>
<rect x="13" y="17" width="1" height="1" fill="rgb(23,32,63)" fill-opacity="1.000"/>
<rect x="14" y="17" width="1" height="1" fill="rgb(30,39,78)" fill-opacity="1.000"/>
<rect x="15" y="17" width="1" height="1" fill="rgb(38,50,99)" fill-opacity="1.000"/>
<rect x="16" y="17" width="1" height="1" fill="rgb(5,7,13)" fill-opacity="1.000"/>
<rect x="3" y="18" width="1" height="1" fill="rgb(5,7,14)" fill-opacity="1.000"/>
<rect x="4" y="18" width="1" height="1" fill="rgb(42,57,115)" fill-opacity="1.000"/>
<rect x="5" y="18" width="1" height="1" fill="rgb(38,51,103)" fill-opacity="1.000"/>
<rect x="6" y="18" width="1" height="1" fill="rgb(28,39,82)" fill-opacity="1.000"/>
<rect x="7" y="18" width="1" height="1" fill="rgb(37,51,102)" fill-opacity="1.000"/>
<rect x="8" y="18" width="1" height="1" fill="rgb(28,39,85)" fill-opacity="1.000"/>
<rect x="9" y="18" width="1" height="1" fill="rgb(37,49,101)" fill-opacity="1.000"/>
<rect x="10" y="18" width="1" height="1" fill="rgb(24,33,65)" fill-opacity="1.000"/>
<rect x="11" y="18" width="1" height="1" fill="rgb(26,36,75)" fill-opacity="1.000"/>
<rect x="12" y="18" width="1" height="1" fill="rgb(30,40,78)" fill-opacity="1.000"/>
<rect x="13" y="18" width="1" height="1" fill="rgb(32,43,85)" fill-opacity="1.000"/>
<rect x="14" y="18" width="1" height="1" fill="rgb(41,55,109)" fill-opacity="1.000"/>
<rect x="15" y="18" width="1" height="1" fill="rgb(51,68,135)" fill-opacity="1.000"/>
<rect x="16" y="18" width="1" height="1" fill="rgb(5,7,13)" fill-opacity="1.000"/>
<rect x="3" y="19" width="1" height="1" fill="rgb(5,7,14)" fill-opacity="1.000"/>
<rect x="4" y="19" width="1" height="1" fill="rgb(41,54,109)" fill-opacity="1.000"/>
<rect x="5" y="19" width="1" height="1" fill="rgb(32,45,92)" fill-opacity="1.000"/>
<rect x="6" y="19" width="1" height="1" fill="rgb(37,52,105)" fill-opacity="1.000"/>
<rect x="7" y="19" width="1" height="1" fill="rgb(34,46,93)" fill-opacity="1.000"/>
<rect x="8" y="19" width="1" height="1" fill="rgb(38,51,101)" fill-opacity="1.000"/>
<rect x="9" y="19" width="1" height="1" fill="rgb(26,35,70)" fill-opacity="1.000"/>
<rect x="10" y="19" width="1" height="1" fill="rgb(29,39,78)" fill-opacity="1.000"/>
<rect x="11" y="19" width="1" height="1" fill="rgb(26,33,65)" fill-opacity="1.000"/>
<rect x="12" y="19" width="1" height="1" fill="rgb(30,40,78)" fill-opacity="1.000"/>
<rect x="13" y="19" width="1" height="1" fill="rgb(21,28,57)" fill-opacity="1.000"/>
<rect x="14" y="19" width="1" height="1" fill="rgb(42,55,110)" fill-opacity="1.000"/>
<rect x="15" y="19" width="1" height="1" fill="rgb(29,38,74)" fill-opacity="1.000"/>
<rect x="16" y="19" width="1" height="1" fill="rgb(13,17,33)" fill-opacity="1.000"/>
<rect x="3" y="20" width="1" height="1" fill="rgb(6,8,15)" fill-opacity="1.000"/>
<rect x="4" y="20" width="1" height="1" fill="rgb(37,49,96)" fill-opacity="1.000"/>
<rect x="5" y="20" width="1" height="1" fill="rgb(44,59,119)" fill-opacity="1.000"/>
<rect x="6" y="20" width="1" height="1" fill="rgb(36,48,97)" fill-opacity="1.000"/>
<rect x="7" y="20" width="1" height="1" fill="rgb(33,45,91)" fill-opacity="1.000"/>
<rect x="8" y="20" width="1" height="1" fill="rgb(47,64,127)" fill-opacity="1.000"/>
<rect x="9" y="20" width="1" height="1" fill="rgb(26,34,67)" fill-opacity="1.000"/>
<rect x="10" y="20" width="1" height="1" fill="rgb(33,44,85)" fill-opacity="1.000"/>
<rect x="11" y="20" width="1" height="1" fill="rgb(23,30,55)" fill-opacity="1.000"/>
<rect x="12" y="20" width="1" height="1" fill="rgb(15,19,37)" fill-opacity="1.000"/>
<rect x="13" y="20" width="1" height="1" fill="rgb(22,30,61)" fill-opacity="1.000"/>
<rect x="14" y="20" width="1" height="1" fill="rgb(25,32,61)" fill-opacity="1.000"/>
<rect x="15" y="20" width="1" height="1" fill="rgb(14,14,14)" fill-opacity="1.000"/>
<rect x="16" y="20" width="1" height="1" fill="rgb(14,18,36)" fill-opacity="1.000"/>
<rect x="3" y="21" width="1" height="1" fill="rgb(6,9,18)" fill-opacity="1.000"/>
<rect x="4" y="21" width="1" height="1" fill="rgb(38,50,99)" fill-opacity="1.000"/>
<rect x="5" y="21" width="1" height="1" fill="rgb(46,62,122)" fill-opacity="1.000"/>
<rect x="6" y="21" width="1" height="1" fill="rgb(43,58,115)" fill-opacity="1.000"/>
<rect x="7" y="21" width="1" height="1" fill="rgb(28,39,79)" fill-opacity="1.000"/>
<rect x="8" y="21" width="1" height="1" fill="rgb(46,62,122)" fill-opacity="1.000"/>
<rect x="9" y="21" width="1" height="1" fill="rgb(32,44,85)" fill-opacity="1.000"/>
<rect x="10" y="21" width="1" height="1" fill="rgb(38,50,99)" fill-opacity="1.000"/>
<rect x="11" y="21" width="1" height="1" fill="rgb(35,46,89)" fill-opacity="1.000"/>
<rect x="12" y="21" width="1" height="1" fill="rgb(33,44,87)" fill-opacity="1.000"/>
<rect x="13" y="21" width="1" height="1" fill="rgb(36,49,97)" fill-opacity="1.000"/>
<rect x="14" y="21" width="1" height="1" fill="rgb(42,56,110)" fill-opacity="1.000"/>
<rect x="15" y="21" width="1" height="1" fill="rgb(2,2,2)" fill-opacity="1.000"/>
<rect x="3" y="22" width="1" height="1" fill="rgb(0,0,0)" fill-opacity="1.000"/>
<rect x="4" y="22" width="1" height="1" fill="rgb(42,55,110)" fill-opacity="1.000"/>
<rect x="5" y="22" width="1" height="1" fill="rgb(46,62,122)" fill-opacity="1.000"/>
<rect x="6" y="22" width="1" height="1" fill="rgb(37,49,97)" fill-opacity="1.000"/>
<rect x="7" y="22" width="1" height="1" fill="rgb(51,68,135)" fill-opacity="1.000"/>
<rect x="8" y="22" width="1" height="1" fill="rgb(28,37,72)" fill-opacity="1.000"/>
<rect x="9" y="22" width="1" height="1" fill="rgb(46,62,122)" fill-opacity="1.000"/>
<rect x="10" y="22" width="1" height="1" fill="rgb(38,51,99)" fill-opacity="1.000"/>
<rect x="11" y="22" width="1" height="1" fill="rgb(38,51,99)" fill-opacity="1.000"/>
<rect x="12" y="22" width="1" height="1" fill="rgb(35,46,89)" fill-opacity="1.000"/>
<rect x="13" y="22" width="1" height="1" fill="rgb(24,32,59)" fill-opacity="1.000"/>
<rect x="14" y="22" width="1" height="1" fill="rgb(34,46,89)" fill-opacity="1.000"/>
<rect x="15" y="22" width="1" height="1" fill="rgb(0,0,0)" fill-opacity="1.000"/>
<rect x="2" y="23" width="1" height="1" fill="rgb(5,6,10)" fill-opacity="1.000"/>
<rect x="3" y="23" width="1" height="1" fill="rgb(1,1,1)" fill-opacity="1.000"/>
<rect x="4" y="23" width="1" height="1" fill="rgb(32,44,92)" fill-opacity="1.000"/>
<rect x="5" y="23" width="1" height="1" fill="rgb(32,44,92)" fill-opacity="1.000"/>
<rect x="6" y="23" width="1" height="1" fill="rgb(32,44,92)" fill-opacity="1.000"/>
<rect x="7" y="23" width="1" height="1" fill="rgb(27,36,75)" fill-opacity="1.000"/>
<rect x="8" y="23" width="1" height="1" fill="rgb(21,27,55)" fill-opacity="1.000"/>
<rect x="9" y="23" width="1" height="1" fill="rgb(36,49,102)" fill-opacity="1.000"/>
<rect x="10" y="23" width="1" height="1" fill="rgb(25,34,69)" fill-opacity="1.000"/>
<rect x="11" y="23" width="1" height="1" fill="rgb(26,34,69)" fill-opacity="1.000"/>
<rect x="12" y="23" width="1" height="1" fill="rgb(26,35,70)" fill-opacity="1.000"/>
<rect x="13" y="23" width="1" height="1" fill="rgb(29,40,83)" fill-opacity="1.000"/>
<rect x="14" y="23" width="1" height="1" fill="rgb(32,44,92)" fill-opacity="1.000"/>
<rect x="15" y="23" width="1" height="1" fill="rgb(0,0,0)" fill-opacity="1.000"/>
<rect x="16" y="23" width="1" height="1" fill="rgb(4,5,10)" fill-opacity="1.000"/>
<rect x="2" y="24" width="1" height="1" fill="rgb(10,13,25)" fill-opacity="1.000"/>
<rect x="3" y="24" width="1" height="1" fill="rgb(5,6,10)" fill-opacity="1.000"/>
<rect x="4" y="24" width="1" height="1" fill="rgb(5,5,5)" fill-opacity="1.000"/>
<rect x="5" y="24" width="1" height="1" fill="rgb(9,12,23)" fill-opacity="1.000"/>
<rect x="6" y="24" width="1" height="1" fill="rgb(3,3,3)" fill-opacity="1.000"/>
<rect x="7" y="24" width="1" height="1" fill="rgb(8,10,20)" fill-opacity="1.000"/>
<rect x="8" y="24" width="1" height="1" fill="rgb(14,19,37)" fill-opacity="1.000"/>
<rect x="9" y="24" width="1" height="1" fill="rgb(18,25,47)" fill-opacity="1.000"/>
<rect x="10" y="24" width="1" height="1" fill="rgb(1,1,1)" fill-opacity="1.000"/>
<rect x="11" y="24" width="1" height="1" fill="rgb(6,6,6)" fill-opacity="1.000"/>
<rect x="12" y="24" width="1" height="1" fill="rgb(20,27,54)" fill-opacity="1.000"/>
<rect x="13" y="24" width="1" height="1" fill="rgb(2,2,2)" fill-opacity="1.000"/>
<rect x="14" y="24" width="1" height="1" fill="rgb(13,18,37)" fill-opacity="1.000"/>
<rect x="15" y="24" width="1" height="1" fill="rgb(9,13,26)" fill-opacity="1.000"/>
<rect x="16" y="24" width="1" height="1" fill="rgb(10,13,25)" fill-opacity="1.000"/>
<rect x="2" y="25" width="1" height="1" fill="rgb(9,13,26)" fill-opacity="1.000"/>
<rect x="3" y="25" width="1" height="1" fill="rgb(121,98,44)" fill-opacity="1.000"/>
<rect x="4" y="25" width="1" height="1" fill="rgb(141,107,50)" fill-opacity="1.000"/>
<rect x="5" y="25" width="1" height="1" fill="rgb(185,133,46)" fill-opacity="1.000"/>
<rect x="6" y="25" width="1" height="1" fill="rgb(193,143,27)" fill-opacity="1.000"/>
<rect x="7" y="25" width="1" height="1" fill="rgb(163,127,48)" fill-opacity="1.000"/>
<rect x="8" y="25" width="1" height="1" fill="rgb(158,124,49)" fill-opacity="1.000"/>
<rect x="9" y="25" width="1" height="1" fill="rgb(155,117,57)" fill-opacity="1.000"/>
<rect x="10" y="25" width="1" height="1" fill="rgb(193,143,27)" fill-opacity="1.000"/>
<rect x="11" y="25" width="1" height="1" fill="rgb(187,140,67)" fill-opacity="1.000"/>
<rect x="12" y="25" width="1" height="1" fill="rgb(112,99,78)" fill-opacity="1.000"/>
<rect x="13" y="25" width="1" height="1" fill="rgb(214,159,30)" fill-opacity="1.000"/>
<rect x="14" y="25" width="1" height="1" fill="rgb(214,159,30)" fill-opacity="1.000"/>
<rect x="15" y="25" width="1" height="1" fill="rgb(170,126,62)" fill-opacity="1.000"/>
<rect x="16" y="25" width="1" height="1" fill="rgb(10,13,25)" fill-opacity="1.000"/>
<rect x="2" y="26" width="1" height="1" fill="rgb(16,23,47)" fill-opacity="1.000"/>
<rect x="3" y="26" width="1" height="1" fill="rgb(26,37,77)" fill-opacity="1.000"/>
<rect x="4" y="26" width="1" height="1" fill="rgb(13,18,37)" fill-opacity="1.000"/>
<rect x="5" y="26" width="1" height="1" fill="rgb(19,27,56)" fill-opacity="1.000"/>
<rect x="6" y="26" width="1" height="1" fill="rgb(22,31,64)" fill-opacity="1.000"/>
<rect x="7" y="26" width="1" height="1" fill="rgb(13,18,37)" fill-opacity="1.000"/>
<rect x="8" y="26" width="1" height="1" fill="rgb(5,7,14)" fill-opacity="1.000"/>
<rect x="9" y="26" width="1" height="1" fill="rgb(5,7,14)" fill-opacity="1.000"/>
<rect x="10" y="26" width="1" height="1" fill="rgb(9,13,26)" fill-opacity="1.000"/>
<rect x="11" y="26" width="1" height="1" fill="rgb(9,13,26)" fill-opacity="1.000"/>
<rect x="12" y="26" width="1" height="1" fill="rgb(6,8,15)" fill-opacity="1.000"/>
<rect x="13" y="26" width="1" height="1" fill="rgb(13,18,37)" fill-opacity="1.000"/>
<rect x="14" y="26" width="1" height="1" fill="rgb(24,34,71)" fill-opacity="1.000"/>
<rect x="15" y="26" width="1" height="1" fill="rgb(21,31,64)" fill-opacity="1.000"/>
<rect x="16" y="26" width="1" height="1" fill="rgb(16,23,47)" fill-opacity="1.000"/>
<rect x="2" y="27" width="1" height="1" fill="rgb(20,28,57)" fill-opacity="1.000"/>
<rect x="3" y="27" width="1" height="1" fill="rgb(214,159,30)" fill-opacity="1.000"/>
<rect x="4" y="27" width="1" height="1" fill="rgb(214,159,30)" fill-opacity="1.000"/>
<rect x="5" y="27" width="1" height="1" fill="rgb(169,138,85)" fill-opacity="1.000"/>
<rect x="6" y="27" width="1" height="1" fill="rgb(242,182,53)" fill-opacity="1.000"/>
<rect x="7" y="27" width="1" height="1" fill="rgb(128,107,64)" fill-opacity="1.000"/>
<rect x="8" y="27" width="1" height="1" fill="rgb(214,159,30)" fill-opacity="1.000"/>
<rect x="9" y="27" width="1" height="1" fill="rgb(132,104,59)" fill-opacity="1.000"/>
<rect x="10" y="27" width="1" height="1" fill="rgb(242,182,53)" fill-opacity="1.000"/>
<rect x="11" y="27" width="1" height="1" fill="rgb(139,114,90)" fill-opacity="1.000"/>
<rect x="12" y="27" width="1" height="1" fill="rgb(136,113,65)" fill-opacity="1.000"/>
<rect x="13" y="27" width="1" height="1" fill="rgb(204,160,65)" fill-opacity="1.000"/>
<rect x="14" y="27" width="1" height="1" fill="rgb(242,182,53)" fill-opacity="1.000"/>
<rect x="15" y="27" width="1" height="1" fill="rgb(204,160,65)" fill-opacity="1.000"/>
<rect x="16" y="27" width="1" height="1" fill="rgb(13,18,37)" fill-opacity="1.000"/>
<rect x="1" y="28" width="1" height="1" fill="rgb(13,18,37)" fill-opacity="1.000"/>
<rect x="2" y="28" width="1" height="1" fill="rgb(0,0,0)" fill-opacity="1.000"/>
<rect x="3" y="28" width="1" height="1" fill="rgb(13,13,13)" fill-opacity="1.000"/>
<rect x="4" y="28" width="1" height="1" fill="rgb(5,5,5)" fill-opacity="1.000"/>
<rect x="5" y="28" width="1" height="1" fill="rgb(9,13,26)" fill-opacity="1.000"/>
<rect x="6" y="28" width="1" height="1" fill="rgb(5,5,5)" fill-opacity="1.000"/>
<rect x="7" y="28" width="1" height="1" fill="rgb(5,5,5)" fill-opacity="1.000"/>
<rect x="8" y="28" width="1" height="1" fill="rgb(9,13,26)" fill-opacity="1.000"/>
<rect x="9" y="28" width="1" height="1" fill="rgb(20,28,57)" fill-opacity="1.000"/>
<rect x="10" y="28" width="1" height="1" fill="rgb(5,5,5)" fill-opacity="1.000"/>
<rect x="11" y="28" width="1" height="1" fill="rgb(5,7,14)" fill-opacity="1.000"/>
<rect x="12" y="28" width="1" height="1" fill="rgb(17,24,48)" fill-opacity="1.000"/>
<rect x="13" y="28" width="1" height="1" fill="rgb(13,13,13)" fill-opacity="1.000"/>
<rect x="14" y="28" width="1" height="1" fill="rgb(13,13,13)" fill-opacity="1.000"/>
<rect x="15" y="28" width="1" height="1" fill="rgb(13,13,13)" fill-opacity="1.000"/>
<rect x="16" y="28" width="1" height="1" fill="rgb(5,7,14)" fill-opacity="1.000"/>
<rect x="17" y="28" width="1" height="1" fill="rgb(5,7,14)" fill-opacity="1.000"/>
<rect x="0" y="29" width="1" height="1" fill="rgb(5,7,14)" fill-opacity="1.000"/>
<rect x="1" y="29" width="1" height="1" fill="rgb(14,18,36)" fill-opacity="1.000"/>
<rect x="2" y="29" width="1" height="1" fill="rgb(34,44,101)" fill-opacity="1.000"/>
<rect x="3" y="29" width="1" height="1" fill="rgb(34,45,101)" fill-opacity="1.000"/>
<rect x="4" y="29" width="1" height="1" fill="rgb(40,55,118)" fill-opacity="1.000"/>
<rect x="5" y="29" width="1" height="1" fill="rgb(40,53,113)" fill-opacity="1.000"/>
<rect x="6" y="29" width="1" height="1" fill="rgb(38,51,112)" fill-opacity="1.000"/>
<rect x="7" y="29" width="1" height="1" fill="rgb(40,53,114)" fill-opacity="1.000"/>
<rect x="8" y="29" width="1" height="1" fill="rgb(36,47,103)" fill-opacity="1.000"/>
<rect x="9" y="29" width="1" height="1" fill="rgb(30,37,88)" fill-opacity="1.000"/>
<rect x="10" y="29" width="1" height="1" fill="rgb(31,38,89)" fill-opacity="1.000"/>
<rect x="11" y="29" width="1" height="1" fill="rgb(41,56,117)" fill-opacity="1.000"/>
<rect x="12" y="29" width="1" height="1" fill="rgb(39,53,112)" fill-opacity="1.000"/>
<rect x="13" y="29" width="1" height="1" fill="rgb(38,52,111)" fill-opacity="1.000"/>
<rect x="14" y="29" width="1" height="1" fill="rgb(41,56,117)" fill-opacity="1.000"/>
<rect x="15" y="29" width="1" height="1" fill="rgb(32,41,94)" fill-opacity="1.000"/>
<rect x="16" y="29" width="1" height="1" fill="rgb(37,50,107)" fill-opacity="1.000"/>
<rect x="17" y="29" width="1" height="1" fill="rgb(0,0,0)" fill-opacity="1.000"/>
<rect x="18" y="29" width="1" height="1" fill="rgb(0,0,0)" fill-opacity="1.000"/>
<rect x="0" y="30" width="1" height="1" fill="rgb(0,0,0)" fill-opacity="1.000"/>
<rect x="1" y="30" width="1" height="1" fill="rgb(32,42,97)" fill-opacity="1.000"/>
<rect x="2" y="30" width="1" height="1" fill="rgb(35,46,104)" fill-opacity="1.000"/>
<rect x="3" y="30" width="1" height="1" fill="rgb(40,54,116)" fill-opacity="1.000"/>
<rect x="4" y="30" width="1" height="1" fill="rgb(37,50,110)" fill-opacity="1.000"/>
<rect x="5" y="30" width="1" height="1" fill="rgb(43,59,123)" fill-opacity="1.000"/>
<rect x="6" y="30" width="1" height="1" fill="rgb(33,42,97)" fill-opacity="1.000"/>
<rect x="7" y="30" width="1" height="1" fill="rgb(38,49,104)" fill-opacity="1.000"/>
<rect x="8" y="30" width="1" height="1" fill="rgb(41,55,116)" fill-opacity="1.000"/>
<rect x="9" y="30" width="1" height="1" fill="rgb(26,31,77)" fill-opacity="1.000"/>
<rect x="10" y="30" width="1" height="1" fill="rgb(34,45,101)" fill-opacity="1.000"/>
<rect x="11" y="30" width="1" height="1" fill="rgb(38,50,109)" fill-opacity="1.000"/>
<rect x="12" y="30" width="1" height="1" fill="rgb(31,40,93)" fill-opacity="1.000"/>
<rect x="13" y="30" width="1" height="1" fill="rgb(35,47,104)" fill-opacity="1.000"/>
<rect x="14" y="30" width="1" height="1" fill="rgb(30,37,88)" fill-opacity="1.000"/>
<rect x="15" y="30" width="1" height="1" fill="rgb(29,35,84)" fill-opacity="1.000"/>
<rect x="16" y="30" width="1" height="1" fill="rgb(32,40,90)" fill-opacity="1.000"/>
<rect x="17" y="30" width="1" height="1" fill="rgb(28,34,83)" fill-opacity="1.000"/>
<rect x="18" y="30" width="1" height="1" fill="rgb(0,0,0)" fill-opacity="1.000"/>
<rect x="0" y="31" width="1" height="1" fill="rgb(22,31,64)" fill-opacity="1.000"/>
<rect x="1" y="31" width="1" height="1" fill="rgb(24,27,71)" fill-opacity="1.000"/>
<rect x="2" y="31" width="1" height="1" fill="rgb(34,45,102)" fill-opacity="1.000"/>
<rect x="3" y="31" width="1" height="1" fill="rgb(31,38,89)" fill-opacity="1.000"/>
<rect x="4" y="31" width="1" height="1" fill="rgb(37,50,110)" fill-opacity="1.000"/>
<rect x="5" y="31" width="1" height="1" fill="rgb(34,45,102)" fill-opacity="1.000"/>
<rect x="6" y="31" width="1" height="1" fill="rgb(35,44,99)" fill-opacity="1.000"/>
<rect x="7" y="31" width="1" height="1" fill="rgb(31,40,93)" fill-opacity="1.000"/>
<rect x="8" y="31" width="1" height="1" fill="rgb(34,44,101)" fill-opacity="1.000"/>
<rect x="9" y="31" width="1" height="1" fill="rgb(38,51,109)" fill-opacity="1.000"/>
<rect x="10" y="31" width="1" height="1" fill="rgb(32,40,90)" fill-opacity="1.000"/>
<rect x="11" y="31" width="1" height="1" fill="rgb(35,46,102)" fill-opacity="1.000"/>
<rect x="12" y="31" width="1" height="1" fill="rgb(34,45,99)" fill-opacity="1.000"/>
<rect x="13" y="31" width="1" height="1" fill="rgb(38,51,109)" fill-opacity="1.000"/>
<rect x="14" y="31" width="1" height="1" fill="rgb(34,44,101)" fill-opacity="1.000"/>
<rect x="15" y="31" width="1" height="1" fill="rgb(33,43,98)" fill-opacity="1.000"/>
<rect x="16" y="31" width="1" height="1" fill="rgb(36,48,106)" fill-opacity="1.000"/>
<rect x="17" y="31" width="1" height="1" fill="rgb(31,38,89)" fill-opacity="1.000"/>
<rect x="18" y="31" width="1" height="1" fill="rgb(0,0,0)" fill-opacity="1.000"/>
<rect x="0" y="32" width="1" height="1" fill="rgb(0,0,0)" fill-opacity="1.000"/>
<rect x="1" y="32" width="1" height="1" fill="rgb(9,13,26)" fill-opacity="1.000"/>
<rect x="2" y="32" width="1" height="1" fill="rgb(9,13,26)" fill-opacity="1.000"/>
<rect x="3" y="32" width="1" height="1" fill="rgb(0,0,0)" fill-opacity="1.000"/>
<rect x="4" y="32" width="1" height="1" fill="rgb(16,23,47)" fill-opacity="1.000"/>
<rect x="5" y="32" width="1" height="1" fill="rgb(17,24,48)" fill-opacity="1.000"/>
<rect x="6" y="32" width="1" height="1" fill="rgb(13,18,37)" fill-opacity="1.000"/>
<rect x="7" y="32" width="1" height="1" fill="rgb(20,28,57)" fill-opacity="1.000"/>
<rect x="8" y="32" width="1" height="1" fill="rgb(9,13,26)" fill-opacity="1.000"/>
<rect x="9" y="32" width="1" height="1" fill="rgb(14,19,38)" fill-opacity="1.000"/>
<rect x="10" y="32" width="1" height="1" fill="rgb(19,27,56)" fill-opacity="1.000"/>
<rect x="11" y="32" width="1" height="1" fill="rgb(10,14,27)" fill-opacity="1.000"/>
<rect x="12" y="32" width="1" height="1" fill="rgb(23,32,65)" fill-opacity="1.000"/>
<rect x="13" y="32" width="1" height="1" fill="rgb(23,33,66)" fill-opacity="1.000"/>
<rect x="14" y="32" width="1" height="1" fill="rgb(17,24,48)" fill-opacity="1.000"/>
<rect x="15" y="32" width="1" height="1" fill="rgb(24,34,66)" fill-opacity="1.000"/>
<rect x="16" y="32" width="1" height="1" fill="rgb(0,0,0)" fill-opacity="1.000"/>
<rect x="17" y="32" width="1" height="1" fill="rgb(6,8,15)" fill-opacity="1.000"/>
<rect x="18" y="32" width="1" height="1" fill="rgb(0,0,0)" fill-opacity="1.000"/>
</svg>